<svg fill="none" height="706" width="792" xmlns="http://www.w3.org/2000/svg"><clipPath id="a"><path d="M0 0h792v706H0z"/></clipPath><g clip-path="url(#a)"><path d="M0 0h792v706H0z" fill="#fff"/><path d="M204 0h486v706H204z" fill="#e5f3ff"/><path d="M359.758 38.156c0-.802.193-1.414.578-1.836.385-.427.94-.64 1.664-.64.714 0 1.266.213 1.656.64.391.427.586 1.04.586 1.836 0 .792-.198 1.404-.594 1.836-.39.432-.94.649-1.648.649-.719 0-1.273-.216-1.664-.649-.385-.432-.578-1.044-.578-1.836zm23.65-6.972h-2.368c.064.288.128.992.128 1.392V42.24c-.016.416-.176.56-.592.56-.4 0-1.088-.048-1.776-.176l.192 1.984a23.15 23.15 0 0 0 2.608.128c1.136 0 1.664-.576 1.664-1.504v-7.408-3.232c0-.4.112-1.184.144-1.408zm-7.84 2.56v2.112a16.327 16.327 0 0 1 1.552-.064h9.888c.432 0 1.056.016 1.552.064V33.76c-.416.064-1.12.096-1.568.096h-9.872c-.512 0-1.072-.048-1.552-.112zm4.08 4.336l-1.808-.864c-.656 1.36-1.936 3.12-3.008 4.144l1.728 1.184c.88-.96 2.352-3.056 3.088-4.464zm6.88-.912l-1.744.944c.768.992 1.904 2.928 2.592 4.304l1.888-1.04c-.64-1.152-1.92-3.184-2.736-4.208zm16.8-4l-1.296-.976c-.336.112-.96.192-1.664.192h-5.648c-.464 0-1.456-.048-1.888-.112v2.288c.352-.032 1.232-.112 1.888-.112h5.44c-.368 1.136-1.344 2.72-2.4 3.92-1.504 1.664-3.968 3.616-6.56 4.576l1.664 1.728c2.48-1.168 4.896-3.152 6.688-5.216 1.376-1.6 2.56-3.776 3.216-5.296.144-.336.432-.816.56-.992zm-3.568 4.96l-1.504 1.488c1.712 1.552 3.456 3.456 4.64 5.104l1.824-1.584c-1.04-1.28-3.312-3.664-4.96-5.008zm9.456-6.384v2.064c.48-.032 1.168-.064 1.712-.064h6.432a30.6 30.6 0 0 1 1.712.064v-2.064a15.63 15.63 0 0 1-1.712.112h-6.432c-.544 0-1.2-.048-1.712-.112zm-1.872 4.08v2.096a24.238 24.238 0 0 1 1.536-.048h10.48c.448 0 1.056.016 1.472.032v-2.08c-.432.08-1.136.096-1.472.096h-10.48c-.496 0-1.056-.032-1.536-.096zm8.192 1.12l-2.224.016c0 1.712-.224 3.216-1.024 4.432-.624.944-1.76 1.856-2.896 2.304l1.888 1.36c1.408-.736 2.656-1.968 3.2-3.088.688-1.328 1.056-2.928 1.056-5.024zm7.207 2.512l.944 1.872c1.824-.544 4.288-1.616 5.728-2.464 1.744-1.024 3.68-2.528 4.64-3.568l-1.584-1.552c-.832 1.04-2.432 2.464-4 3.408-1.264.768-3.632 1.84-5.728 2.304zm5.552-1.04v5.264c0 .576-.048 1.424-.096 1.744h2.384c-.096-.32-.112-1.168-.112-1.744V38zm12.608-6.576l-1.52 1.616c1.168.8 3.184 2.544 4.016 3.44l1.632-1.664c-.944-.976-3.024-2.64-4.128-3.392zm-2.016 10.656l1.36 2.112c2.24-.384 4.304-1.264 5.936-2.24 2.576-1.552 4.704-3.76 5.904-5.936l-1.232-2.24c-1.024 2.16-3.104 4.592-5.84 6.224-1.552.912-3.616 1.728-6.128 2.08zm26.624-11.6l-1.28.528c.432.608.928 1.568 1.264 2.224l1.28-.56c-.304-.592-.864-1.6-1.264-2.192zm1.888-.72l-1.264.528c.432.592.944 1.536 1.28 2.192l1.28-.544c-.288-.56-.88-1.568-1.296-2.176zm-.464 4.24l-1.632-1.008c-.368.128-.896.192-1.392.192h-4.576l-.736 1.824h5.392c-.256 1.184-1.184 3.104-2.272 4.352-1.392 1.584-3.168 2.976-6.448 3.968l1.888 1.68c3.008-1.184 4.944-2.656 6.464-4.512 1.44-1.776 2.352-3.92 2.784-5.344.128-.4.352-.832.528-1.152zm-5.216-2.528l-2.336-.768a7.376 7.376 0 0 1-.72 1.68c-.8 1.376-2.192 3.44-5.008 5.152l1.808 1.328c2.288-1.568 4.208-3.824 5.28-5.76.192-.336.608-1.072.976-1.632zm14.288-1.472v13.2c0 .272-.096.368-.4.384-.272 0-1.216.016-1.984-.016.24.384.544 1.056.64 1.504 1.36 0 2.224-.032 2.848-.272.608-.272.848-.656.848-1.6v-13.2zm-6 1.04v1.52h14.08v-1.52zm3.472 3.376h7.072v.768h-7.072zm-1.824-1.216v3.2h10.864v-3.2zm-.4 3.904v1.312h9.584v4.944h1.952V37.52zm-1.616 1.984v1.456h14.816v-1.456zm1.488 2.208v1.392h10.752v-1.392zm14.816-1.504v1.568h14.272v-1.568zm.032-7.184v1.584h14.176v-1.584zm.656 2.864v1.504h12.912v-1.504zm.8 2.208v1.392h11.36v-1.392zm4.64-1.44v8.784h1.904v-8.784zm-1.392-6.256v3.376h1.792V30.4zm2.96 0v3.264h1.824V30.4zm-1.92 10.512c-1.312 1.216-3.856 2.272-6.272 2.736.416.4.976 1.136 1.232 1.6 2.464-.64 5.024-2 6.544-3.664zm2.64-.048l-1.488.592c1.504 1.808 3.952 3.168 6.48 3.808.288-.528.864-1.328 1.296-1.728-2.496-.416-4.992-1.408-6.288-2.672zm2.96-10.336c-.224.704-.64 1.68-1.008 2.336l1.552.48c.416-.592.96-1.456 1.472-2.336zm-2.112 3.44c-.16.592-.496 1.408-.784 1.984l1.632.464c.336-.512.752-1.216 1.184-1.984zm-8.08-2.928c.432.736.944 1.712 1.12 2.336l1.744-.624c-.224-.624-.752-1.584-1.216-2.272zm2.032 3.584c.24.464.512 1.136.608 1.552l1.952-.336c-.128-.432-.432-1.056-.704-1.504zm21.2-3.296V45.44h1.872V33.136h2.784v-1.808zm-8.432.624v1.664h7.744v-1.664zm-.336 4.48v1.728h8.272v-1.728zm3.28-5.904v2.464h1.856v-2.464zm-2.016 3.536c.272.752.512 1.744.56 2.4l1.68-.4c-.096-.64-.336-1.616-.656-2.336zm4.288-.4c-.128.736-.416 1.76-.672 2.432l1.504.368c.288-.608.608-1.52.96-2.416zm-3.984 9.328v1.664h4.944v-1.664zm-.656-3.776v6.24h1.776V40.88h3.008v4.512h1.856v-6.176zm12.016-7.888V32c-.352 1.12-1.088 3.6-1.728 5.136 1.296 1.248 1.632 2.416 1.648 3.28 0 .56-.112.912-.384 1.088a1.16 1.16 0 0 1-.592.144c-.24.016-.56 0-.912-.016.304.528.464 1.344.48 1.872.464.016.912.016 1.28-.032.416-.064.784-.192 1.104-.416.608-.416.88-1.2.88-2.384-.016-1.072-.272-2.336-1.6-3.76.624-1.376 1.328-3.216 1.904-4.768l-1.408-.88-.304.064zM359.758 62.156c0-.802.193-1.414.578-1.836.385-.427.94-.64 1.664-.64.714 0 1.266.213 1.656.64.391.427.586 1.04.586 1.836 0 .792-.198 1.404-.594 1.836-.39.432-.94.649-1.648.649-.719 0-1.273-.217-1.664-.649-.385-.432-.578-1.044-.578-1.836zM382.016 68h-6.578V56.578h6.578v1.984h-4.157v2.508h3.868v1.985h-3.868V66h4.157zm7.242-9.57c-.912 0-1.617.343-2.117 1.03-.5.683-.75 1.636-.75 2.86 0 2.547.955 3.82 2.867 3.82.802 0 1.773-.2 2.914-.6v2.03c-.938.39-1.984.586-3.141.586-1.661 0-2.932-.502-3.812-1.508-.88-1.01-1.321-2.458-1.321-4.343 0-1.188.217-2.227.649-3.118.432-.895 1.052-1.58 1.859-2.054.813-.48 1.763-.719 2.852-.719 1.109 0 2.224.268 3.344.805l-.782 1.968c-.427-.203-.856-.38-1.289-.53a3.846 3.846 0 0 0-1.273-.227zm10.874-4.014v13.2c0 .272-.096.368-.4.384-.272 0-1.216.016-1.984-.016.24.384.544 1.056.64 1.504 1.36 0 2.224-.032 2.848-.272.608-.272.848-.656.848-1.6v-13.2zm-6 1.04v1.52h14.08v-1.52zm3.472 3.376h7.072v.768h-7.072zm-1.824-1.216v3.2h10.864v-3.2zm-.4 3.904v1.312h9.584v4.944h1.952V61.52zm-1.616 1.984v1.456h14.816v-1.456zm1.488 2.208v1.392h10.752v-1.392zm14.816-1.504v1.568h14.272v-1.568zm.032-7.184v1.584h14.176v-1.584zm.656 2.864v1.504h12.912v-1.504zm.8 2.208v1.392h11.36v-1.392zm4.64-1.44v8.784h1.904v-8.784zm-1.392-6.256v3.376h1.792V54.4zm2.96 0v3.264h1.824V54.4zm-1.92 10.512c-1.312 1.216-3.856 2.272-6.272 2.736.416.4.976 1.136 1.232 1.6 2.464-.64 5.024-2 6.544-3.664zm2.64-.048l-1.488.592c1.504 1.808 3.952 3.168 6.48 3.808.288-.528.864-1.328 1.296-1.728-2.496-.416-4.992-1.408-6.288-2.672zm2.96-10.336c-.224.704-.64 1.68-1.008 2.336l1.552.48c.416-.592.96-1.456 1.472-2.336zm-2.112 3.44c-.16.592-.496 1.408-.784 1.984l1.632.464c.336-.512.752-1.216 1.184-1.984zm-8.08-2.928c.432.736.944 1.712 1.12 2.336l1.744-.624c-.224-.624-.752-1.584-1.216-2.272zm2.032 3.584c.24.464.512 1.136.608 1.552l1.952-.336c-.128-.432-.432-1.056-.704-1.504zm21.2-3.296V69.44h1.872V57.136h2.784v-1.808zm-8.432.624v1.664h7.744v-1.664zm-.336 4.48v1.728h8.272v-1.728zm3.28-5.904v2.464h1.856v-2.464zm-2.016 3.536c.272.752.512 1.744.56 2.4l1.68-.4c-.096-.64-.336-1.616-.656-2.336zm4.288-.4c-.128.736-.416 1.76-.672 2.432l1.504.368c.288-.608.608-1.52.96-2.416zm-3.984 9.328v1.664h4.944v-1.664zm-.656-3.776v6.24h1.776V64.88h3.008v4.512h1.856v-6.176zm12.016-7.888V56c-.352 1.12-1.088 3.6-1.728 5.136 1.296 1.248 1.632 2.416 1.648 3.28 0 .56-.112.912-.384 1.088a1.16 1.16 0 0 1-.592.144c-.24.016-.56 0-.912-.016.304.528.464 1.344.48 1.872.464.016.912.016 1.28-.032.416-.064.784-.192 1.104-.416.608-.416.88-1.2.88-2.384-.016-1.072-.272-2.336-1.6-3.76.624-1.376 1.328-3.216 1.904-4.768l-1.408-.88-.304.064zm101.114-19.172c0-.802.193-1.414.578-1.836.385-.427.94-.64 1.664-.64.714 0 1.266.213 1.656.64.391.427.586 1.04.586 1.836 0 .792-.198 1.404-.594 1.836-.39.432-.94.649-1.648.649-.719 0-1.273-.216-1.664-.649-.385-.432-.578-1.044-.578-1.836zM563.07 42h-2.382v-5.102c0-.63-.107-1.101-.321-1.414-.208-.317-.539-.476-.992-.476-.609 0-1.052.224-1.328.672s-.414 1.185-.414 2.21V42h-2.383v-8.734h1.82l.321 1.117h.132a2.4 2.4 0 0 1 1.016-.938c.443-.229.951-.343 1.523-.343 1.308 0 2.193.427 2.657 1.28h.211a2.362 2.362 0 0 1 1.031-.944 3.476 3.476 0 0 1 1.547-.336c.989 0 1.737.255 2.242.765.51.505.766 1.318.766 2.438V42h-2.391v-5.102c0-.63-.107-1.101-.32-1.414-.209-.317-.539-.476-.993-.476-.583 0-1.02.208-1.312.625-.286.417-.43 1.078-.43 1.984zm7.797-10.992c0-.776.432-1.164 1.297-1.164s1.297.388 1.297 1.164c0 .37-.109.659-.328.867-.214.203-.537.305-.969.305-.865 0-1.297-.39-1.297-1.172zM573.352 42h-2.383v-8.734h2.383zm10.57 0h-2.383v-5.102c0-.63-.112-1.101-.336-1.414-.224-.317-.581-.476-1.07-.476-.667 0-1.149.224-1.445.672-.297.442-.446 1.18-.446 2.21V42h-2.383v-8.734h1.821l.32 1.117h.133c.265-.422.63-.74 1.094-.953.468-.22 1-.328 1.593-.328 1.016 0 1.787.276 2.313.828.526.547.789 1.338.789 2.375zm10.516 0h-2.383v-5.102c0-.63-.112-1.101-.336-1.414-.224-.317-.581-.476-1.071-.476-.666 0-1.148.224-1.445.672-.297.442-.445 1.18-.445 2.21V42h-2.383v-8.734h1.82l.321 1.117h.132c.266-.422.631-.74 1.094-.953.469-.22 1-.328 1.594-.328 1.016 0 1.786.276 2.312.828.526.547.79 1.338.79 2.375zm6.07-7.203c-.505 0-.901.161-1.188.484-.286.318-.45.771-.492 1.36h3.344c-.011-.589-.164-1.042-.461-1.36-.297-.323-.698-.484-1.203-.484zm.336 7.36c-1.406 0-2.505-.389-3.297-1.165-.792-.776-1.188-1.875-1.188-3.297 0-1.463.365-2.593 1.094-3.39.735-.802 1.748-1.203 3.039-1.203 1.235 0 2.196.351 2.883 1.054.687.703 1.031 1.675 1.031 2.914v1.157h-5.633c.026.677.227 1.205.602 1.586s.901.57 1.578.57a6.55 6.55 0 0 0 1.492-.164c.469-.11.959-.284 1.469-.524v1.844a5.483 5.483 0 0 1-1.336.461c-.474.104-1.052.156-1.734.156zm11.21-13.741v13.2c0 .272-.096.368-.4.384-.272 0-1.216.016-1.984-.016.24.384.544 1.056.64 1.504 1.36 0 2.224-.032 2.848-.272.608-.272.848-.656.848-1.6v-13.2zm-6 1.04v1.52h14.08v-1.52zm3.472 3.376h7.072v.768h-7.072zm-1.824-1.216v3.2h10.864v-3.2zm-.4 3.904v1.312h9.584v4.944h1.952V35.52zm-1.616 1.984v1.456h14.816v-1.456zm1.488 2.208v1.392h10.752v-1.392zm14.816-1.504v1.568h14.272v-1.568zm.032-7.184v1.584h14.176v-1.584zm.656 2.864v1.504h12.912v-1.504zm.8 2.208v1.392h11.36v-1.392zm4.64-1.44v8.784h1.904v-8.784zm-1.392-6.256v3.376h1.792V28.4zm2.96 0v3.264h1.824V28.4zm-1.92 10.512c-1.312 1.216-3.856 2.272-6.272 2.736.416.4.976 1.136 1.232 1.6 2.464-.64 5.024-2 6.544-3.664zm2.64-.048l-1.488.592c1.504 1.808 3.952 3.168 6.48 3.808.288-.528.864-1.328 1.296-1.728-2.496-.416-4.992-1.408-6.288-2.672zm2.96-10.336c-.224.704-.64 1.68-1.008 2.336l1.552.48c.416-.592.96-1.456 1.472-2.336zm-2.112 3.44c-.16.592-.496 1.408-.784 1.984l1.632.464c.336-.512.752-1.216 1.184-1.984zm-8.08-2.928c.432.736.944 1.712 1.12 2.336l1.744-.624c-.224-.624-.752-1.584-1.216-2.272zm2.032 3.584c.24.464.512 1.136.608 1.552l1.952-.336c-.128-.432-.432-1.056-.704-1.504zm21.2-3.296V43.44h1.872V31.136h2.784v-1.808zm-8.432.624v1.664h7.744v-1.664zm-.336 4.48v1.728h8.272v-1.728zm3.28-5.904v2.464h1.856v-2.464zm-2.016 3.536c.272.752.512 1.744.56 2.4l1.68-.4c-.096-.64-.336-1.616-.656-2.336zm4.288-.4c-.128.736-.416 1.76-.672 2.432l1.504.368c.288-.608.608-1.52.96-2.416zm-3.984 9.328v1.664h4.944v-1.664zm-.656-3.776v6.24h1.776V38.88h3.008v4.512h1.856v-6.176zm12.016-7.888V30c-.352 1.12-1.088 3.6-1.728 5.136 1.296 1.248 1.632 2.416 1.648 3.28 0 .56-.112.912-.384 1.088a1.16 1.16 0 0 1-.592.144c-.24.016-.56 0-.912-.016.304.528.464 1.344.48 1.872.464.016.912.016 1.28-.032.416-.064.784-.192 1.104-.416.608-.416.88-1.2.88-2.384-.016-1.072-.272-2.336-1.6-3.76.624-1.376 1.328-3.216 1.904-4.768l-1.408-.88-.304.064zM539.758 60.156c0-.802.193-1.414.578-1.836.385-.427.94-.64 1.664-.64.714 0 1.266.213 1.656.64.391.427.586 1.04.586 1.836 0 .792-.198 1.404-.594 1.836-.39.433-.94.649-1.648.649-.719 0-1.273-.216-1.664-.649-.385-.432-.578-1.044-.578-1.836zm22.422 2.672c0 1.031-.373 1.844-1.118 2.438-.739.593-1.77.89-3.093.89-1.219 0-2.297-.229-3.235-.687v-2.25c.771.344 1.422.586 1.954.726.536.14 1.026.211 1.468.211.532 0 .938-.101 1.219-.304.286-.204.43-.506.43-.907a.983.983 0 0 0-.188-.593 2.043 2.043 0 0 0-.555-.508c-.239-.162-.731-.42-1.476-.774-.698-.328-1.221-.643-1.57-.945s-.628-.654-.836-1.055c-.209-.4-.313-.87-.313-1.406 0-1.01.341-1.805 1.024-2.383.687-.578 1.635-.867 2.843-.867.594 0 1.159.07 1.696.211.541.14 1.106.339 1.695.594l-.781 1.883c-.61-.25-1.115-.425-1.516-.524a4.82 4.82 0 0 0-1.172-.148c-.458 0-.81.107-1.054.32a1.057 1.057 0 0 0-.368.836c0 .214.05.401.149.562.099.157.255.31.469.461.218.146.731.412 1.539.797 1.067.51 1.799 1.024 2.195 1.54.396.51.594 1.137.594 1.882zm11.367-8.25v7.39c0 .845-.19 1.584-.57 2.22-.375.635-.92 1.122-1.633 1.46-.714.339-1.558.508-2.532.508-1.468 0-2.609-.375-3.421-1.125-.813-.755-1.219-1.786-1.219-3.093v-7.36h2.414v6.992c0 .88.177 1.526.531 1.938.354.411.94.617 1.758.617.792 0 1.365-.206 1.719-.617.359-.417.539-1.068.539-1.953v-6.977zM583.789 66h-8.5v-1.57l5.477-7.852h-5.328v-2h8.203v1.563L578.172 64h5.617zm11.117-11.422v7.39c0 .845-.19 1.584-.57 2.22-.375.635-.919 1.122-1.633 1.46-.713.339-1.557.508-2.531.508-1.469 0-2.61-.375-3.422-1.125-.812-.755-1.219-1.786-1.219-3.093v-7.36h2.414v6.992c0 .88.177 1.526.532 1.938.354.411.94.617 1.757.617.792 0 1.365-.206 1.719-.617.359-.417.539-1.068.539-1.953v-6.977zm5.219 5.07h.781c.766 0 1.331-.127 1.696-.382.364-.256.546-.657.546-1.203 0-.542-.187-.928-.562-1.157-.37-.229-.945-.343-1.727-.343h-.734zm0 1.97V66h-2.422V54.578h3.328c1.552 0 2.701.284 3.446.852.744.562 1.117 1.419 1.117 2.57 0 .672-.185 1.27-.555 1.797-.37.52-.893.93-1.57 1.226A464.998 464.998 0 0 0 606.828 66h-2.687l-2.727-4.383zM608.266 66V54.578h2.422V66zm10.819-13.584v13.2c0 .272-.096.368-.4.384-.272 0-1.216.016-1.984-.016.24.384.544 1.056.64 1.504 1.36 0 2.224-.032 2.848-.272.608-.272.848-.656.848-1.6v-13.2zm-6 1.04v1.52h14.08v-1.52zm3.472 3.376h7.072v.768h-7.072zm-1.824-1.216v3.2h10.864v-3.2zm-.4 3.904v1.312h9.584v4.944h1.952V59.52zm-1.616 1.984v1.456h14.816v-1.456zm1.488 2.208v1.392h10.752v-1.392zm14.816-1.504v1.568h14.272v-1.568zm.032-7.184v1.584h14.176v-1.584zm.656 2.864v1.504h12.912v-1.504zm.8 2.208v1.392h11.36v-1.392zm4.64-1.44v8.784h1.904v-8.784zm-1.392-6.256v3.376h1.792V52.4zm2.96 0v3.264h1.824V52.4zm-1.92 10.512c-1.312 1.216-3.856 2.272-6.272 2.736.416.4.976 1.136 1.232 1.6 2.464-.64 5.024-2 6.544-3.664zm2.64-.048l-1.488.592c1.504 1.808 3.952 3.168 6.48 3.808.288-.528.864-1.328 1.296-1.728-2.496-.416-4.992-1.408-6.288-2.672zm2.96-10.336c-.224.704-.64 1.68-1.008 2.336l1.552.48c.416-.592.96-1.456 1.472-2.336zm-2.112 3.44c-.16.592-.496 1.408-.784 1.984l1.632.464c.336-.512.752-1.216 1.184-1.984zm-8.08-2.928c.432.736.944 1.712 1.12 2.336l1.744-.624c-.224-.624-.752-1.584-1.216-2.272zm2.032 3.584c.24.464.512 1.136.608 1.552l1.952-.336c-.128-.432-.432-1.056-.704-1.504zm21.2-3.296V67.44h1.872V55.136h2.784v-1.808zm-8.432.624v1.664h7.744v-1.664zm-.336 4.48v1.728h8.272v-1.728zm3.28-5.904v2.464h1.856v-2.464zm-2.016 3.536c.272.752.512 1.744.56 2.4l1.68-.4c-.096-.64-.336-1.616-.656-2.336zm4.288-.4c-.128.736-.416 1.76-.672 2.432l1.504.368c.288-.608.608-1.52.96-2.416zm-3.984 9.328v1.664h4.944v-1.664zm-.656-3.776v6.24h1.776V62.88h3.008v4.512h1.856v-6.176zm12.016-7.888V54c-.352 1.12-1.088 3.6-1.728 5.136 1.296 1.248 1.632 2.416 1.648 3.28 0 .56-.112.912-.384 1.088a1.16 1.16 0 0 1-.592.144c-.24.016-.56 0-.912-.016.304.528.464 1.344.48 1.872.464.016.912.016 1.28-.032.416-.064.784-.192 1.104-.416.608-.416.88-1.2.88-2.384-.016-1.072-.272-2.336-1.6-3.76.624-1.376 1.328-3.216 1.904-4.768l-1.408-.88-.304.064zM239.135 30.171v17.325c0 .357-.126.483-.525.504-.357 0-1.596.021-2.604-.021.315.504.714 1.386.84 1.974 1.785 0 2.919-.042 3.738-.357.798-.357 1.113-.861 1.113-2.1V30.171zm-7.875 1.365v1.995h18.48v-1.995zm4.557 4.431h9.282v1.008h-9.282zm-2.394-1.596v4.2h14.259v-4.2zm-.525 5.124v1.722h12.579v6.489h2.562v-8.211zm-2.121 2.604v1.911h19.446v-1.911zm1.953 2.898v1.827h14.112v-1.827zm19.446-1.974v2.058h18.732v-2.058zm.042-9.429v2.079h18.606v-2.079zm.861 3.759v1.974h16.947v-1.974zm1.05 2.898v1.827h14.91v-1.827zm6.09-1.89V49.89h2.499V38.361zm-1.827-8.211v4.431h2.352V30.15zm3.885 0v4.284h2.394V30.15zm-2.52 13.797c-1.722 1.596-5.061 2.982-8.232 3.591.546.525 1.281 1.491 1.617 2.1 3.234-.84 6.594-2.625 8.589-4.809zm3.465-.063l-1.953.777c1.974 2.373 5.187 4.158 8.505 4.998.378-.693 1.134-1.743 1.701-2.268-3.276-.546-6.552-1.848-8.253-3.507zm3.885-13.566c-.294.924-.84 2.205-1.323 3.066l2.037.63c.546-.777 1.26-1.911 1.932-3.066zm-2.772 4.515c-.21.777-.651 1.848-1.029 2.604l2.142.609a47.55 47.55 0 0 0 1.554-2.604zM253.73 30.99c.567.966 1.239 2.247 1.47 3.066l2.289-.819c-.294-.819-.987-2.079-1.596-2.982zm2.667 4.704c.315.609.672 1.491.798 2.037l2.562-.441c-.168-.567-.567-1.386-.924-1.974zm27.825-4.326V49.89h2.457V33.741h3.654v-2.373zm-11.067.819v2.184h10.164v-2.184zm-.441 5.88v2.268h10.857v-2.268zm4.305-7.749v3.234h2.436v-3.234zm-2.646 4.641c.357.987.672 2.289.735 3.15l2.205-.525c-.126-.84-.441-2.121-.861-3.066zm5.628-.525c-.168.966-.546 2.31-.882 3.192l1.974.483c.378-.798.798-1.995 1.26-3.171zm-5.229 12.243v2.184h6.489v-2.184zm-.861-4.956v8.19h2.331v-6.006h3.948v5.922h2.436v-8.106zm15.771-10.353v.882c-.462 1.47-1.428 4.725-2.268 6.741 1.701 1.638 2.142 3.171 2.163 4.305 0 .735-.147 1.197-.504 1.428-.21.126-.483.189-.777.189-.315.021-.735 0-1.197-.021.399.693.609 1.764.63 2.457.609.021 1.197.021 1.68-.042.546-.084 1.029-.252 1.449-.546.798-.546 1.155-1.575 1.155-3.129-.021-1.407-.357-3.066-2.1-4.935.819-1.806 1.743-4.221 2.499-6.258l-1.848-1.155-.399.084zm16.8.546v11.865h2.352V31.914zm3.78-1.386v16.38c0 .336-.105.441-.441.441-.378 0-1.47 0-2.562-.042.315.735.672 1.848.777 2.562 1.617 0 2.835-.084 3.612-.483.777-.441 1.05-1.113 1.05-2.478v-16.38zm-11.718-.231v19.572h2.394V30.297zm4.242 10.311v5.334c0 .21-.063.252-.252.252s-.735 0-1.302-.021c.273.609.546 1.512.609 2.142 1.05.021 1.848-.021 2.457-.378.63-.378.756-.966.756-1.953v-5.376zm-8.211 0v7.602h2.247v-5.355h6.867v-2.247zm-.819-3.78v2.268h11.802v-2.268zm2.205-3.864l-.462 2.289h9.24v-2.289zm-.588-2.394c-.378 1.995-1.071 4.116-1.932 5.481.588.21 1.68.63 2.184.924.798-1.449 1.596-3.738 2.058-5.943z" fill="#0a62ad"/><path d="M792 338v320H0V338z" fill="#fffae8"/><path d="M302.539 116.578L299.484 128h-1.336l-2.265-7.688a25.865 25.865 0 0 1-.195-.656c-.058-.224-.112-.435-.165-.633-.052-.203-.096-.38-.132-.531l-.071-.351c-.01.078-.031.192-.062.343a8.728 8.728 0 0 1-.11.524 9.35 9.35 0 0 1-.156.633c-.057.224-.12.45-.187.679l-2.203 7.68h-1.336l-3.032-11.422h1.383l1.836 7.164c.063.24.12.477.172.711.057.229.107.453.148.672.047.219.089.432.125.641.037.208.071.411.102.609.026-.203.06-.414.102-.633.041-.224.086-.45.132-.68.052-.229.107-.46.164-.695.063-.234.128-.469.196-.703l2.054-7.086h1.368l2.14 7.141c.073.245.141.487.203.726.063.24.118.474.164.703.053.224.097.441.133.649.042.203.078.396.11.578.036-.255.08-.523.132-.805.053-.281.112-.575.18-.882.073-.308.151-.626.234-.954l1.836-7.156zm4.906 2.703c.729 0 1.354.162 1.875.485s.92.776 1.196 1.359c.276.578.414 1.255.414 2.031v.805h-5.914c.015 1.005.265 1.771.75 2.297.484.526 1.166.789 2.046.789.542 0 1.021-.05 1.438-.149s.849-.244 1.297-.437v1.141a6.314 6.314 0 0 1-1.289.421 7.36 7.36 0 0 1-1.5.133c-.823 0-1.542-.166-2.156-.5a3.487 3.487 0 0 1-1.422-1.484c-.339-.651-.508-1.448-.508-2.391 0-.922.154-1.719.461-2.39.312-.677.75-1.198 1.312-1.563.568-.364 1.235-.547 2-.547zm-.015 1.063c-.693 0-1.245.226-1.657.679-.411.454-.656 1.086-.734 1.899h4.531c-.005-.511-.086-.958-.242-1.344a1.889 1.889 0 0 0-.695-.906c-.313-.219-.714-.328-1.203-.328zm7-4.5v3.039c0 .349-.011.687-.032 1.015-.015.329-.028.584-.039.766h.071c.234-.385.573-.711 1.015-.976.443-.266 1.008-.399 1.696-.399 1.073 0 1.927.372 2.562 1.117.641.74.961 1.841.961 3.305 0 .963-.146 1.776-.437 2.437-.292.662-.704 1.162-1.235 1.5-.531.339-1.159.508-1.883.508-.677 0-1.234-.125-1.671-.375-.433-.255-.766-.565-1-.929h-.102L314.07 128h-.937v-12.156zm2.5 4.531c-.62 0-1.112.122-1.477.367-.364.24-.627.604-.789 1.094-.156.484-.234 1.099-.234 1.844v.07c0 1.078.179 1.904.539 2.477.359.567 1.013.851 1.961.851.797 0 1.393-.292 1.789-.875.401-.583.601-1.417.601-2.5 0-1.104-.198-1.935-.593-2.492-.391-.557-.99-.836-1.797-.836zm19.529-3.175l-.8-.768c-.224.064-.8.112-1.104.112h-9.2a13.34 13.34 0 0 1-1.808-.144v1.44c.624-.048 1.216-.08 1.808-.08h9.12c-.512.992-2.016 2.72-3.505 3.568l1.073.848c1.824-1.264 3.344-3.328 3.984-4.416a5.18 5.18 0 0 1 .432-.56zm-6.4 2.096h-1.44c.064.432.064.784.064 1.168 0 2.672-.352 4.944-2.816 6.464a6.37 6.37 0 0 1-1.44.72l1.168.96c4.08-2.048 4.464-4.976 4.464-9.312zm20.384-2.784c0-.576.464-1.056 1.056-1.056.576 0 1.056.48 1.056 1.056 0 .592-.48 1.056-1.056 1.056a1.045 1.045 0 0 1-1.056-1.056zm-.736 0c0 .992.8 1.792 1.792 1.792s1.792-.8 1.792-1.792-.8-1.792-1.792-1.792-1.792.8-1.792 1.792zm1.392 1.072l-.976-.624a3.4 3.4 0 0 1-.864.096h-8.016a15.69 15.69 0 0 1-1.6-.112v1.424c.4-.032.944-.064 1.584-.064h8.192c-.224 1.536-.96 3.776-2.096 5.216-1.344 1.712-3.136 3.072-6.24 3.856l1.088 1.2c2.928-.928 4.832-2.4 6.288-4.288 1.28-1.632 2.048-4.224 2.4-5.904.064-.304.128-.576.24-.8zm14.864-1.712h-1.504c.048.384.096.848.096 1.392v2.528c0 3.008-.208 4.32-1.344 5.632-.992 1.136-2.352 1.76-3.824 2.144l1.056 1.104c1.168-.4 2.768-1.104 3.792-2.352 1.168-1.36 1.68-2.624 1.68-6.48v-2.576c0-.544.016-1.008.048-1.392zm-7.424.128h-1.456c.048.304.064.864.064 1.136v5.344c0 .464-.032.976-.064 1.232h1.456a13.636 13.636 0 0 1-.048-1.232v-5.344c0-.368.016-.832.048-1.136zm17.616-.368l-1.552-.288a5.689 5.689 0 0 1-.24 1.264c-.176.624-.464 1.44-.896 2.24-.56.976-1.696 2.624-2.849 3.44l1.265.768c.992-.848 2.176-2.464 2.8-3.712a19.56 19.56 0 0 0 1.056-2.576c.128-.336.272-.768.416-1.136zm-2.016 2.752l-.16 1.248h8.72c.368 0 .992 0 1.488.032v-1.376c-.464.08-1.104.096-1.488.096h-8.56zm5.872.672h-1.344c-.096 4.432-1.904 6.672-3.552 7.904a4.915 4.915 0 0 1-1.296.752l1.36.912c2.864-1.808 4.688-4.64 4.832-9.568zm7.168 2.016v1.568c.512-.032 1.36-.064 2.24-.064h8.784c.704 0 1.376.048 1.712.064v-1.568c-.368.032-.928.096-1.728.096h-8.768c-.912 0-1.745-.048-2.24-.096zm18.871-5.36l-.704 1.088c.928.528 2.672 1.68 3.44 2.272l.752-1.088c-.704-.512-2.544-1.744-3.488-2.272zm-2.4 11.44l.752 1.296c1.472-.304 3.68-1.04 5.296-1.984 2.56-1.504 4.768-3.568 6.16-5.712l-.784-1.328c-1.28 2.256-3.392 4.352-6.048 5.872-1.632.912-3.616 1.552-5.376 1.856zm0-7.84l-.72 1.088c.976.512 2.704 1.616 3.488 2.192l.736-1.12c-.688-.496-2.56-1.648-3.504-2.16zm17.152-.08v1.232c.304 0 1.216-.032 1.648-.032h5.92V128c0 .336 0 .72-.016.912h1.264c0-.24-.016-.608-.016-.864v-7.968c0-.304 0-.64.016-.816-.224 0-.624.016-.992.016h-6.176c-.432 0-1.344-.016-1.648-.048zm.352 3.792v1.248c.32-.032.896-.032 1.44-.032h6.4v-1.152h-6.4c-.544 0-1.12-.032-1.44-.064zm-.528 3.984v1.28c.256 0 .816-.032 1.312-.032h7.072v-1.184h-7.072c-.56 0-1.056-.032-1.312-.064zm16.256-10.72l-.928.976c1.2.784 3.184 2.512 4 3.344l.992-1.024c-.88-.88-2.944-2.544-4.064-3.296zm-1.376 10.72l.832 1.312c2.672-.496 4.688-1.488 6.304-2.496 2.416-1.52 4.272-3.696 5.36-5.68l-.768-1.376c-.928 1.984-2.864 4.352-5.344 5.904-1.52.944-3.6 1.92-6.384 2.336zm16.064-9.696v1.392c.4-.032 1.024-.064 1.344-.064h8.784c.464 0 .976.032 1.376.064v-1.392c-.384.048-.88.08-1.376.08h-8.784c-.336 0-.928-.032-1.344-.08zm4.944 9.392h1.36v-8.592h-1.36zm-5.92-.784v1.44c.48-.032.976-.048 1.408-.048h10.576c.304 0 .896 0 1.312.048v-1.44c-.4.032-.832.096-1.312.096h-10.576c-.448 0-.944-.032-1.408-.096zm18.288-9.632l-.928.976c1.2.784 3.184 2.512 4 3.344l.992-1.024c-.88-.88-2.944-2.544-4.064-3.296zm-1.376 10.72l.832 1.312c2.672-.496 4.688-1.488 6.304-2.496 2.416-1.52 4.272-3.696 5.36-5.68l-.768-1.376c-.928 1.984-2.864 4.352-5.344 5.904-1.52.944-3.6 1.92-6.384 2.336zm25.2-10.944l-.896.384c.528.72 1.072 1.68 1.472 2.528l.912-.416c-.368-.768-1.088-1.904-1.488-2.496zm2.08-.768l-.88.4a17.144 17.144 0 0 1 1.504 2.464l.912-.416c-.384-.736-1.104-1.888-1.536-2.448zm-8.928.528l-.72 1.088c.944.528 2.688 1.696 3.44 2.272l.768-1.088c-.704-.512-2.544-1.744-3.488-2.272zm-2.4 11.44l.752 1.312c1.472-.304 3.68-1.056 5.296-2 2.56-1.488 4.768-3.568 6.16-5.712l-.784-1.312c-1.296 2.256-3.392 4.336-6.048 5.856-1.632.928-3.616 1.552-5.376 1.856zm0-7.84l-.72 1.104c.976.496 2.704 1.616 3.488 2.176l.736-1.12c-.688-.496-2.56-1.648-3.504-2.16zm16.64-1.84v1.44c.48-.016 1.024-.032 1.568-.032h6.864c.528 0 1.136.016 1.568.032v-1.44c-.432.048-.992.08-1.568.08h-6.864c-.528 0-1.056-.032-1.568-.08zm-1.376 7.936v1.536c.528-.048 1.088-.08 1.68-.08h9.584c.416 0 .976.032 1.456.08v-1.536c-.464.048-.992.08-1.456.08h-9.584c-.592 0-1.136-.048-1.68-.08zm29.424-8.32l-.8-.768c-.224.064-.8.112-1.104.112h-9.2a13.34 13.34 0 0 1-1.808-.144v1.44c.624-.048 1.216-.08 1.808-.08h9.12c-.512.992-2.016 2.72-3.504 3.568l1.072.848c1.824-1.264 3.344-3.328 3.984-4.416a5.18 5.18 0 0 1 .432-.56zm-6.4 2.096h-1.44c.064.432.064.784.064 1.168 0 2.672-.352 4.944-2.816 6.464a6.37 6.37 0 0 1-1.44.72l1.168.96c4.08-2.048 4.464-4.976 4.464-9.312zM251.98 102c-11.04 0-19.98 8.96-19.98 20s8.94 20 19.98 20c11.06 0 20.02-8.96 20.02-20s-8.96-20-20.02-20zm13.86 12h-5.9c-.64-2.5-1.56-4.9-2.76-7.12a16.06 16.06 0 0 1 8.66 7.12zM252 106.08c1.66 2.4 2.96 5.06 3.82 7.92h-7.64c.86-2.86 2.16-5.52 3.82-7.92zM236.52 126c-.32-1.28-.52-2.62-.52-4s.2-2.72.52-4h6.76c-.16 1.32-.28 2.64-.28 4s.12 2.68.28 4zm1.64 4h5.9c.64 2.5 1.56 4.9 2.76 7.12-3.68-1.26-6.74-3.8-8.66-7.12zm5.9-16h-5.9c1.92-3.32 4.98-5.86 8.66-7.12-1.2 2.22-2.12 4.62-2.76 7.12zm7.94 23.92c-1.66-2.4-2.96-5.06-3.82-7.92h7.64c-.86 2.86-2.16 5.52-3.82 7.92zm4.68-11.92h-9.36c-.18-1.32-.32-2.64-.32-4s.14-2.7.32-4h9.36c.18 1.3.32 2.64.32 4s-.14 2.68-.32 4zm.5 11.12c1.2-2.22 2.12-4.62 2.76-7.12h5.9a16.06 16.06 0 0 1-8.66 7.12zm3.54-11.12c.16-1.32.28-2.64.28-4s-.12-2.68-.28-4h6.76c.32 1.28.52 2.62.52 4s-.2 2.72-.52 4z" fill="#0a62ad"/><path d="M302.539 380.578L299.484 392h-1.336l-2.265-7.688a25.865 25.865 0 0 1-.195-.656c-.058-.224-.112-.435-.165-.633-.052-.203-.096-.38-.132-.531l-.071-.351c-.01.078-.031.192-.062.343a8.728 8.728 0 0 1-.11.524 9.35 9.35 0 0 1-.156.633c-.057.224-.12.45-.187.679l-2.203 7.68h-1.336l-3.032-11.422h1.383l1.836 7.164c.063.24.12.477.172.711.057.229.107.453.148.672.047.219.089.432.125.641.037.208.071.411.102.609.026-.203.06-.414.102-.633.041-.224.086-.45.132-.68.052-.229.107-.46.164-.695.063-.234.128-.469.196-.703l2.054-7.086h1.368l2.14 7.141c.073.245.141.487.203.726.063.24.118.474.164.703.053.224.097.441.133.649.042.203.078.396.11.578.036-.255.08-.523.132-.805.053-.281.112-.575.18-.882.073-.308.151-.626.234-.954l1.836-7.156zm4.906 2.703c.729 0 1.354.162 1.875.485s.92.776 1.196 1.359c.276.578.414 1.255.414 2.031v.805h-5.914c.015 1.005.265 1.771.75 2.297.484.526 1.166.789 2.046.789.542 0 1.021-.05 1.438-.149s.849-.244 1.297-.437v1.141a6.314 6.314 0 0 1-1.289.421 7.36 7.36 0 0 1-1.5.133c-.823 0-1.542-.166-2.156-.5a3.487 3.487 0 0 1-1.422-1.484c-.339-.651-.508-1.448-.508-2.391 0-.922.154-1.719.461-2.39.312-.677.75-1.198 1.312-1.563.568-.364 1.235-.547 2-.547zm-.015 1.063c-.693 0-1.245.226-1.657.679-.411.454-.656 1.086-.734 1.899h4.531c-.005-.511-.086-.958-.242-1.344a1.889 1.889 0 0 0-.695-.906c-.313-.219-.714-.328-1.203-.328zm7-4.5v3.039c0 .349-.011.687-.032 1.015-.015.329-.028.584-.039.766h.071c.234-.385.573-.711 1.015-.976.443-.266 1.008-.399 1.696-.399 1.073 0 1.927.372 2.562 1.117.641.74.961 1.841.961 3.305 0 .963-.146 1.776-.437 2.437-.292.662-.704 1.162-1.235 1.5-.531.339-1.159.508-1.883.508-.677 0-1.234-.125-1.671-.375-.433-.255-.766-.565-1-.929h-.102L314.07 392h-.937v-12.156zm2.5 4.531c-.62 0-1.112.122-1.477.367-.364.24-.627.604-.789 1.094-.156.484-.234 1.099-.234 1.844v.07c0 1.078.179 1.904.539 2.477.359.567 1.013.851 1.961.851.797 0 1.393-.292 1.789-.875.401-.583.601-1.417.601-2.5 0-1.104-.198-1.935-.593-2.492-.391-.557-.99-.836-1.797-.836zm19.529-3.175l-.8-.768c-.224.064-.8.112-1.104.112h-9.2a13.34 13.34 0 0 1-1.808-.144v1.44c.624-.048 1.216-.08 1.808-.08h9.12c-.512.992-2.016 2.72-3.505 3.568l1.073.848c1.824-1.264 3.344-3.328 3.984-4.416a5.18 5.18 0 0 1 .432-.56zm-6.4 2.096h-1.44c.064.432.064.784.064 1.168 0 2.672-.352 4.944-2.816 6.464a6.37 6.37 0 0 1-1.44.72l1.168.96c4.08-2.048 4.464-4.976 4.464-9.312zm20.384-2.784c0-.576.464-1.056 1.056-1.056.576 0 1.056.48 1.056 1.056 0 .592-.48 1.056-1.056 1.056a1.045 1.045 0 0 1-1.056-1.056zm-.736 0c0 .992.8 1.792 1.792 1.792s1.792-.8 1.792-1.792-.8-1.792-1.792-1.792-1.792.8-1.792 1.792zm1.392 1.072l-.976-.624a3.4 3.4 0 0 1-.864.096h-8.016a15.69 15.69 0 0 1-1.6-.112v1.424c.4-.032.944-.064 1.584-.064h8.192c-.224 1.536-.96 3.776-2.096 5.216-1.344 1.712-3.136 3.072-6.24 3.856l1.088 1.2c2.928-.928 4.832-2.4 6.288-4.288 1.28-1.632 2.048-4.224 2.4-5.904.064-.304.128-.576.24-.8zm14.864-1.712h-1.504c.048.384.096.848.096 1.392v2.528c0 3.008-.208 4.32-1.344 5.632-.992 1.136-2.352 1.76-3.824 2.144l1.056 1.104c1.168-.4 2.768-1.104 3.792-2.352 1.168-1.36 1.68-2.624 1.68-6.48v-2.576c0-.544.016-1.008.048-1.392zm-7.424.128h-1.456c.048.304.064.864.064 1.136v5.344c0 .464-.032.976-.064 1.232h1.456a13.636 13.636 0 0 1-.048-1.232v-5.344c0-.368.016-.832.048-1.136zm17.616-.368l-1.552-.288a5.689 5.689 0 0 1-.24 1.264c-.176.624-.464 1.44-.896 2.24-.56.976-1.696 2.624-2.849 3.44l1.265.768c.992-.848 2.176-2.464 2.8-3.712a19.56 19.56 0 0 0 1.056-2.576c.128-.336.272-.768.416-1.136zm-2.016 2.752l-.16 1.248h8.72c.368 0 .992 0 1.488.032v-1.376c-.464.08-1.104.096-1.488.096h-8.56zm5.872.672h-1.344c-.096 4.432-1.904 6.672-3.552 7.904a4.915 4.915 0 0 1-1.296.752l1.36.912c2.864-1.808 4.688-4.64 4.832-9.568zm7.168 2.016v1.568c.512-.032 1.36-.064 2.24-.064h8.784c.704 0 1.376.048 1.712.064v-1.568c-.368.032-.928.096-1.728.096h-8.768c-.912 0-1.745-.048-2.24-.096zm18.871-5.36l-.704 1.088c.928.528 2.672 1.68 3.44 2.272l.752-1.088c-.704-.512-2.544-1.744-3.488-2.272zm-2.4 11.44l.752 1.296c1.472-.304 3.68-1.04 5.296-1.984 2.56-1.504 4.768-3.568 6.16-5.712l-.784-1.328c-1.28 2.256-3.392 4.352-6.048 5.872-1.632.912-3.616 1.552-5.376 1.856zm0-7.84l-.72 1.088c.976.512 2.704 1.616 3.488 2.192l.736-1.12c-.688-.496-2.56-1.648-3.504-2.16zm17.152-.08v1.232c.304 0 1.216-.032 1.648-.032h5.92V392c0 .336 0 .72-.016.912h1.264c0-.24-.016-.608-.016-.864v-7.968c0-.304 0-.64.016-.816-.224 0-.624.016-.992.016h-6.176c-.432 0-1.344-.016-1.648-.048zm.352 3.792v1.248c.32-.032.896-.032 1.44-.032h6.4v-1.152h-6.4c-.544 0-1.12-.032-1.44-.064zm-.528 3.984v1.28c.256 0 .816-.032 1.312-.032h7.072v-1.184h-7.072c-.56 0-1.056-.032-1.312-.064zm16.256-10.72l-.928.976c1.2.784 3.184 2.512 4 3.344l.992-1.024c-.88-.88-2.944-2.544-4.064-3.296zm-1.376 10.72l.832 1.312c2.672-.496 4.688-1.488 6.304-2.496 2.416-1.52 4.272-3.696 5.36-5.68l-.768-1.376c-.928 1.984-2.864 4.352-5.344 5.904-1.52.944-3.6 1.92-6.384 2.336zm16.064-9.696v1.392c.4-.032 1.024-.064 1.344-.064h8.784c.464 0 .976.032 1.376.064v-1.392c-.384.048-.88.08-1.376.08h-8.784c-.336 0-.928-.032-1.344-.08zm4.944 9.392h1.36v-8.592h-1.36zm-5.92-.784v1.44c.48-.032.976-.048 1.408-.048h10.576c.304 0 .896 0 1.312.048v-1.44c-.4.032-.832.096-1.312.096h-10.576c-.448 0-.944-.032-1.408-.096zm18.288-9.632l-.928.976c1.2.784 3.184 2.512 4 3.344l.992-1.024c-.88-.88-2.944-2.544-4.064-3.296zm-1.376 10.72l.832 1.312c2.672-.496 4.688-1.488 6.304-2.496 2.416-1.52 4.272-3.696 5.36-5.68l-.768-1.376c-.928 1.984-2.864 4.352-5.344 5.904-1.52.944-3.6 1.92-6.384 2.336zm25.2-10.944l-.896.384c.528.72 1.072 1.68 1.472 2.528l.912-.416c-.368-.768-1.088-1.904-1.488-2.496zm2.08-.768l-.88.4a17.144 17.144 0 0 1 1.504 2.464l.912-.416c-.384-.736-1.104-1.888-1.536-2.448zm-8.928.528l-.72 1.088c.944.528 2.688 1.696 3.44 2.272l.768-1.088c-.704-.512-2.544-1.744-3.488-2.272zm-2.4 11.44l.752 1.312c1.472-.304 3.68-1.056 5.296-2 2.56-1.488 4.768-3.568 6.16-5.712l-.784-1.312c-1.296 2.256-3.392 4.336-6.048 5.856-1.632.928-3.616 1.552-5.376 1.856zm0-7.84l-.72 1.104c.976.496 2.704 1.616 3.488 2.176l.736-1.12c-.688-.496-2.56-1.648-3.504-2.16zm16.64-1.84v1.44c.48-.016 1.024-.032 1.568-.032h6.864c.528 0 1.136.016 1.568.032v-1.44c-.432.048-.992.08-1.568.08h-6.864c-.528 0-1.056-.032-1.568-.08zm-1.376 7.936v1.536c.528-.048 1.088-.08 1.68-.08h9.584c.416 0 .976.032 1.456.08v-1.536c-.464.048-.992.08-1.456.08h-9.584c-.592 0-1.136-.048-1.68-.08zm29.424-8.32l-.8-.768c-.224.064-.8.112-1.104.112h-9.2a13.34 13.34 0 0 1-1.808-.144v1.44c.624-.048 1.216-.08 1.808-.08h9.12c-.512.992-2.016 2.72-3.504 3.568l1.072.848c1.824-1.264 3.344-3.328 3.984-4.416a5.18 5.18 0 0 1 .432-.56zm-6.4 2.096h-1.44c.064.432.064.784.064 1.168 0 2.672-.352 4.944-2.816 6.464a6.37 6.37 0 0 1-1.44.72l1.168.96c4.08-2.048 4.464-4.976 4.464-9.312zM251.98 366c-11.04 0-19.98 8.96-19.98 20s8.94 20 19.98 20c11.06 0 20.02-8.96 20.02-20s-8.96-20-20.02-20zm13.86 12h-5.9c-.64-2.5-1.56-4.9-2.76-7.12a16.06 16.06 0 0 1 8.66 7.12zM252 370.08c1.66 2.4 2.96 5.06 3.82 7.92h-7.64c.86-2.86 2.16-5.52 3.82-7.92zM236.52 390c-.32-1.28-.52-2.62-.52-4s.2-2.72.52-4h6.76c-.16 1.32-.28 2.64-.28 4s.12 2.68.28 4zm1.64 4h5.9c.64 2.5 1.56 4.9 2.76 7.12-3.68-1.26-6.74-3.8-8.66-7.12zm5.9-16h-5.9c1.92-3.32 4.98-5.86 8.66-7.12-1.2 2.22-2.12 4.62-2.76 7.12zm7.94 23.92c-1.66-2.4-2.96-5.06-3.82-7.92h7.64c-.86 2.86-2.16 5.52-3.82 7.92zm4.68-11.92h-9.36c-.18-1.32-.32-2.64-.32-4s.14-2.7.32-4h9.36c.18 1.3.32 2.64.32 4s-.14 2.68-.32 4zm.5 11.12c1.2-2.22 2.12-4.62 2.76-7.12h5.9a16.06 16.06 0 0 1-8.66 7.12zm3.54-11.12c.16-1.32.28-2.64.28-4s-.12-2.68-.28-4h6.76c.32 1.28.52 2.62.52 4s-.2 2.72-.52 4z" fill="#7d6402"/><path d="M301.776 173.376l-.976-.624c-.304.064-.624.08-.864.08h-8.016c-.528 0-1.168-.048-1.6-.112v1.424c.4-.016.944-.048 1.584-.048h8.192c-.224 1.536-.96 3.76-2.096 5.216-1.344 1.712-3.136 3.072-6.24 3.84l1.088 1.2c2.928-.912 4.832-2.4 6.288-4.272 1.28-1.648 2.048-4.224 2.4-5.904.064-.32.128-.576.24-.8zm4.56-.336c.016.4.016.88.016 1.248v7.888c0 .56-.032 1.728-.032 1.936h1.36c0-.208-.016-1.232-.016-1.76v-8.016h8.736v8.016c0 .672-.016 1.584-.032 1.76h1.392a57.013 57.013 0 0 1-.032-1.936v-7.888c0-.4 0-.848.032-1.232-.496.016-1.072.016-1.408.016h-8.592c-.384 0-.8 0-1.424-.032zm10.592 8.912h-9.904v1.248h9.904zm6.704-9.664l-.928.976c1.2.784 3.184 2.512 4 3.344l.992-1.024c-.88-.88-2.944-2.544-4.064-3.296zm-1.376 10.72l.832 1.312c2.672-.496 4.688-1.488 6.304-2.496 2.416-1.52 4.272-3.696 5.36-5.68l-.768-1.376c-.928 1.984-2.864 4.352-5.344 5.904-1.52.944-3.6 1.92-6.384 2.336zm19.12-.416c0 .592-.016 1.392-.096 1.904h1.552a19.206 19.206 0 0 1-.096-1.904c0-.752-.016-6.816-.016-9.296 0-.496.048-1.184.112-1.68h-1.568c.08.512.112 1.216.112 1.68zm1.056-6.768v1.408c1.744.544 4.736 1.68 6.56 2.656l.56-1.36c-1.776-.864-5.008-2.096-7.12-2.704zm11.888-2.512v1.392c.4-.032 1.024-.064 1.344-.064h8.784c.464 0 .976.032 1.376.064v-1.392c-.384.048-.88.08-1.376.08h-8.784c-.336 0-.928-.032-1.344-.08zm4.944 9.392h1.36v-8.592h-1.36zm-5.92-.784v1.44c.48-.032.976-.048 1.408-.048h10.576c.304 0 .896 0 1.312.048v-1.44c-.4.032-.832.096-1.312.096h-10.576c-.448 0-.944-.032-1.408-.096zm18.288-9.632l-.928.976c1.2.784 3.184 2.512 4 3.344l.992-1.024c-.88-.88-2.944-2.544-4.064-3.296zm-1.376 10.72l.832 1.312c2.672-.496 4.688-1.488 6.304-2.496 2.416-1.52 4.272-3.696 5.36-5.68l-.768-1.376c-.928 1.984-2.864 4.352-5.344 5.904-1.52.944-3.6 1.92-6.384 2.336zm24.24-10.512l-.896.384c.528.72 1.04 1.6 1.44 2.448l.912-.416c-.368-.768-1.056-1.84-1.456-2.416zm1.92-.8l-.864.416a15.501 15.501 0 0 1 1.472 2.4l.896-.448c-.368-.752-1.072-1.808-1.504-2.368zM388.88 182.8c0 .608-.032 1.392-.112 1.904h1.552a19.206 19.206 0 0 1-.096-1.904c0-.752-.016-6.8-.016-9.296 0-.48.064-1.184.112-1.664h-1.568c.08.496.128 1.2.128 1.664zm1.04-6.768v1.408c1.744.544 4.736 1.68 6.56 2.656l.56-1.344c-1.776-.88-4.992-2.112-7.12-2.72zm12.4-2.72v1.392c.4-.032 1.024-.064 1.344-.064h8.784c.464 0 .976.032 1.376.064v-1.392c-.384.048-.88.08-1.376.08h-8.784c-.336 0-.928-.032-1.344-.08zm4.944 9.392h1.36v-8.592h-1.36zm-5.92-.784v1.44c.48-.032.976-.048 1.408-.048h10.576c.304 0 .896 0 1.312.048v-1.44c-.4.032-.832.096-1.312.096h-10.576c-.448 0-.944-.032-1.408-.096zm18.288-9.632l-.928.976c1.2.784 3.184 2.512 4 3.344l.992-1.024c-.88-.88-2.944-2.544-4.064-3.296zm-1.376 10.72l.832 1.312c2.672-.496 4.688-1.488 6.304-2.496 2.416-1.52 4.272-3.696 5.36-5.68l-.768-1.376c-.928 1.984-2.864 4.352-5.344 5.904-1.52.944-3.6 1.92-6.384 2.336zm25.2-10.944l-.896.384c.528.72 1.072 1.68 1.472 2.528l.912-.416c-.368-.768-1.088-1.904-1.488-2.496zm2.08-.768l-.88.4a17.144 17.144 0 0 1 1.504 2.464l.912-.416c-.384-.736-1.104-1.888-1.536-2.448zm-8.928.528l-.72 1.088c.944.528 2.688 1.696 3.44 2.272l.768-1.088c-.704-.512-2.544-1.744-3.488-2.272zm-2.4 11.44l.752 1.312c1.472-.304 3.68-1.056 5.296-2 2.56-1.488 4.768-3.568 6.16-5.712l-.784-1.312c-1.296 2.256-3.392 4.336-6.048 5.856-1.632.928-3.616 1.552-5.376 1.856zm0-7.84l-.72 1.104c.976.496 2.704 1.616 3.488 2.176l.736-1.12c-.688-.496-2.56-1.648-3.504-2.16zm16.64-1.84v1.44c.48-.016 1.024-.032 1.568-.032h6.864c.528 0 1.136.016 1.568.032v-1.44c-.432.048-.992.08-1.568.08h-6.864c-.528 0-1.056-.032-1.568-.08zm-1.376 7.936v1.536c.528-.048 1.088-.08 1.68-.08h9.584c.416 0 .976.032 1.456.08v-1.536c-.464.048-.992.08-1.456.08h-9.584c-.592 0-1.136-.048-1.68-.08zm29.424-8.32l-.8-.768c-.224.064-.8.112-1.104.112h-9.2a13.34 13.34 0 0 1-1.808-.144v1.44c.624-.048 1.216-.08 1.808-.08h9.12c-.512.992-2.016 2.72-3.504 3.568l1.072.848c1.824-1.264 3.344-3.328 3.984-4.416a5.18 5.18 0 0 1 .432-.56zm-6.4 2.096h-1.44c.064.432.064.784.064 1.168 0 2.672-.352 4.944-2.816 6.464a6.37 6.37 0 0 1-1.44.72l1.168.96c4.08-2.048 4.464-4.976 4.464-9.312zM246.8 187.2l-9.2-9.2 9.2-9.2-2.8-2.8-12 12 12 12zm10.4 0l9.2-9.2-9.2-9.2 2.8-2.8 12 12-12 12z" fill="#0a62ad"/><path d="M292.88 445.952c0 1.568.56 2.352 3.536 2.352 2 0 3.6-.128 5.024-.336l.048-1.376c-1.584.32-3.136.48-4.992.48-1.904 0-2.32-.352-2.32-1.456v-8.496c0-.464.048-1.008.112-1.472h-1.504c.08.464.096.992.096 1.472zm9.296-7.152l-.944-.736c-.192.112-.512.208-.848.288-1.216.288-9.392 1.936-11.44 2.176l.256 1.344c1.92-.416 10.544-2.144 11.04-2.24-.48.944-1.648 2.704-2.848 3.808l1.104.656c1.296-1.312 2.544-3.328 3.28-4.656.112-.192.272-.464.4-.64zm8.08-2.112c.192.832 1.904 9.536 2.064 10.544.112.464.16.96.24 1.504l1.472-.272c-.16-.464-.288-1.008-.4-1.456-.224-1.056-1.984-9.84-2.08-10.544a18.41 18.41 0 0 1-.16-1.104l-1.424.24c.112.336.208.688.288 1.088zm-4.512 2.32l.288 1.424a23.15 23.15 0 0 1 1.28-.272c1.408-.24 6.864-1.104 8.512-1.36.432-.064.912-.144 1.152-.16l-.256-1.344c-.272.08-.688.176-1.152.256-1.52.304-7.04 1.184-8.48 1.344-.512.048-.944.08-1.344.112zm-.048 4.608l.288 1.408c.352-.096.8-.192 1.424-.304a609.561 609.561 0 0 1 9.52-1.552c.592-.096 1.104-.192 1.44-.224l-.272-1.344c-.336.096-.8.208-1.408.32-1.92.352-7.872 1.328-9.584 1.552a15.01 15.01 0 0 1-1.408.144zm26.08-3.216l-.976-.48c-.128.08-.528.112-.784.112h-4.864c-.4 0-.896-.032-1.28-.08v1.344c.4-.032.832-.048 1.296-.048h5.072c-.048 1.024-.64 4.944-.816 5.808h1.344c.192-1.12.768-4.96.912-6.16 0-.144.048-.352.096-.496zm-9.408 6.144v1.328c.48-.016.848-.032 1.328-.032h8.768c.352 0 .928 0 1.232.016v-1.296a16.3 16.3 0 0 1-1.264.064h-8.736c-.48 0-.944-.032-1.328-.08zm26.032-10.672h-1.504c.048.384.096.848.096 1.392v2.528c0 3.008-.208 4.32-1.344 5.632-.992 1.136-2.352 1.76-3.824 2.144l1.056 1.104c1.168-.4 2.768-1.104 3.792-2.352 1.168-1.36 1.68-2.624 1.68-6.48v-2.576c0-.544.016-1.008.048-1.392zm-7.424.128h-1.456c.048.304.064.864.064 1.136v5.344c0 .464-.032.976-.064 1.232h1.456a13.636 13.636 0 0 1-.048-1.232v-5.344c0-.368.016-.832.048-1.136zm14.448.176v1.328a19.59 19.59 0 0 1 1.472-.064h6.464c.448 0 1.008.032 1.488.064v-1.328c-.464.048-1.04.08-1.488.08h-6.48c-.528 0-.992-.032-1.456-.08zm-1.904 4.016v1.328a19.22 19.22 0 0 1 1.392-.048h10.464c.4 0 .896.016 1.264.032v-1.312c-.4.048-.928.064-1.264.064h-10.464c-.496 0-.96-.016-1.392-.064zm7.536.64l-1.344.016c-.016 1.76-.144 3.328-.944 4.592-.624 1.024-1.776 1.936-3.008 2.464l1.184.864c1.344-.704 2.56-1.84 3.136-2.912.72-1.344.976-3.008.976-5.024zm7.927 3.056l.624 1.184c2.128-.656 4.352-1.712 5.696-2.512 1.664-1.008 3.328-2.4 4.256-3.392l-.992-.96c-.832 1.008-2.304 2.336-3.808 3.248-1.312.8-3.664 1.92-5.776 2.432zm5.632-1.696v5.664c0 .48-.048 1.152-.08 1.392h1.488c-.064-.24-.08-.912-.08-1.392v-6zm10.752-4.88v1.392c.4-.032 1.024-.064 1.344-.064h8.784c.464 0 .976.032 1.376.064v-1.392c-.384.048-.88.08-1.376.08h-8.784c-.336 0-.928-.032-1.344-.08zm4.944 9.392h1.36v-8.592h-1.36zm-5.92-.784v1.44c.48-.032.976-.048 1.408-.048h10.576c.304 0 .896 0 1.312.048v-1.44c-.4.032-.832.096-1.312.096h-10.576c-.448 0-.944-.032-1.408-.096zm18.288-9.632l-.928.976c1.2.784 3.184 2.512 4 3.344l.992-1.024c-.88-.88-2.944-2.544-4.064-3.296zm-1.376 10.72l.832 1.312c2.672-.496 4.688-1.488 6.304-2.496 2.416-1.52 4.272-3.696 5.36-5.68l-.768-1.376c-.928 1.984-2.864 4.352-5.344 5.904-1.52.944-3.6 1.92-6.384 2.336zm25.2-10.944l-.896.384c.528.72 1.072 1.68 1.472 2.528l.912-.416c-.368-.768-1.088-1.904-1.488-2.496zm2.08-.768l-.88.4a17.144 17.144 0 0 1 1.504 2.464l.912-.416c-.384-.736-1.104-1.888-1.536-2.448zm-8.928.528l-.72 1.088c.944.528 2.688 1.696 3.44 2.272l.768-1.088c-.704-.512-2.544-1.744-3.488-2.272zm-2.4 11.44l.752 1.312c1.472-.304 3.68-1.056 5.296-2 2.56-1.488 4.768-3.568 6.16-5.712l-.784-1.312c-1.296 2.256-3.392 4.336-6.048 5.856-1.632.928-3.616 1.552-5.376 1.856zm0-7.84l-.72 1.104c.976.496 2.704 1.616 3.488 2.176l.736-1.12c-.688-.496-2.56-1.648-3.504-2.16zm16.64-1.84v1.44c.48-.016 1.024-.032 1.568-.032h6.864c.528 0 1.136.016 1.568.032v-1.44c-.432.048-.992.08-1.568.08h-6.864c-.528 0-1.056-.032-1.568-.08zm-1.376 7.936v1.536c.528-.048 1.088-.08 1.68-.08h9.584c.416 0 .976.032 1.456.08v-1.536c-.464.048-.992.08-1.456.08h-9.584c-.592 0-1.136-.048-1.68-.08zm29.424-8.32l-.8-.768c-.224.064-.8.112-1.104.112h-9.2a13.34 13.34 0 0 1-1.808-.144v1.44c.624-.048 1.216-.08 1.808-.08h9.12c-.512.992-2.016 2.72-3.504 3.568l1.072.848c1.824-1.264 3.344-3.328 3.984-4.416a5.18 5.18 0 0 1 .432-.56zm-6.4 2.096h-1.44c.064.432.064.784.064 1.168 0 2.672-.352 4.944-2.816 6.464a6.37 6.37 0 0 1-1.44.72l1.168.96c4.08-2.048 4.464-4.976 4.464-9.312zM252 420l-18 8v12c0 11.1 7.68 21.48 18 24 10.32-2.52 18-12.9 18-24v-12zm0 21.98h14c-1.06 8.24-6.56 15.58-14 17.88V442h-14v-11.4l14-6.22z" fill="#7d6402"/><path d="M290.896 228.656v1.264c.416-.016.896-.032 1.44-.032h7.6c.56 0 .928.016 1.312.032v-1.264c-.352.032-.784.048-1.312.048h-7.6c-.544 0-1.024-.016-1.44-.048zm4.896 5.136v-4.272h-1.344v8.576c0 1.296.768 2.144 3.184 2.144 1.52 0 3.072-.064 4.304-.144l.08-1.344c-1.376.16-2.688.224-4.192.224-1.488 0-2.032-.496-2.032-1.296v-3.888zm-5.952-.608v1.344a23.986 23.986 0 0 1 1.504-.048h9.856c.352 0 .944 0 1.312.032V233.2c-.368.032-1.008.064-1.344.064h-9.824c-.432 0-1.072-.032-1.504-.08zm26.4-5.648l-.848.368c.432.608.976 1.568 1.28 2.208l.88-.384a24.797 24.797 0 0 0-1.312-2.192zm1.76-.64l-.848.368c.448.592.976 1.504 1.328 2.192l.848-.384c-.288-.592-.912-1.584-1.328-2.176zm-10.528 8.304c-.544 1.328-1.456 3.008-2.464 4.352l1.36.576a24.291 24.291 0 0 0 2.368-4.4c.672-1.648 1.232-4.016 1.44-5.008.08-.336.192-.816.304-1.168l-1.424-.288c-.224 1.84-.88 4.272-1.584 5.936zm7.888-.608c.656 1.696 1.408 3.872 1.808 5.488l1.424-.448a73.126 73.126 0 0 0-1.92-5.488c-.688-1.68-1.712-3.888-2.336-5.056l-1.296.432c.688 1.2 1.68 3.424 2.32 5.072zm6.016-.368l.624 1.248c2.576-.8 5.12-1.968 6.88-3.056 1.872-1.168 3.552-2.512 4.928-3.936l-1.072-1.008c-1.104 1.344-2.704 2.72-4.384 3.776-1.776 1.104-4.208 2.24-6.976 2.976zm6.72-2.32v6.896c0 .592-.048 1.392-.096 1.696h1.584c-.08-.304-.112-1.104-.112-1.696v-7.312zm16.272 7.76l.848.704c.128-.08.288-.224.56-.352 1.856-.928 4.064-2.56 5.456-4.432l-.768-1.104c-1.216 1.808-3.184 3.264-4.672 3.936V229.2c0-.608.064-1.072.08-1.2H344.4c0 .128.08.576.08 1.184v9.584c0 .32-.048.656-.112.896zm-7.328-.064l1.216.8a8.897 8.897 0 0 0 2.848-4.384c.432-1.6.48-5.04.48-6.816 0-.464.064-.96.08-1.136h-1.472c.08.336.112.688.112 1.152 0 1.792 0 4.976-.48 6.448-.48 1.552-1.424 2.976-2.784 3.936zm17.28-10.288v1.392c.4-.032 1.024-.064 1.344-.064h8.784c.464 0 .976.032 1.376.064v-1.392c-.384.048-.88.08-1.376.08h-8.784c-.336 0-.928-.032-1.344-.08zm4.944 9.392h1.36v-8.592h-1.36zm-5.92-.784v1.44c.48-.032.976-.048 1.408-.048h10.576c.304 0 .896 0 1.312.048v-1.44c-.4.032-.832.096-1.312.096h-10.576c-.448 0-.944-.032-1.408-.096zm18.288-9.632l-.928.976c1.2.784 3.184 2.512 4 3.344l.992-1.024c-.88-.88-2.944-2.544-4.064-3.296zm-1.376 10.72l.832 1.312c2.672-.496 4.688-1.488 6.304-2.496 2.416-1.52 4.272-3.696 5.36-5.68l-.768-1.376c-.928 1.984-2.864 4.352-5.344 5.904-1.52.944-3.6 1.92-6.384 2.336zm25.2-10.944l-.896.384c.528.72 1.072 1.68 1.472 2.528l.912-.416c-.368-.768-1.088-1.904-1.488-2.496zm2.08-.768l-.88.4a17.144 17.144 0 0 1 1.504 2.464l.912-.416c-.384-.736-1.104-1.888-1.536-2.448zm-8.928.528l-.72 1.088c.944.528 2.688 1.696 3.44 2.272l.768-1.088c-.704-.512-2.544-1.744-3.488-2.272zm-2.4 11.44l.752 1.312c1.472-.304 3.68-1.056 5.296-2 2.56-1.488 4.768-3.568 6.16-5.712l-.784-1.312c-1.296 2.256-3.392 4.336-6.048 5.856-1.632.928-3.616 1.552-5.376 1.856zm0-7.84l-.72 1.104c.976.496 2.704 1.616 3.488 2.176l.736-1.12c-.688-.496-2.56-1.648-3.504-2.16zm16.64-1.84v1.44c.48-.016 1.024-.032 1.568-.032h6.864c.528 0 1.136.016 1.568.032v-1.44c-.432.048-.992.08-1.568.08h-6.864c-.528 0-1.056-.032-1.568-.08zm-1.376 7.936v1.536c.528-.048 1.088-.08 1.68-.08h9.584c.416 0 .976.032 1.456.08v-1.536c-.464.048-.992.08-1.456.08h-9.584c-.592 0-1.136-.048-1.68-.08zm29.424-8.32l-.8-.768c-.224.064-.8.112-1.104.112h-9.2a13.34 13.34 0 0 1-1.808-.144v1.44c.624-.048 1.216-.08 1.808-.08h9.12c-.512.992-2.016 2.72-3.504 3.568l1.072.848c1.824-1.264 3.344-3.328 3.984-4.416a5.18 5.18 0 0 1 .432-.56zm-6.4 2.096h-1.44c.064.432.064.784.064 1.168 0 2.672-.352 4.944-2.816 6.464a6.37 6.37 0 0 1-1.44.72l1.168.96c4.08-2.048 4.464-4.976 4.464-9.312zM259 212h-16c-2.76 0-5 2.24-5 5v34c0 2.76 2.24 5 5 5h16c2.76 0 5-2.24 5-5v-34c0-2.76-2.24-5-5-5zm-8 42c-1.66 0-3-1.34-3-3s1.34-3 3-3 3 1.34 3 3-1.34 3-3 3zm9-8h-18v-28h18zm36.008 46.961c0 .677-.169 1.255-.508 1.734-.333.474-.802.836-1.406 1.086s-1.315.375-2.133.375c-.432 0-.841-.021-1.227-.062-.385-.042-.739-.102-1.062-.18s-.607-.174-.852-.289v-1.273c.391.161.868.312 1.43.453a7.54 7.54 0 0 0 1.766.203c.573 0 1.057-.076 1.453-.227.396-.156.695-.377.898-.664.209-.291.313-.64.313-1.047 0-.39-.086-.716-.258-.976-.172-.266-.458-.505-.86-.719-.395-.219-.937-.451-1.624-.695a8.75 8.75 0 0 1-1.282-.563c-.37-.208-.679-.443-.929-.703s-.441-.562-.571-.906a3.442 3.442 0 0 1-.187-1.18c0-.609.153-1.13.461-1.562.312-.438.742-.771 1.289-1 .552-.235 1.185-.352 1.898-.352.61 0 1.172.057 1.688.172.521.115.997.268 1.429.461l-.414 1.141a8.921 8.921 0 0 0-1.312-.43c-.459-.115-.932-.172-1.422-.172s-.904.073-1.242.219c-.334.14-.589.341-.766.601a1.617 1.617 0 0 0-.266.93c0 .401.084.734.25 1 .172.266.443.503.813.711.375.203.87.417 1.484.641.672.244 1.243.505 1.711.781.469.271.826.604 1.071 1 .244.39.367.888.367 1.492zm5.422-8.383c.937 0 1.711.117 2.32.352.615.229 1.073.58 1.375 1.054s.453 1.078.453 1.813c0 .604-.109 1.109-.328 1.515a2.833 2.833 0 0 1-.859.977c-.355.25-.732.443-1.133.578l3.133 5.133h-1.547l-2.797-4.766h-2.375V296h-1.328v-11.422zm-.078 1.149h-1.68v4.382h1.812c.933 0 1.618-.19 2.055-.57.443-.38.664-.94.664-1.68 0-.776-.234-1.325-.703-1.648-.464-.323-1.18-.484-2.148-.484zM314.578 296h-6.359v-11.422h6.359v1.172h-5.031v3.695h4.742v1.157h-4.742v4.226h5.031zm12.089-6.08c0 3.136 1.264 5.664 3.184 7.616l.96-.496c-1.856-1.904-2.992-4.256-2.992-7.12 0-2.848 1.136-5.2 2.992-7.104l-.96-.496c-1.92 1.952-3.184 4.48-3.184 7.6zm12.888 3.041c0 .677-.17 1.255-.508 1.734-.333.474-.802.836-1.406 1.086-.605.25-1.315.375-2.133.375-.432 0-.841-.021-1.227-.062-.385-.042-.739-.102-1.062-.18s-.607-.174-.852-.289v-1.273c.391.161.867.312 1.43.453a7.537 7.537 0 0 0 1.765.203c.573 0 1.058-.076 1.454-.227.395-.156.695-.377.898-.664.208-.291.313-.64.313-1.047 0-.39-.086-.716-.258-.976-.172-.266-.459-.505-.86-.719-.395-.219-.937-.451-1.625-.695a8.783 8.783 0 0 1-1.281-.563c-.37-.208-.68-.443-.93-.703s-.44-.562-.57-.906a3.442 3.442 0 0 1-.187-1.18c0-.609.153-1.13.461-1.562.312-.438.742-.771 1.289-1 .552-.235 1.185-.352 1.898-.352.609 0 1.172.057 1.688.172.52.115.997.268 1.429.461l-.414 1.141a8.921 8.921 0 0 0-1.312-.43 5.829 5.829 0 0 0-1.422-.172c-.49 0-.904.073-1.242.219-.334.14-.589.341-.766.601a1.617 1.617 0 0 0-.266.93c0 .401.084.734.25 1 .172.266.443.503.813.711.375.203.87.417 1.484.641a10.37 10.37 0 0 1 1.711.781c.469.271.826.604 1.071 1 .244.39.367.888.367 1.492zm3.437-5.523V296h-1.297v-8.562zm-.633-3.204c.214 0 .396.071.547.211.156.136.235.349.235.641 0 .286-.079.5-.235.641a.776.776 0 0 1-.547.211.795.795 0 0 1-.562-.211c-.146-.141-.219-.355-.219-.641 0-.292.073-.505.219-.641a.795.795 0 0 1 .562-.211zm6.149 10.86c.213 0 .432-.018.656-.055a2.98 2.98 0 0 0 .547-.133v1.008a2.738 2.738 0 0 1-.633.172 4.48 4.48 0 0 1-.781.07 3.15 3.15 0 0 1-1.235-.234 1.914 1.914 0 0 1-.89-.813c-.219-.38-.328-.906-.328-1.578v-5.078h-1.219v-.633l1.227-.508.515-1.859h.781v1.985h2.508v1.015h-2.508v5.039c0 .537.123.938.368 1.203.25.266.58.399.992.399zm6.234-7.813c.729 0 1.354.162 1.875.485s.919.776 1.195 1.359c.277.578.415 1.255.415 2.031v.805h-5.915c.016 1.005.266 1.771.75 2.297.485.526 1.167.789 2.047.789.542 0 1.021-.05 1.438-.149s.849-.244 1.297-.437v1.141a6.334 6.334 0 0 1-1.289.421 7.36 7.36 0 0 1-1.5.133c-.823 0-1.542-.166-2.157-.5a3.49 3.49 0 0 1-1.421-1.484c-.339-.651-.508-1.448-.508-2.391 0-.922.153-1.719.461-2.39.312-.677.75-1.198 1.312-1.563.568-.364 1.235-.547 2-.547zm-.015 1.063c-.693 0-1.245.226-1.657.679-.411.454-.656 1.086-.734 1.899h4.531c-.005-.511-.086-.958-.242-1.344a1.889 1.889 0 0 0-.695-.906c-.313-.219-.714-.328-1.203-.328zm13.14-3.766c.938 0 1.711.117 2.321.352.614.229 1.072.58 1.374 1.054.303.474.454 1.078.454 1.813 0 .604-.11 1.109-.328 1.515-.219.402-.506.727-.86.977s-.732.443-1.133.578l3.133 5.133h-1.547l-2.797-4.766h-2.375V296h-1.328v-11.422zm-.078 1.149h-1.68v4.382h1.813c.932 0 1.617-.19 2.055-.57.442-.38.664-.94.664-1.68 0-.776-.235-1.325-.703-1.648-.464-.323-1.18-.484-2.149-.484zm9.969 1.554c.729 0 1.354.162 1.875.485s.919.776 1.195 1.359c.276.578.414 1.255.414 2.031v.805h-5.914c.016 1.005.266 1.771.75 2.297s1.167.789 2.047.789a6.24 6.24 0 0 0 1.437-.149 7.892 7.892 0 0 0 1.297-.437v1.141a6.314 6.314 0 0 1-1.289.421 7.36 7.36 0 0 1-1.5.133c-.823 0-1.541-.166-2.156-.5a3.498 3.498 0 0 1-1.422-1.484c-.338-.651-.508-1.448-.508-2.391 0-.922.154-1.719.461-2.39.313-.677.75-1.198 1.313-1.563.568-.364 1.234-.547 2-.547zm-.016 1.063c-.693 0-1.245.226-1.656.679-.412.454-.656 1.086-.734 1.899h4.531c-.005-.511-.086-.958-.242-1.344a1.884 1.884 0 0 0-.696-.906c-.312-.219-.713-.328-1.203-.328zM384.75 296h-1.305v-12.156h1.305zm4.039-8.562V296h-1.297v-8.562zm-.633-3.204c.214 0 .396.071.547.211.156.136.235.349.235.641 0 .286-.079.5-.235.641a.776.776 0 0 1-.547.211.795.795 0 0 1-.562-.211c-.146-.141-.219-.355-.219-.641 0-.292.073-.505.219-.641a.795.795 0 0 1 .562-.211zm6.586 3.063c1.021 0 1.779.229 2.274.687.494.459.742 1.19.742 2.196V296h-.946l-.25-1.266h-.062c-.24.313-.49.576-.75.789-.26.209-.562.368-.906.477-.339.104-.755.156-1.25.156-.521 0-.985-.091-1.391-.273a2.166 2.166 0 0 1-.953-.828c-.229-.37-.344-.839-.344-1.407 0-.854.339-1.51 1.016-1.968.677-.459 1.708-.709 3.094-.75l1.476-.063v-.523c0-.74-.159-1.258-.476-1.555-.318-.297-.766-.445-1.344-.445-.448 0-.875.065-1.281.195-.407.13-.792.284-1.157.461l-.398-.984a7.077 7.077 0 0 1 1.328-.508 5.787 5.787 0 0 1 1.578-.211zm1.735 4.484l-1.305.055c-1.068.042-1.82.216-2.258.523-.437.308-.656.743-.656 1.305 0 .49.148.852.445 1.086s.69.352 1.18.352c.76 0 1.383-.211 1.867-.633s.727-1.055.727-1.899zm5.25-7.937v3.039c0 .349-.011.687-.032 1.015-.015.329-.028.584-.039.766h.071a2.897 2.897 0 0 1 1.015-.976c.443-.266 1.008-.399 1.696-.399 1.072 0 1.927.372 2.562 1.117.641.74.961 1.841.961 3.305 0 .963-.146 1.776-.438 2.437-.291.662-.703 1.162-1.234 1.5-.531.339-1.159.508-1.883.508-.677 0-1.234-.125-1.672-.375a2.939 2.939 0 0 1-1-.929h-.101l-.266 1.148h-.937v-12.156zm2.5 4.531c-.62 0-1.112.122-1.477.367-.365.24-.628.604-.789 1.094-.156.484-.234 1.099-.234 1.844v.07c0 1.078.179 1.904.539 2.477.359.567 1.013.851 1.961.851.796 0 1.393-.292 1.789-.875.401-.583.601-1.417.601-2.5 0-1.104-.198-1.935-.594-2.492-.39-.557-.989-.836-1.796-.836zm7.296-.937V296h-1.296v-8.562zm-.632-3.204a.78.78 0 0 1 .547.211c.156.136.234.349.234.641 0 .286-.078.5-.234.641a.78.78 0 0 1-.547.211.798.798 0 0 1-.563-.211c-.146-.141-.219-.355-.219-.641 0-.292.073-.505.219-.641a.798.798 0 0 1 .563-.211zM415.578 296h-1.305v-12.156h1.305zm4.039-8.562V296h-1.297v-8.562zm-.633-3.204c.214 0 .396.071.547.211.157.136.235.349.235.641 0 .286-.078.5-.235.641a.776.776 0 0 1-.547.211.795.795 0 0 1-.562-.211c-.146-.141-.219-.355-.219-.641 0-.292.073-.505.219-.641a.795.795 0 0 1 .562-.211zm6.149 10.86c.213 0 .432-.018.656-.055a2.98 2.98 0 0 0 .547-.133v1.008a2.738 2.738 0 0 1-.633.172c-.265.047-.526.07-.781.07-.453 0-.865-.078-1.234-.234a1.912 1.912 0 0 1-.891-.813c-.219-.38-.328-.906-.328-1.578v-5.078h-1.219v-.633l1.227-.508.515-1.859h.781v1.985h2.508v1.015h-2.508v5.039c0 .537.123.938.368 1.203.25.266.58.399.992.399zm1.586-7.656h1.39l1.891 4.968c.109.292.211.573.305.844.093.266.177.521.25.766.073.244.13.481.172.711h.054c.073-.261.177-.602.313-1.024.135-.427.281-.862.437-1.305l1.789-4.96h1.399l-3.727 9.82c-.198.526-.43.984-.695 1.375-.261.39-.578.69-.953.898-.375.214-.828.321-1.36.321-.244 0-.461-.016-.648-.047a4.048 4.048 0 0 1-.484-.094v-1.039a4.515 4.515 0 0 0 .929.101 1.713 1.713 0 0 0 1.453-.718 3.62 3.62 0 0 0 .446-.836l.468-1.203zM446.797 296h-6.359v-11.422h6.359v1.172h-5.031v3.695h4.742v1.157h-4.742v4.226h5.031zm6.391-8.719c1.015 0 1.783.25 2.304.75.521.495.781 1.292.781 2.391V296h-1.281v-5.492c0-.714-.164-1.248-.492-1.602-.323-.354-.82-.531-1.492-.531-.948 0-1.615.268-2 .805-.386.536-.578 1.315-.578 2.336V296h-1.297v-8.562h1.047l.195 1.234h.07a2.55 2.55 0 0 1 .696-.758 3.03 3.03 0 0 1 .945-.469 3.674 3.674 0 0 1 1.102-.164zm8.148 12.563c-1.125 0-1.992-.211-2.602-.633-.609-.417-.914-1.003-.914-1.758a2 2 0 0 1 .508-1.375c.344-.38.818-.633 1.422-.758a1.553 1.553 0 0 1-.578-.468 1.169 1.169 0 0 1-.234-.719c0-.313.085-.586.257-.821.177-.239.446-.468.805-.687a2.344 2.344 0 0 1-1.094-.922c-.276-.437-.414-.945-.414-1.523 0-.615.128-1.138.383-1.571.255-.437.625-.77 1.109-1 .485-.229 1.071-.343 1.758-.343.151 0 .302.007.453.023.157.01.305.029.446.055.14.021.263.047.367.078h2.937v.836l-1.578.195a2.773 2.773 0 0 1 .547 1.688c0 .854-.289 1.533-.867 2.039-.578.5-1.373.75-2.383.75a4.42 4.42 0 0 1-.734-.063 1.89 1.89 0 0 0-.586.469.96.96 0 0 0-.196.594c0 .166.05.299.149.398a.963.963 0 0 0 .445.219c.193.042.425.062.696.062h1.507c.933 0 1.646.196 2.141.586.5.391.75.961.75 1.711 0 .948-.385 1.675-1.156 2.18s-1.886.758-3.344.758zm.039-1.016c.708 0 1.294-.073 1.758-.219.469-.14.818-.346 1.047-.617.234-.265.351-.583.351-.953 0-.344-.078-.604-.234-.781-.156-.172-.386-.287-.688-.344a5.606 5.606 0 0 0-1.109-.094h-1.484c-.386 0-.722.06-1.008.18-.287.12-.508.297-.664.531-.151.235-.227.526-.227.875 0 .464.195.815.586 1.055.391.245.948.367 1.672.367zm.336-6.844c.62 0 1.086-.156 1.398-.468.313-.313.469-.769.469-1.368 0-.64-.159-1.119-.476-1.437-.318-.323-.787-.484-1.407-.484-.593 0-1.052.166-1.375.5-.317.328-.476.809-.476 1.445 0 .583.161 1.031.484 1.344.323.312.784.468 1.383.468zm7.219-4.546V296h-1.297v-8.562zm-.633-3.204c.213 0 .396.071.547.211.156.136.234.349.234.641 0 .286-.078.5-.234.641a.778.778 0 0 1-.547.211.798.798 0 0 1-.563-.211c-.145-.141-.218-.355-.218-.641 0-.292.073-.505.218-.641a.798.798 0 0 1 .563-.211zm7.437 3.047c1.016 0 1.784.25 2.305.75.521.495.781 1.292.781 2.391V296h-1.281v-5.492c0-.714-.164-1.248-.492-1.602-.323-.354-.82-.531-1.492-.531-.948 0-1.615.268-2 .805-.386.536-.578 1.315-.578 2.336V296h-1.297v-8.562h1.047l.195 1.234h.07c.182-.302.414-.555.696-.758a3.03 3.03 0 0 1 .945-.469 3.672 3.672 0 0 1 1.101-.164zm9.055 0c.729 0 1.354.162 1.875.485s.919.776 1.195 1.359c.276.578.414 1.255.414 2.031v.805h-5.914c.016 1.005.266 1.771.75 2.297.485.526 1.167.789 2.047.789.542 0 1.021-.05 1.438-.149a7.924 7.924 0 0 0 1.297-.437v1.141a6.334 6.334 0 0 1-1.289.421 7.36 7.36 0 0 1-1.5.133c-.823 0-1.542-.166-2.157-.5a3.498 3.498 0 0 1-1.422-1.484c-.338-.651-.507-1.448-.507-2.391 0-.922.153-1.719.461-2.39.312-.677.75-1.198 1.312-1.563.568-.364 1.234-.547 2-.547zm-.016 1.063c-.692 0-1.244.226-1.656.679-.411.454-.656 1.086-.734 1.899h4.531c-.005-.511-.086-.958-.242-1.344a1.889 1.889 0 0 0-.695-.906c-.313-.219-.714-.328-1.204-.328zm9-1.063c.73 0 1.355.162 1.875.485.521.323.92.776 1.196 1.359.276.578.414 1.255.414 2.031v.805h-5.914c.015 1.005.265 1.771.75 2.297.484.526 1.166.789 2.047.789.541 0 1.02-.05 1.437-.149s.849-.244 1.297-.437v1.141a6.314 6.314 0 0 1-1.289.421 7.36 7.36 0 0 1-1.5.133c-.823 0-1.542-.166-2.156-.5a3.487 3.487 0 0 1-1.422-1.484c-.339-.651-.508-1.448-.508-2.391 0-.922.154-1.719.461-2.39.312-.677.75-1.198 1.312-1.563.568-.364 1.235-.547 2-.547zm-.015 1.063c-.693 0-1.245.226-1.656.679-.412.454-.657 1.086-.735 1.899h4.531c-.005-.511-.086-.958-.242-1.344a1.889 1.889 0 0 0-.695-.906c-.313-.219-.714-.328-1.203-.328zm9.594-1.063c.171 0 .351.011.539.031.187.016.354.04.5.071l-.164 1.203a4.012 4.012 0 0 0-.954-.117c-.343 0-.669.07-.976.211a2.313 2.313 0 0 0-.797.593 2.778 2.778 0 0 0-.539.93c-.13.359-.195.761-.195 1.203V296h-1.305v-8.562h1.078l.141 1.578h.054a4.21 4.21 0 0 1 .641-.868c.25-.265.539-.476.867-.632a2.573 2.573 0 0 1 1.11-.235zm6.153 2.639c0-3.12-1.264-5.648-3.184-7.6l-.96.496c1.856 1.904 2.992 4.256 2.992 7.104 0 2.864-1.136 5.216-2.992 7.12l.96.496c1.92-1.952 3.184-4.48 3.184-7.616zM267.76 302.94c.88-1.4 1.4-3.02 1.4-4.78 0-4.98-4.02-9-9-9s-9 4.02-9 9 4.02 9 8.98 9c1.76 0 3.4-.52 4.78-1.4l6.24 6.24 2.84-2.84zm-7.6.22c-2.76 0-5-2.24-5-5s2.24-5 5-5 5 2.24 5 5-2.24 5-5 5zm-.72-17c-1.48.04-2.9.36-4.2.9l-1.1-1.66-7.6 12.36-6.02-7.04-7.26 11.62L230 300l10-16 6 7 8-13zm5.18 1c-1.28-.56-2.66-.9-4.1-.98L270.76 270l3.24 2.36z" fill="#0a62ad"/><path d="M296.008 500.961c0 .677-.169 1.255-.508 1.734-.333.474-.802.836-1.406 1.086s-1.315.375-2.133.375c-.432 0-.841-.021-1.227-.062-.385-.042-.739-.102-1.062-.18s-.607-.174-.852-.289v-1.273c.391.161.868.312 1.43.453a7.54 7.54 0 0 0 1.766.203c.573 0 1.057-.076 1.453-.227.396-.156.695-.377.898-.664.209-.291.313-.64.313-1.047 0-.39-.086-.716-.258-.976-.172-.266-.458-.505-.86-.719-.395-.219-.937-.451-1.624-.695a8.75 8.75 0 0 1-1.282-.563c-.37-.208-.679-.443-.929-.703s-.441-.562-.571-.906a3.442 3.442 0 0 1-.187-1.18c0-.609.153-1.13.461-1.562.312-.438.742-.771 1.289-1 .552-.235 1.185-.352 1.898-.352.61 0 1.172.057 1.688.172.521.115.997.268 1.429.461l-.414 1.141a8.921 8.921 0 0 0-1.312-.43c-.459-.115-.932-.172-1.422-.172s-.904.073-1.242.219c-.334.14-.589.341-.766.601a1.617 1.617 0 0 0-.266.93c0 .401.084.734.25 1 .172.266.443.503.813.711.375.203.87.417 1.484.641.672.244 1.243.505 1.711.781.469.271.826.604 1.071 1 .244.39.367.888.367 1.492zm5.422-8.383c.937 0 1.711.117 2.32.352.615.229 1.073.58 1.375 1.054s.453 1.078.453 1.813c0 .604-.109 1.109-.328 1.515a2.833 2.833 0 0 1-.859.977c-.355.25-.732.443-1.133.578l3.133 5.133h-1.547l-2.797-4.766h-2.375V504h-1.328v-11.422zm-.078 1.149h-1.68v4.382h1.812c.933 0 1.618-.19 2.055-.57.443-.38.664-.94.664-1.68 0-.776-.234-1.325-.703-1.648-.464-.323-1.18-.484-2.148-.484zM314.578 504h-6.359v-11.422h6.359v1.172h-5.031v3.695h4.742v1.157h-4.742v4.226h5.031zm12.089-6.08c0 3.136 1.264 5.664 3.184 7.616l.96-.496c-1.856-1.904-2.992-4.256-2.992-7.12 0-2.848 1.136-5.2 2.992-7.104l-.96-.496c-1.92 1.952-3.184 4.48-3.184 7.6zm12.888 3.041c0 .677-.17 1.255-.508 1.734-.333.474-.802.836-1.406 1.086-.605.25-1.315.375-2.133.375-.432 0-.841-.021-1.227-.062-.385-.042-.739-.102-1.062-.18s-.607-.174-.852-.289v-1.273c.391.161.867.312 1.43.453a7.537 7.537 0 0 0 1.765.203c.573 0 1.058-.076 1.454-.227.395-.156.695-.377.898-.664.208-.291.313-.64.313-1.047 0-.39-.086-.716-.258-.976-.172-.266-.459-.505-.86-.719-.395-.219-.937-.451-1.625-.695a8.783 8.783 0 0 1-1.281-.563c-.37-.208-.68-.443-.93-.703s-.44-.562-.57-.906a3.442 3.442 0 0 1-.187-1.18c0-.609.153-1.13.461-1.562.312-.438.742-.771 1.289-1 .552-.235 1.185-.352 1.898-.352.609 0 1.172.057 1.688.172.52.115.997.268 1.429.461l-.414 1.141a8.921 8.921 0 0 0-1.312-.43 5.829 5.829 0 0 0-1.422-.172c-.49 0-.904.073-1.242.219-.334.14-.589.341-.766.601a1.617 1.617 0 0 0-.266.93c0 .401.084.734.25 1 .172.266.443.503.813.711.375.203.87.417 1.484.641a10.37 10.37 0 0 1 1.711.781c.469.271.826.604 1.071 1 .244.39.367.888.367 1.492zm3.437-5.523V504h-1.297v-8.562zm-.633-3.204c.214 0 .396.071.547.211.156.136.235.349.235.641 0 .286-.079.5-.235.641a.776.776 0 0 1-.547.211.795.795 0 0 1-.562-.211c-.146-.141-.219-.355-.219-.641 0-.292.073-.505.219-.641a.795.795 0 0 1 .562-.211zm6.149 10.86c.213 0 .432-.018.656-.055a2.98 2.98 0 0 0 .547-.133v1.008a2.738 2.738 0 0 1-.633.172 4.48 4.48 0 0 1-.781.07 3.15 3.15 0 0 1-1.235-.234 1.914 1.914 0 0 1-.89-.813c-.219-.38-.328-.906-.328-1.578v-5.078h-1.219v-.633l1.227-.508.515-1.859h.781v1.985h2.508v1.015h-2.508v5.039c0 .537.123.938.368 1.203.25.266.58.399.992.399zm6.234-7.813c.729 0 1.354.162 1.875.485s.919.776 1.195 1.359c.277.578.415 1.255.415 2.031v.805h-5.915c.016 1.005.266 1.771.75 2.297.485.526 1.167.789 2.047.789.542 0 1.021-.05 1.438-.149s.849-.244 1.297-.437v1.141a6.334 6.334 0 0 1-1.289.421 7.36 7.36 0 0 1-1.5.133c-.823 0-1.542-.166-2.157-.5a3.49 3.49 0 0 1-1.421-1.484c-.339-.651-.508-1.448-.508-2.391 0-.922.153-1.719.461-2.39.312-.677.75-1.198 1.312-1.563.568-.364 1.235-.547 2-.547zm-.015 1.063c-.693 0-1.245.226-1.657.679-.411.454-.656 1.086-.734 1.899h4.531c-.005-.511-.086-.958-.242-1.344a1.889 1.889 0 0 0-.695-.906c-.313-.219-.714-.328-1.203-.328zm13.14-3.766c.938 0 1.711.117 2.321.352.614.229 1.072.58 1.374 1.054.303.474.454 1.078.454 1.813 0 .604-.11 1.109-.328 1.515-.219.402-.506.727-.86.977s-.732.443-1.133.578l3.133 5.133h-1.547l-2.797-4.766h-2.375V504h-1.328v-11.422zm-.078 1.149h-1.68v4.382h1.813c.932 0 1.617-.19 2.055-.57.442-.38.664-.94.664-1.68 0-.776-.235-1.325-.703-1.648-.464-.323-1.18-.484-2.149-.484zm9.969 1.554c.729 0 1.354.162 1.875.485s.919.776 1.195 1.359c.276.578.414 1.255.414 2.031v.805h-5.914c.016 1.005.266 1.771.75 2.297s1.167.789 2.047.789a6.24 6.24 0 0 0 1.437-.149 7.892 7.892 0 0 0 1.297-.437v1.141a6.314 6.314 0 0 1-1.289.421 7.36 7.36 0 0 1-1.5.133c-.823 0-1.541-.166-2.156-.5a3.498 3.498 0 0 1-1.422-1.484c-.338-.651-.508-1.448-.508-2.391 0-.922.154-1.719.461-2.39.313-.677.75-1.198 1.313-1.563.568-.364 1.234-.547 2-.547zm-.016 1.063c-.693 0-1.245.226-1.656.679-.412.454-.656 1.086-.734 1.899h4.531c-.005-.511-.086-.958-.242-1.344a1.884 1.884 0 0 0-.696-.906c-.312-.219-.713-.328-1.203-.328zM384.75 504h-1.305v-12.156h1.305zm4.039-8.562V504h-1.297v-8.562zm-.633-3.204c.214 0 .396.071.547.211.156.136.235.349.235.641 0 .286-.079.5-.235.641a.776.776 0 0 1-.547.211.795.795 0 0 1-.562-.211c-.146-.141-.219-.355-.219-.641 0-.292.073-.505.219-.641a.795.795 0 0 1 .562-.211zm6.586 3.063c1.021 0 1.779.229 2.274.687.494.459.742 1.19.742 2.196V504h-.946l-.25-1.266h-.062c-.24.313-.49.576-.75.789-.26.209-.562.368-.906.477-.339.104-.755.156-1.25.156-.521 0-.985-.091-1.391-.273a2.166 2.166 0 0 1-.953-.828c-.229-.37-.344-.839-.344-1.407 0-.854.339-1.51 1.016-1.968.677-.459 1.708-.709 3.094-.75l1.476-.063v-.523c0-.74-.159-1.258-.476-1.555-.318-.297-.766-.445-1.344-.445-.448 0-.875.065-1.281.195-.407.13-.792.284-1.157.461l-.398-.984a7.077 7.077 0 0 1 1.328-.508 5.787 5.787 0 0 1 1.578-.211zm1.735 4.484l-1.305.055c-1.068.042-1.82.216-2.258.523-.437.308-.656.743-.656 1.305 0 .49.148.852.445 1.086s.69.352 1.18.352c.76 0 1.383-.211 1.867-.633s.727-1.055.727-1.899zm5.25-7.937v3.039c0 .349-.011.687-.032 1.015-.015.329-.028.584-.039.766h.071a2.897 2.897 0 0 1 1.015-.976c.443-.266 1.008-.399 1.696-.399 1.072 0 1.927.372 2.562 1.117.641.74.961 1.841.961 3.305 0 .963-.146 1.776-.438 2.437-.291.662-.703 1.162-1.234 1.5-.531.339-1.159.508-1.883.508-.677 0-1.234-.125-1.672-.375a2.939 2.939 0 0 1-1-.929h-.101l-.266 1.148h-.937v-12.156zm2.5 4.531c-.62 0-1.112.122-1.477.367-.365.24-.628.604-.789 1.094-.156.484-.234 1.099-.234 1.844v.07c0 1.078.179 1.904.539 2.477.359.567 1.013.851 1.961.851.796 0 1.393-.292 1.789-.875.401-.583.601-1.417.601-2.5 0-1.104-.198-1.935-.594-2.492-.39-.557-.989-.836-1.796-.836zm7.296-.937V504h-1.296v-8.562zm-.632-3.204a.78.78 0 0 1 .547.211c.156.136.234.349.234.641 0 .286-.078.5-.234.641a.78.78 0 0 1-.547.211.798.798 0 0 1-.563-.211c-.146-.141-.219-.355-.219-.641 0-.292.073-.505.219-.641a.798.798 0 0 1 .563-.211zM415.578 504h-1.305v-12.156h1.305zm4.039-8.562V504h-1.297v-8.562zm-.633-3.204c.214 0 .396.071.547.211.157.136.235.349.235.641 0 .286-.078.5-.235.641a.776.776 0 0 1-.547.211.795.795 0 0 1-.562-.211c-.146-.141-.219-.355-.219-.641 0-.292.073-.505.219-.641a.795.795 0 0 1 .562-.211zm6.149 10.86c.213 0 .432-.018.656-.055a2.98 2.98 0 0 0 .547-.133v1.008a2.738 2.738 0 0 1-.633.172c-.265.047-.526.07-.781.07-.453 0-.865-.078-1.234-.234a1.912 1.912 0 0 1-.891-.813c-.219-.38-.328-.906-.328-1.578v-5.078h-1.219v-.633l1.227-.508.515-1.859h.781v1.985h2.508v1.015h-2.508v5.039c0 .537.123.938.368 1.203.25.266.58.399.992.399zm1.586-7.656h1.39l1.891 4.968c.109.292.211.573.305.844.093.266.177.521.25.766.073.244.13.481.172.711h.054c.073-.261.177-.602.313-1.024.135-.427.281-.862.437-1.305l1.789-4.96h1.399l-3.727 9.82c-.198.526-.43.984-.695 1.375-.261.39-.578.69-.953.898-.375.214-.828.321-1.36.321-.244 0-.461-.016-.648-.047a4.048 4.048 0 0 1-.484-.094v-1.039a4.515 4.515 0 0 0 .929.101 1.713 1.713 0 0 0 1.453-.718 3.62 3.62 0 0 0 .446-.836l.468-1.203zM446.797 504h-6.359v-11.422h6.359v1.172h-5.031v3.695h4.742v1.157h-4.742v4.226h5.031zm6.391-8.719c1.015 0 1.783.25 2.304.75.521.495.781 1.292.781 2.391V504h-1.281v-5.492c0-.714-.164-1.248-.492-1.602-.323-.354-.82-.531-1.492-.531-.948 0-1.615.268-2 .805-.386.536-.578 1.315-.578 2.336V504h-1.297v-8.562h1.047l.195 1.234h.07a2.55 2.55 0 0 1 .696-.758 3.03 3.03 0 0 1 .945-.469 3.674 3.674 0 0 1 1.102-.164zm8.148 12.563c-1.125 0-1.992-.211-2.602-.633-.609-.417-.914-1.003-.914-1.758a2 2 0 0 1 .508-1.375c.344-.38.818-.633 1.422-.758a1.553 1.553 0 0 1-.578-.468 1.169 1.169 0 0 1-.234-.719c0-.313.085-.586.257-.821.177-.239.446-.468.805-.687a2.344 2.344 0 0 1-1.094-.922c-.276-.437-.414-.945-.414-1.523 0-.615.128-1.138.383-1.571.255-.437.625-.77 1.109-1 .485-.229 1.071-.343 1.758-.343.151 0 .302.007.453.023.157.01.305.029.446.055.14.021.263.047.367.078h2.937v.836l-1.578.195a2.773 2.773 0 0 1 .547 1.688c0 .854-.289 1.533-.867 2.039-.578.5-1.373.75-2.383.75a4.42 4.42 0 0 1-.734-.063 1.89 1.89 0 0 0-.586.469.96.96 0 0 0-.196.594c0 .166.05.299.149.398a.963.963 0 0 0 .445.219c.193.042.425.062.696.062h1.507c.933 0 1.646.196 2.141.586.5.391.75.961.75 1.711 0 .948-.385 1.675-1.156 2.18s-1.886.758-3.344.758zm.039-1.016c.708 0 1.294-.073 1.758-.219.469-.14.818-.346 1.047-.617.234-.265.351-.583.351-.953 0-.344-.078-.604-.234-.781-.156-.172-.386-.287-.688-.344a5.606 5.606 0 0 0-1.109-.094h-1.484c-.386 0-.722.06-1.008.18-.287.12-.508.297-.664.531-.151.235-.227.526-.227.875 0 .464.195.815.586 1.055.391.245.948.367 1.672.367zm.336-6.844c.62 0 1.086-.156 1.398-.468.313-.313.469-.769.469-1.368 0-.64-.159-1.119-.476-1.437-.318-.323-.787-.484-1.407-.484-.593 0-1.052.166-1.375.5-.317.328-.476.809-.476 1.445 0 .583.161 1.031.484 1.344.323.312.784.468 1.383.468zm7.219-4.546V504h-1.297v-8.562zm-.633-3.204c.213 0 .396.071.547.211.156.136.234.349.234.641 0 .286-.078.5-.234.641a.778.778 0 0 1-.547.211.798.798 0 0 1-.563-.211c-.145-.141-.218-.355-.218-.641 0-.292.073-.505.218-.641a.798.798 0 0 1 .563-.211zm7.437 3.047c1.016 0 1.784.25 2.305.75.521.495.781 1.292.781 2.391V504h-1.281v-5.492c0-.714-.164-1.248-.492-1.602-.323-.354-.82-.531-1.492-.531-.948 0-1.615.268-2 .805-.386.536-.578 1.315-.578 2.336V504h-1.297v-8.562h1.047l.195 1.234h.07c.182-.302.414-.555.696-.758a3.03 3.03 0 0 1 .945-.469 3.672 3.672 0 0 1 1.101-.164zm9.055 0c.729 0 1.354.162 1.875.485s.919.776 1.195 1.359c.276.578.414 1.255.414 2.031v.805h-5.914c.016 1.005.266 1.771.75 2.297.485.526 1.167.789 2.047.789.542 0 1.021-.05 1.438-.149a7.924 7.924 0 0 0 1.297-.437v1.141a6.334 6.334 0 0 1-1.289.421 7.36 7.36 0 0 1-1.5.133c-.823 0-1.542-.166-2.157-.5a3.498 3.498 0 0 1-1.422-1.484c-.338-.651-.507-1.448-.507-2.391 0-.922.153-1.719.461-2.39.312-.677.75-1.198 1.312-1.563.568-.364 1.234-.547 2-.547zm-.016 1.063c-.692 0-1.244.226-1.656.679-.411.454-.656 1.086-.734 1.899h4.531c-.005-.511-.086-.958-.242-1.344a1.889 1.889 0 0 0-.695-.906c-.313-.219-.714-.328-1.204-.328zm9-1.063c.73 0 1.355.162 1.875.485.521.323.92.776 1.196 1.359.276.578.414 1.255.414 2.031v.805h-5.914c.015 1.005.265 1.771.75 2.297.484.526 1.166.789 2.047.789.541 0 1.02-.05 1.437-.149s.849-.244 1.297-.437v1.141a6.314 6.314 0 0 1-1.289.421 7.36 7.36 0 0 1-1.5.133c-.823 0-1.542-.166-2.156-.5a3.487 3.487 0 0 1-1.422-1.484c-.339-.651-.508-1.448-.508-2.391 0-.922.154-1.719.461-2.39.312-.677.75-1.198 1.312-1.563.568-.364 1.235-.547 2-.547zm-.015 1.063c-.693 0-1.245.226-1.656.679-.412.454-.657 1.086-.735 1.899h4.531c-.005-.511-.086-.958-.242-1.344a1.889 1.889 0 0 0-.695-.906c-.313-.219-.714-.328-1.203-.328zm9.594-1.063c.171 0 .351.011.539.031.187.016.354.04.5.071l-.164 1.203a4.012 4.012 0 0 0-.954-.117c-.343 0-.669.07-.976.211a2.313 2.313 0 0 0-.797.593 2.778 2.778 0 0 0-.539.93c-.13.359-.195.761-.195 1.203V504h-1.305v-8.562h1.078l.141 1.578h.054a4.21 4.21 0 0 1 .641-.868c.25-.265.539-.476.867-.632a2.573 2.573 0 0 1 1.11-.235zm6.153 2.639c0-3.12-1.264-5.648-3.184-7.6l-.96.496c1.856 1.904 2.992 4.256 2.992 7.104 0 2.864-1.136 5.216-2.992 7.12l.96.496c1.92-1.952 3.184-4.48 3.184-7.616zM267.76 510.94c.88-1.4 1.4-3.02 1.4-4.78 0-4.98-4.02-9-9-9s-9 4.02-9 9 4.02 9 8.98 9c1.76 0 3.4-.52 4.78-1.4l6.24 6.24 2.84-2.84zm-7.6.22c-2.76 0-5-2.24-5-5s2.24-5 5-5 5 2.24 5 5-2.24 5-5 5zm-.72-17c-1.48.04-2.9.36-4.2.9l-1.1-1.66-7.6 12.36-6.02-7.04-7.26 11.62L230 508l10-16 6 7 8-13zm5.18 1c-1.28-.56-2.66-.9-4.1-.98L270.76 478l3.24 2.36zm26.628 53.16v1.328c.416-.032.928-.064 1.472-.064h5.52c.448 0 1.008.032 1.488.064v-1.328c-.464.048-1.04.08-1.488.08h-5.552c-.512 0-.992-.032-1.44-.08zm-1.904 4.016v1.328a19.22 19.22 0 0 1 1.392-.048H301.2c.4 0 .912.016 1.264.048v-1.328c-.4.048-.928.08-1.264.08h-10.464c-.496 0-.96-.032-1.392-.08zm7.536.64l-1.344.016c-.016 1.76-.128 3.328-.928 4.592-.64 1.024-1.792 1.936-3.024 2.464l1.184.864c1.36-.688 2.56-1.84 3.152-2.912.704-1.344.96-3.008.96-5.024zm3.68-5.968l-.848.368c.432.608.976 1.568 1.28 2.208l.864-.384c-.32-.64-.896-1.616-1.296-2.192zm1.744-.64l-.832.368c.448.592.976 1.504 1.328 2.192l.848-.384a20.035 20.035 0 0 0-1.344-2.176zm3.312 6.704v1.568c.512-.032 1.36-.064 2.24-.064h8.784c.704 0 1.376.048 1.712.064v-1.568c-.368.032-.928.096-1.728.096h-8.768c-.912 0-1.744-.048-2.24-.096zm21.024-.4l-.88.896c1.984 1.232 4.72 3.2 6.192 4.544l.944-1.12c-1.584-1.28-4.208-3.12-6.256-4.32zm7.312-2.912l-1.056-.64c-.256.096-.608.144-1.04.144h-5.088l-.512 1.152h5.92c-.368 1.488-1.376 3.52-2.608 4.992a13.767 13.767 0 0 1-6.592 4.304l1.136 1.008c3.04-1.12 5.12-2.832 6.576-4.624 1.408-1.728 2.416-3.856 2.896-5.488.08-.256.24-.624.368-.848zm-5.392-2.32l-1.456-.464a5.47 5.47 0 0 1-.512 1.264c-.736 1.472-2.384 3.872-5.12 5.584l1.056.816c2.56-1.76 4.368-4.176 5.312-5.936.16-.304.448-.848.72-1.264zm15.44 4.784a1.71 1.71 0 0 0-1.712 1.696c0 .944.768 1.712 1.712 1.712a1.71 1.71 0 0 0 1.696-1.712c0-.928-.768-1.696-1.696-1.696zm13.568 2.528v.976h9.712v-.976zm1.264 2.528c.832.512 1.888 1.28 2.4 1.792l.672-.832c-.528-.496-1.6-1.216-2.432-1.696zm5.184-3.472c.592.336 1.312.864 1.664 1.216l.624-.624c-.368-.368-1.104-.848-1.696-1.168zm-5.264 1.392c-.128 2.096-.512 4.144-2.096 5.264.256.176.576.544.736.784 1.792-1.312 2.272-3.568 2.448-6.048zm2.88-8.624c.032 8.176 1.04 14.72 4.256 14.736 1.072 0 1.424-.528 1.632-2.336-.256-.096-.624-.304-.848-.528-.08 1.456-.24 1.824-.704 1.824-2.176 0-3.344-5.728-3.264-13.696zm3.584 9.408c-.896 1.984-2.72 3.6-5.12 4.528.224.192.528.56.672.768 2.464-1.024 4.432-2.704 5.472-4.912zm-2.432-6.624c.688.528 1.488 1.296 1.856 1.824l.512-.752c-.368-.512-1.168-1.248-1.872-1.728zm2.992 1.936c.416.752.816 1.76.96 2.384l.784-.368c-.128-.608-.56-1.568-1.008-2.304zm-2.784 1.12l.176.928a393.36 393.36 0 0 0 3.552-.336v-.832c-1.408.096-2.736.176-3.728.24zm1.648-5.696c-.272.784-.8 1.936-1.2 2.64l.688.32c.448-.656.992-1.696 1.44-2.592zm1.312 1.6c-.608 1.296-1.696 3.12-2.544 4.224l.672.384c.864-1.088 1.952-2.8 2.768-4.176zm-8.592 1.04c.688.528 1.488 1.296 1.856 1.824l.512-.752c-.352-.512-1.168-1.248-1.856-1.728zm2.784 2.032c.384.768.736 1.76.848 2.384l.784-.336c-.096-.608-.48-1.584-.896-2.32zm-2.72 1.2l.176.944c1.056-.096 2.288-.208 3.568-.336v-.864c-1.424.112-2.736.208-3.744.256zm1.808-5.872c-.288.784-.8 1.952-1.2 2.672l.688.304c.432-.656.976-1.712 1.44-2.592zm1.312 1.6c-.64 1.344-1.776 3.232-2.672 4.368l.688.368c.912-1.104 2.032-2.88 2.864-4.304zm-7.728 1.712v1.12h4.848v-1.12zm2.032-3.472v14.704h1.088V546.56zm-.048 4.144c-.384 2.272-1.344 5.072-2.32 6.512.192.256.464.704.592.992 1.056-1.6 2-4.752 2.448-7.28zm1.056 1.056l-.496.464c.384.624 1.392 2.512 1.712 3.312l.608-.88c-.256-.464-1.504-2.464-1.824-2.896zm18.08-2.176v1.104h9.232v-1.104zm-.096 4.672v1.056h4.976v-1.056zm3.104-2.768v8.08h.96v-8.08zm3.552-4.096c.56.528 1.168 1.296 1.44 1.808l.832-.528c-.288-.496-.928-1.232-1.504-1.744zm-1.696-.816c.08 7.696 1.056 14.656 3.168 14.656.928 0 1.28-.736 1.44-2.912-.272-.112-.64-.336-.864-.592-.064 1.648-.192 2.4-.448 2.4-.992 0-2.224-6.112-2.176-13.552zm-3.984 4.928v2.816c0 1.936-.176 4.08-1.68 5.76.24.144.624.432.8.64 1.616-1.84 1.824-4.208 1.824-6.384v-2.832zm7.264.448c-.8 3.776-2.4 6.736-5.04 8.528.24.16.672.512.848.688 2.624-1.952 4.304-4.992 5.216-9.04zm-13.104-2v1.136h4.4v-1.136zm1.856-3.392v14.704h1.12V546.56zm.096 4.128c-.4 2.288-1.408 5.088-2.416 6.512.208.304.496.8.624 1.12 1.056-1.616 2.048-4.816 2.512-7.376zm.976.8l-.576.464c.368.56 1.248 2.224 1.552 2.912l.688-.896c-.256-.4-1.376-2.112-1.664-2.48zm15.744.48v1.056h7.92v-1.056zm-2.688 3.648v1.12h14.144v-1.12zm6.432-1.168v5.376c0 .24-.08.32-.4.336s-1.408.016-2.64-.016c.192.32.432.816.512 1.152 1.456 0 2.384-.016 2.96-.192.608-.176.8-.528.8-1.248v-5.408zm3.808-2.48v.24c-.752.816-2.288 1.872-3.632 2.448.208.176.528.496.672.704 1.52-.656 3.2-1.76 4.288-2.864l-.768-.592-.256.064zm-9.92-2.736v3.568h1.136v-2.48h11.232v2.48h1.184v-3.568zm11.44-2.56c-.448.848-1.264 2.032-1.904 2.784l.944.4c.672-.704 1.536-1.776 2.208-2.768zm-10.352.56c.592.688 1.232 1.648 1.488 2.256l1.072-.512c-.272-.64-.928-1.552-1.552-2.224zm4.112-.352c.528.784 1.056 1.84 1.248 2.512l1.104-.432c-.192-.672-.768-1.712-1.312-2.464zm12.48 7.792v6.656h1.184v-5.696h7.808v5.696h1.232v-6.656zm.624 2.496v.96h8.752v-.96zm.048 2.576v.96h8.704v-.96zm3.712-6.576c-.16.528-.512 1.344-.816 1.888l.976.256c.336-.48.752-1.2 1.104-1.904zm-6.192-5.776v.96h5.328v-.96zm5.008 0v5.296c0 .16-.048.224-.256.224-.192.016-.832.016-1.568 0 .144.256.288.624.336.896 1.024 0 1.664 0 2.08-.16.384-.16.512-.432.512-.96v-5.296zm2.112 0v.96h5.584v-.96zm5.04 0v5.296c0 .192-.064.224-.272.24s-.912.016-1.664-.016c.144.272.288.672.336.944 1.072.016 1.76 0 2.176-.16.432-.176.544-.448.544-1.008v-5.296zm-5.408 4.72l.448.928c1.232-.432 2.8-1.04 4.272-1.6l-.176-.88c-1.68.592-3.376 1.184-4.544 1.552zm.816-2.88c.768.4 1.696 1.04 2.128 1.536l.656-.8c-.448-.48-1.392-1.088-2.16-1.456zm-7.952 3.2l.464.992c1.168-.464 2.624-1.072 4.032-1.648l-.192-.896c-1.6.592-3.2 1.2-4.304 1.552zm1.056-3.216c.768.432 1.664 1.104 2.096 1.584l.656-.784c-.432-.48-1.36-1.104-2.112-1.504zm25.296 4.704c0 3.136 1.264 5.664 3.184 7.616l.96-.496c-1.856-1.904-2.992-4.256-2.992-7.12 0-2.848 1.136-5.2 2.992-7.104l-.96-.496c-1.92 1.952-3.184 4.48-3.184 7.6zm11.466 6.08l-3.836-10.109h-.062c.02.213.039.474.054.781a41.1 41.1 0 0 1 .055 2.109V560h-1.235v-11.422h1.969l3.617 9.5h.055l3.672-9.5h1.953V560h-1.312v-7.312c0-.339.005-.678.015-1.016a55.08 55.08 0 0 1 .086-1.766h-.062L439.672 560zm9.367 0v-11.422h1.328v10.234h5.071V560zm11.661-6.08c0-3.12-1.264-5.648-3.184-7.6l-.96.496c1.856 1.904 2.992 4.256 2.992 7.104 0 2.864-1.136 5.216-2.992 7.12l.96.496c1.92-1.952 3.184-4.48 3.184-7.616zm13.456-4.608v1.392c.4-.032 1.024-.064 1.344-.064h8.784c.464 0 .976.032 1.376.064v-1.392c-.384.048-.88.08-1.376.08h-8.784c-.336 0-.928-.032-1.344-.08zm4.944 9.392h1.36v-8.592h-1.36zm-5.92-.784v1.44c.48-.032.976-.048 1.408-.048h10.576c.304 0 .896 0 1.312.048v-1.44c-.4.032-.832.096-1.312.096h-10.576c-.448 0-.944-.032-1.408-.096zm18.288-9.632l-.928.976c1.2.784 3.184 2.512 4 3.344l.992-1.024c-.88-.88-2.944-2.544-4.064-3.296zm-1.376 10.72l.832 1.312c2.672-.496 4.688-1.488 6.304-2.496 2.416-1.52 4.272-3.696 5.36-5.68l-.768-1.376c-.928 1.984-2.864 4.352-5.344 5.904-1.52.944-3.6 1.92-6.384 2.336zm25.2-10.944l-.896.384c.528.72 1.072 1.68 1.472 2.528l.912-.416c-.368-.768-1.088-1.904-1.488-2.496zm2.08-.768l-.88.4a17.144 17.144 0 0 1 1.504 2.464l.912-.416c-.384-.736-1.104-1.888-1.536-2.448zm-8.928.528l-.72 1.088c.944.528 2.688 1.696 3.44 2.272l.768-1.088c-.704-.512-2.544-1.744-3.488-2.272zm-2.4 11.44l.752 1.312c1.472-.304 3.68-1.056 5.296-2 2.56-1.488 4.768-3.568 6.16-5.712l-.784-1.312c-1.296 2.256-3.392 4.336-6.048 5.856-1.632.928-3.616 1.552-5.376 1.856zm0-7.84l-.72 1.104c.976.496 2.704 1.616 3.488 2.176l.736-1.12c-.688-.496-2.56-1.648-3.504-2.16zm16.64-1.84v1.44c.48-.016 1.024-.032 1.568-.032h6.864c.528 0 1.136.016 1.568.032v-1.44c-.432.048-.992.08-1.568.08h-6.864c-.528 0-1.056-.032-1.568-.08zm-1.376 7.936v1.536c.528-.048 1.088-.08 1.68-.08h9.584c.416 0 .976.032 1.456.08v-1.536c-.464.048-.992.08-1.456.08h-9.584c-.592 0-1.136-.048-1.68-.08zm29.424-8.32l-.8-.768c-.224.064-.8.112-1.104.112h-9.2a13.34 13.34 0 0 1-1.808-.144v1.44c.624-.048 1.216-.08 1.808-.08h9.12c-.512.992-2.016 2.72-3.504 3.568l1.072.848c1.824-1.264 3.344-3.328 3.984-4.416a5.18 5.18 0 0 1 .432-.56zm-6.4 2.096h-1.44c.064.432.064.784.064 1.168 0 2.672-.352 4.944-2.816 6.464a6.37 6.37 0 0 1-1.44.72l1.168.96c4.08-2.048 4.464-4.976 4.464-9.312z" fill="#7d6402"/><path d="M276 530h-48v48h48z" fill="#fffae8"/><g fill="#7d6402"><path d="M254 547.14a2.86 2.86 0 1 0-.001 5.719 2.86 2.86 0 0 0 .001-5.719z"/><path d="M254 536c-7.5 0-13.6 5.88-13.96 13.28l-3.84 5.12c-.5.66-.02 1.6.8 1.6h3v6c0 2.2 1.8 4 4 4h2v6h14v-9.36c4.72-2.24 8-7.06 8-12.64 0-7.74-6.26-14-14-14zm6 14c0 .26-.02.52-.04.78l1.66 1.32c.16.12.2.32.1.5l-1.6 2.78c-.1.18-.32.24-.48.18l-1.98-.8c-.42.32-.86.58-1.34.78l-.32 2.12c-.02.2-.2.34-.4.34h-3.2c-.2 0-.36-.14-.4-.34l-.3-2.12c-.5-.2-.94-.46-1.36-.78l-1.98.8c-.18.06-.4 0-.5-.18l-1.6-2.78c-.1-.16-.06-.38.1-.5l1.68-1.32c-.02-.26-.04-.52-.04-.78s.04-.54.08-.78l-1.7-1.32c-.16-.12-.2-.32-.1-.52l1.6-2.76c.1-.18.3-.24.48-.18l2 .8c.4-.3.86-.58 1.34-.78l.3-2.12c.04-.2.2-.34.4-.34h3.2c.2 0 .36.14.4.34l.3 2.12c.48.2.92.46 1.34.78l2-.8c.18-.06.4 0 .48.18l1.6 2.76c.1.18.06.4-.1.52l-1.7 1.32c.06.24.08.5.08.78zm35.312 53.456v1.12h7.728v-1.12zm-.448 5.728v1.152h8.496v-1.152zm5.536-5.28v13.392h1.136v-13.392zm-3.76.048v5.6c0 2.336-.224 5.168-2.064 7.12.288.144.72.48.928.688 2-2.096 2.272-5.152 2.272-7.808v-5.6zm-7.84-.512v1.104h5.648v-1.104zm1.616 4.912v1.088h2.688v4.752h-2.688v1.088h3.744v-6.928zm.48-4.4c-.416 2.672-1.168 5.168-2.4 6.8.208.32.48 1.008.56 1.296 1.472-1.92 2.384-4.832 2.96-7.856zm-1.008 4.4v8.208h1.024v-8.208zm15.904 2.64v1.12h9.44v-1.12zm8.768 0v4.528c0 1.328.368 1.664 1.584 1.664h1.68c1.136 0 1.456-.608 1.568-3.04-.336-.096-.88-.304-1.136-.528-.048 2.096-.112 2.4-.576 2.4h-1.344c-.448 0-.528-.064-.528-.496v-4.528zm-3.168-8.432v2.176h1.216v-2.176zm-1.936 2.272c-.256 2.336-.992 3.616-4.464 4.256.224.24.512.688.624.992 3.84-.816 4.784-2.4 5.104-5.248zm3.712.016v3.136c0 1.168.336 1.504 1.728 1.504h2.256c1.056 0 1.392-.384 1.52-1.856-.336-.08-.816-.256-1.072-.432-.048 1.056-.128 1.2-.576 1.2h-2c-.592 0-.672-.064-.672-.432v-3.12zm-7.936-.8v2.88h1.184v-1.792h11.232v1.664h1.248v-2.752zm5.168 4.992v1.904c0 1.728-.64 4.016-5.712 5.408.288.272.64.688.816.976 5.376-1.504 6.096-4.176 6.096-6.352v-1.936zm13.616.608v.992h7.936v-.992zm-.304 2.736v1.024h8.576v-1.024zm5.328-2.416v7.024h1.088v-7.024zm-3.28.048v2.912c0 .88-.336 2.576-1.952 3.568.272.16.64.496.8.72 1.808-1.216 2.192-3.312 2.192-4.288v-2.912zm-3.728-4.544v.864h4.496v-.864zm7.376 0v.864h4.528v-.864zm4.064-2.224v12.48c0 .24-.08.336-.336.336-.256.016-1.12.016-2-.016.176.336.336.896.384 1.216 1.216 0 2.016-.016 2.496-.224s.64-.592.64-1.312v-12.48zm-11.344 0v.928h4v3.552h-4v.912h5.136v-5.392zm11.92 0h-5.376v5.408h5.376v-.912h-4.224v-3.568h4.224zm-12.64 0v14.048h1.184v-14.048zm18.192 5.008v1.136h8.8v-1.136zm-1.6-5.008v1.072h4.768v-1.072zm-.416 8.544v1.104h12.768v-1.104zm4.768-8.544v.24c-.976 2.608-3.504 4.816-5.904 5.792.24.224.592.64.752.912 2.608-1.168 5.232-3.44 6.4-6.608l-.8-.384-.224.048zm-1.04 5.552v2.72c0 1.808-.432 3.68-4.064 4.896.256.224.624.672.784.944 3.952-1.376 4.464-3.6 4.464-5.824V608.8zm3.952-6.176l-1.056.304c1.264 3.248 3.584 5.952 6.496 7.248a6.3 6.3 0 0 1 .832-1.024c-2.848-1.104-5.152-3.632-6.272-6.528zm-7.488 2.896c.752.56 1.68 1.36 2.128 1.856l.8-.72c-.464-.496-1.408-1.264-2.16-1.792zm10.464-2.784c-.608.736-1.712 1.744-2.512 2.336l.736.576c.816-.56 1.888-1.456 2.704-2.272zm1.904 1.84c-.688.752-1.888 1.808-2.768 2.416l.736.576a25.48 25.48 0 0 0 2.928-2.352zm-4.848 4.256v6.64c0 1.328.352 1.696 1.712 1.696h2.112c1.184 0 1.52-.576 1.632-2.64a3.02 3.02 0 0 1-1.088-.48c-.064 1.712-.144 2.032-.656 2.032h-1.824c-.56 0-.656-.096-.656-.608v-6.64zm9.024-3.52v1.392c.4-.032 1.024-.064 1.344-.064h8.784c.464 0 .976.032 1.376.064v-1.392c-.384.048-.88.08-1.376.08h-8.784c-.336 0-.928-.032-1.344-.08zm4.944 9.392h1.36v-8.592h-1.36zm-5.92-.784v1.44c.48-.032.976-.048 1.408-.048h10.576c.304 0 .896 0 1.312.048v-1.44c-.4.032-.832.096-1.312.096h-10.576c-.448 0-.944-.032-1.408-.096zm18.288-9.632l-.928.976c1.2.784 3.184 2.512 4 3.344l.992-1.024c-.88-.88-2.944-2.544-4.064-3.296zm-1.376 10.72l.832 1.312c2.672-.496 4.688-1.488 6.304-2.496 2.416-1.52 4.272-3.696 5.36-5.68l-.768-1.376c-.928 1.984-2.864 4.352-5.344 5.904-1.52.944-3.6 1.92-6.384 2.336zm25.2-10.944l-.896.384c.528.72 1.072 1.68 1.472 2.528l.912-.416c-.368-.768-1.088-1.904-1.488-2.496zm2.08-.768l-.88.4a17.144 17.144 0 0 1 1.504 2.464l.912-.416c-.384-.736-1.104-1.888-1.536-2.448zm-8.928.528l-.72 1.088c.944.528 2.688 1.696 3.44 2.272l.768-1.088c-.704-.512-2.544-1.744-3.488-2.272zm-2.4 11.44l.752 1.312c1.472-.304 3.68-1.056 5.296-2 2.56-1.488 4.768-3.568 6.16-5.712l-.784-1.312c-1.296 2.256-3.392 4.336-6.048 5.856-1.632.928-3.616 1.552-5.376 1.856zm0-7.84l-.72 1.104c.976.496 2.704 1.616 3.488 2.176l.736-1.12c-.688-.496-2.56-1.648-3.504-2.16zm16.64-1.84v1.44c.48-.016 1.024-.032 1.568-.032h6.864c.528 0 1.136.016 1.568.032v-1.44c-.432.048-.992.08-1.568.08h-6.864c-.528 0-1.056-.032-1.568-.08zm-1.376 7.936v1.536c.528-.048 1.088-.08 1.68-.08h9.584c.416 0 .976.032 1.456.08v-1.536c-.464.048-.992.08-1.456.08h-9.584c-.592 0-1.136-.048-1.68-.08zm29.424-8.32l-.8-.768c-.224.064-.8.112-1.104.112h-9.2a13.34 13.34 0 0 1-1.808-.144v1.44c.624-.048 1.216-.08 1.808-.08h9.12c-.512.992-2.016 2.72-3.504 3.568l1.072.848c1.824-1.264 3.344-3.328 3.984-4.416a5.18 5.18 0 0 1 .432-.56zm-6.4 2.096h-1.44c.064.432.064.784.064 1.168 0 2.672-.352 4.944-2.816 6.464a6.37 6.37 0 0 1-1.44.72l1.168.96c4.08-2.048 4.464-4.976 4.464-9.312zM238 612.36v8l14 7.64 14-7.64v-8L252 620zM252 592l-22 12 22 12 18-9.82V620h4v-16zM31.758 430.156c0-.802.193-1.414.578-1.836.385-.427.94-.64 1.664-.64.714 0 1.266.213 1.656.64.39.427.586 1.039.586 1.836 0 .792-.198 1.404-.594 1.836-.39.432-.94.649-1.648.649-.719 0-1.273-.217-1.664-.649-.386-.432-.578-1.044-.578-1.836zm20.402-5.452v1.76h8.944v-1.76zm.288 3.68v1.744h6.832v-1.744zm3.168-5.968v6.912h1.888v-6.912zm-1.088 7.36l-1.728.496c1.456 3.6 3.872 6.064 7.712 7.184.256-.496.8-1.264 1.216-1.648-3.616-.896-6.048-3.072-7.2-6.032zm4.56-1.392v.304c-.976 3.728-3.984 6.08-7.856 6.992.368.4.832 1.216 1.024 1.728 4.256-1.248 7.472-3.84 8.752-8.592l-1.232-.496-.336.064zm-12.656 2.16l.496 1.84c1.488-.384 3.392-.88 5.168-1.36l-.24-1.76c-1.952.496-4.016.992-5.424 1.28zm.208-5.088v1.792h5.312v-1.792zm1.84-3.04v12.896c0 .224-.08.304-.304.304-.208 0-.88 0-1.504-.016.224.496.48 1.264.528 1.76 1.152 0 1.92-.064 2.464-.352s.704-.768.704-1.68v-12.912zm18.56 6.72c-.096 1.968-.304 3.984-.88 5.264a10.02 10.02 0 0 1 1.28.896c.656-1.456.976-3.712 1.136-5.936zm-.144-3.312v1.76h5.984v-1.76zm2.128-3.168v14.528h1.792v-14.528zm2.08 6.784c.304 1.52.576 3.488.64 4.784l1.472-.288c-.08-1.312-.368-3.232-.704-4.768zm2.336-6.16v1.68h3.824v-1.68zm-.4 4.528v1.712h4.464v-1.712zm-2.112-4.432c.4.704.848 1.648 1.024 2.24l1.328-.592c-.192-.592-.672-1.504-1.104-2.176zm3.504 4.912v7.056c0 .192-.064.24-.272.256-.208 0-.88 0-1.52-.032.24.544.464 1.328.512 1.856 1.072 0 1.84-.032 2.4-.32.576-.304.704-.832.704-1.728v-7.088zm-9.376-5.872c-.544 1.024-1.664 2.304-2.704 3.072.304.352.768 1.04.992 1.44 1.248-.96 2.592-2.48 3.44-3.872zm-.864 6.864v8.16h1.76v-9.584l-.256-.08zm1.232-3.488c-.736 1.68-1.984 3.328-3.248 4.4.336.416.848 1.36 1.04 1.76 1.472-1.36 2.992-3.52 3.92-5.568zm21.888-2.464v14.112h1.872v-12.304h2.784v-1.808zm-8.432.624v1.664h7.744v-1.664zm-.336 4.48v1.728h8.272v-1.728zm3.28-5.904v2.464h1.856v-2.464zm-2.016 3.536c.272.752.512 1.744.56 2.4l1.68-.4c-.096-.64-.336-1.616-.656-2.336zm4.288-.4c-.128.736-.416 1.76-.672 2.432l1.504.368c.288-.608.608-1.52.96-2.416zm-3.984 9.328v1.664h4.944v-1.664zm-.656-3.776v6.24h1.776v-4.576h3.008v4.512h1.856v-6.176zm12.016-7.888V424c-.352 1.12-1.088 3.6-1.728 5.136 1.296 1.248 1.632 2.416 1.648 3.28 0 .56-.112.912-.384 1.088a1.16 1.16 0 0 1-.592.144c-.24.016-.56 0-.912-.016.304.528.464 1.344.48 1.872.464.016.912.016 1.28-.032.416-.064.784-.192 1.104-.416.608-.416.88-1.2.88-2.384-.016-1.072-.272-2.336-1.6-3.76.624-1.376 1.328-3.216 1.904-4.768l-1.408-.88-.304.064zm-59.714 30.828c0-.802.192-1.414.578-1.836.385-.427.94-.64 1.664-.64.713 0 1.266.213 1.656.64.39.427.586 1.039.586 1.836 0 .792-.198 1.404-.594 1.836-.39.432-.94.649-1.648.649-.719 0-1.273-.217-1.664-.649-.386-.432-.578-1.044-.578-1.836zm18.754 3.716c0 1.904.528 2.768 4.16 2.768 1.728 0 3.648-.144 4.96-.336l.08-2.176c-1.584.32-3.376.528-5.056.528-1.744 0-2.032-.336-2.032-1.344v-8.096c0-.544.064-1.36.144-1.84h-2.384c.08.48.128 1.296.128 1.84zm10.064-7.024l-1.536-1.2c-.288.16-.688.272-1.136.384-1.456.352-8.976 1.824-11.152 2.08l.384 2.096c2.032-.448 9.424-1.92 10.4-2.112-.448.832-1.488 2.304-2.544 3.248l1.76 1.04c1.152-1.136 2.608-3.328 3.312-4.672.144-.272.368-.64.512-.864zm7.248-2.272c.256 1.296 1.808 9.36 2.048 10.8.112.48.144 1.024.224 1.616l2.304-.4a57.417 57.417 0 0 1-.4-1.568c-.336-1.632-1.92-9.728-2.08-10.784a23.95 23.95 0 0 1-.16-1.232l-2.272.368c.128.368.24.752.336 1.2zm-4.368 2.048l.432 2.208c.544-.144.96-.24 1.456-.336 1.2-.208 6.704-1.088 8.4-1.36.48-.064 1.136-.16 1.488-.176l-.4-2.112c-.384.112-.992.256-1.488.336-1.44.288-7.04 1.152-8.4 1.312-.512.064-.992.096-1.488.128zm.016 4.688l.448 2.144c.352-.096.912-.192 1.6-.32 1.584-.304 7.344-1.248 9.376-1.552.592-.096 1.248-.208 1.68-.24l-.416-2.112c-.432.112-1.024.256-1.648.368-1.84.352-7.68 1.296-9.392 1.536-.496.08-1.232.16-1.648.176zm26.656-2.928l-1.536-.752c-.208.112-.864.176-1.184.176h-4.112c-.416 0-1.152-.048-1.584-.112v2.112a25.704 25.704 0 0 1 1.6-.064h4.336c-.08 1.072-.56 4.16-.768 5.216h2.208c.192-1.152.736-4.784.896-5.904.016-.176.08-.464.144-.672zm-9.872 5.792v2.096a26.456 26.456 0 0 1 1.568-.048h8.432c.416 0 1.2.016 1.536.032v-2.064c-.416.048-1.168.08-1.568.08h-8.4c-.544 0-1.152-.048-1.568-.096zm26.576-10.592h-2.416c.064.448.112.96.112 1.616v3.024c0 2.496-.224 3.696-1.312 4.896-.976 1.04-2.256 1.648-3.856 2.016l1.68 1.776c1.168-.384 2.816-1.152 3.872-2.32 1.2-1.312 1.872-2.784 1.872-6.24V449.2c0-.656.016-1.168.048-1.616zm-7.408.144h-2.32c.048.368.064.928.064 1.216v5.392c0 .496-.048 1.12-.08 1.408h2.336a19.36 19.36 0 0 1-.064-1.392v-5.408c0-.496.032-.848.064-1.216zm13.792.016v2.064c.48-.032 1.168-.064 1.712-.064h6.432a30.6 30.6 0 0 1 1.712.064v-2.064a15.63 15.63 0 0 1-1.712.112h-6.432c-.544 0-1.2-.048-1.712-.112zm-1.872 4.08v2.096a24.238 24.238 0 0 1 1.536-.048h10.48c.448 0 1.056.016 1.472.032v-2.08c-.432.08-1.136.096-1.472.096h-10.48c-.496 0-1.056-.032-1.536-.096zm8.192 1.12l-2.224.016c0 1.712-.224 3.216-1.024 4.432-.624.944-1.76 1.856-2.896 2.304l1.888 1.36c1.408-.736 2.656-1.968 3.2-3.088.688-1.328 1.056-2.928 1.056-5.024zm7.207 2.512l.944 1.872c1.824-.544 4.288-1.616 5.728-2.464 1.744-1.024 3.68-2.528 4.64-3.568l-1.584-1.552c-.832 1.04-2.432 2.464-4 3.408-1.264.768-3.632 1.84-5.728 2.304zm5.552-1.04v5.264c0 .576-.048 1.424-.096 1.744h2.384c-.096-.32-.112-1.168-.112-1.744V454zm16.576-4.432v1.84h7.632v-1.84zm-7.088-1.104v1.776h7.616v-1.776zm11.104-2.464v12.624c0 .272-.096.352-.368.368-.288 0-1.152 0-2.048-.048.272.592.544 1.504.608 2.064 1.344 0 2.288-.064 2.896-.4s.816-.88.816-1.968v-12.64zm-4.192 7.424c.736 1.088 1.424 2.56 1.664 3.504l1.664-.848c-.256-.96-1.024-2.352-1.776-3.408zm-6.608-.928c1.888 2.112 4.08 4.992 4.928 6.912l1.536-1.312c-.928-1.904-3.2-4.656-5.12-6.688zm2.496-6.48v3.536h1.84v-3.536zm1.744 4.544c-.64 4.096-2.096 7.152-4.992 8.848.384.336 1.056 1.12 1.296 1.504 3.088-2.064 4.736-5.44 5.552-10.08zm11.712-.032v1.648h14v-1.648zm6.144-.864v11.36h2.064v-11.36zm-5.104 3.296v4.448h2.032v-2.832h9.152v-1.616zm10.176 0v2.736c0 .16-.064.208-.256.208-.176.016-.832.016-1.36-.016.208.4.512.992.624 1.472.928 0 1.664 0 2.24-.24s.736-.624.736-1.424v-2.736zm-4.864 2.512c-1.328 1.664-3.936 2.96-6.752 3.504.416.4.944 1.136 1.2 1.616 2.88-.768 5.456-2.368 6.992-4.576zm1.376.016l-1.024.896c1.2 1.552 3.728 3.36 6.704 4.096.272-.496.832-1.264 1.216-1.68-3.056-.544-5.728-1.952-6.896-3.312zm-5.952-8.24v1.6h5.008v-1.6zm6.432 0v1.6h6.064v-1.6zm-6.352-1.36c-.512 1.312-1.44 2.656-2.464 3.504.448.24 1.232.752 1.6 1.056 1.008-.976 2.048-2.528 2.704-4.064zm6.448 0c-.448 1.344-1.328 2.672-2.352 3.488.464.256 1.264.784 1.616 1.104 1.024-.976 2.032-2.528 2.624-4.128zm-5.888 2.624c.416.656.864 1.552 1.04 2.096l1.648-.624c-.192-.56-.688-1.408-1.104-2.032zm6.976-.128c.448.656.944 1.552 1.136 2.128l1.712-.56c-.224-.576-.768-1.44-1.232-2.064zm12.576 6.16v5.008h1.984v-5.008zm-4.208-4.624v1.648h10.544v-1.648zm-1.84 8.976v1.696h14.24v-1.696zm1.424-2.88v1.648h11.552v-1.648zm2.976-5.152c-.32.896-.912 2.128-1.408 2.944l1.584.48c.544-.752 1.248-1.856 1.872-2.928zm-3.264 2.224l.08 1.712c2.704-.064 6.72-.16 10.48-.304l.096-1.6c-3.824.08-7.968.176-10.656.192zm7.52-.848c1.232.928 2.736 2.272 3.408 3.168l1.504-1.024c-.736-.928-2.304-2.208-3.52-3.072zm-2.608-6.224v2.224h1.984v-2.224zm-6 1.024v3.344h1.872v-1.6h10.272v1.6h1.968v-3.344zm-142.25 30.7c0-.802.193-1.414.579-1.836.385-.427.94-.64 1.664-.64.713 0 1.266.213 1.656.64.39.427.586 1.039.586 1.836 0 .792-.198 1.404-.594 1.836-.39.432-.94.649-1.648.649-.719 0-1.273-.217-1.664-.649-.386-.432-.578-1.044-.578-1.836zm20.532-3.726c-.911 0-1.617.343-2.117 1.031-.5.682-.75 1.635-.75 2.859 0 2.547.956 3.821 2.867 3.821.802 0 1.773-.201 2.914-.602v2.031c-.937.391-1.984.586-3.14.586-1.662 0-2.933-.502-3.813-1.508-.88-1.01-1.32-2.458-1.32-4.343 0-1.188.216-2.227.648-3.117.432-.896 1.052-1.581 1.86-2.055.812-.479 1.762-.719 2.851-.719 1.11 0 2.224.268 3.344.805l-.781 1.969c-.428-.204-.857-.381-1.29-.532s-.856-.226-1.273-.226zm9.758 9.57h-2.422v-9.406h-3.102v-2.016h8.625v2.016h-3.101zm15.226-5.727c0 1.891-.468 3.344-1.406 4.36-.937 1.015-2.281 1.523-4.031 1.523s-3.094-.508-4.031-1.523c-.938-1.016-1.407-2.474-1.407-4.375s.47-3.352 1.407-4.352c.942-1.005 2.291-1.508 4.047-1.508s3.096.506 4.023 1.516c.932 1.01 1.398 2.464 1.398 4.359zm-8.336 0c0 1.276.243 2.237.727 2.883.484.646 1.208.969 2.172.969 1.932 0 2.898-1.284 2.898-3.852 0-2.572-.96-3.859-2.882-3.859-.964 0-1.69.326-2.18.977-.49.645-.735 1.606-.735 2.882zm16.226.687v5.008h1.984v-5.008zm-4.208-4.624v1.648H91.5v-1.648zm-1.84 8.976v1.696h14.24v-1.696zm1.424-2.88v1.648h11.552v-1.648zm2.976-5.152c-.32.896-.912 2.128-1.408 2.944l1.584.48c.544-.752 1.248-1.856 1.872-2.928zm-3.264 2.224l.08 1.712c2.704-.064 6.72-.16 10.48-.304l.096-1.6c-3.824.08-7.968.176-10.656.192zm7.52-.848c1.232.928 2.736 2.272 3.408 3.168l1.504-1.024c-.736-.928-2.304-2.208-3.52-3.072zm-2.608-6.224v2.224h1.984v-2.224zm-6 1.024v3.344h1.872v-1.6h10.272v1.6h1.968v-3.344zm-47.855-84.575v1.953h12.873v-1.953zm1.701 3.99c1.008.672 2.289 1.701 2.877 2.394l1.344-1.701c-.63-.651-1.953-1.596-2.94-2.205zm6.846-4.767c.651.441 1.449 1.134 1.827 1.596l1.302-1.197c-.399-.462-1.239-1.092-1.911-1.512zm-7.161 1.785c-.147 2.457-.525 4.872-2.667 6.3.525.378 1.134 1.155 1.428 1.68 2.625-1.848 3.213-4.767 3.465-7.98zm3.612-11.697c0 10.416 1.134 19.698 5.754 19.719 1.638 0 2.247-.63 2.625-3.045-.504-.231-1.197-.651-1.638-1.134-.105 1.68-.294 2.058-.819 2.058-2.52 0-3.927-8.001-3.738-17.598zm4.809 12.6c-1.155 2.478-3.444 4.41-6.447 5.46.42.42 1.05 1.176 1.323 1.617 3.171-1.239 5.754-3.36 7.203-6.3zm-2.94-8.673c.84.714 1.89 1.722 2.373 2.415l.966-1.575c-.483-.63-1.533-1.575-2.415-2.205zm3.927 2.436c.462 1.029.882 2.394 1.008 3.234l1.512-.63c-.126-.819-.609-2.121-1.113-3.129zm-3.549 1.134l.357 1.806a372.96 372.96 0 0 0 4.368-.567l-.042-1.596c-1.764.147-3.423.273-4.683.357zm1.932-7.392a21.84 21.84 0 0 1-1.428 3.465l1.344.609c.588-.861 1.302-2.184 1.974-3.381zm1.764 2.247c-.777 1.659-2.163 3.948-3.276 5.355l1.302.735c1.155-1.344 2.583-3.486 3.717-5.25zm-11.424 1.575c.861.714 1.911 1.722 2.373 2.415l.966-1.575c-.462-.63-1.533-1.575-2.394-2.205zm3.591 2.688c.399 1.05.756 2.394.84 3.255l1.512-.567c-.084-.819-.483-2.142-.945-3.15zm-3.444 1.218l.336 1.848c1.365-.147 2.898-.315 4.452-.504l-.042-1.701c-1.785.147-3.465.273-4.746.357zm2.184-7.728c-.336 1.05-.945 2.583-1.428 3.549l1.344.588c.567-.861 1.26-2.247 1.953-3.423zm1.764 2.247c-.84 1.764-2.289 4.179-3.465 5.649l1.302.714c1.218-1.407 2.709-3.654 3.885-5.523zm-9.996 1.974v2.31h6.405v-2.31zm2.247-4.347v19.719h2.247v-19.719zm-.042 5.943c-.441 2.667-1.491 5.985-2.709 7.791.357.567.861 1.512 1.071 2.142 1.365-2.142 2.436-6.195 2.94-9.492zm2.184 1.407l-.924.924c.525.987 1.659 3.444 2.079 4.683l1.197-1.743c-.315-.609-1.932-3.297-2.352-3.864zm19.488-7.455c-.441 1.68-1.302 3.906-2.058 5.334l2.184.567c.798-1.344 1.743-3.402 2.499-5.334zm-3.171 4.305l.189 2.394c2.394-.147 5.628-.336 8.715-.567l.021-2.184c-3.255.147-6.657.294-8.925.357zm1.239 3.381v12.117H49.2v-10.038h4.347v-2.079zm5.481 0v9.534c0 .273-.084.336-.336.336-.273.021-1.113.021-1.848-.021.315.609.672 1.575.798 2.247 1.281 0 2.226-.042 2.961-.42.714-.378.924-1.008.924-2.079v-9.597zm-4.41 3.171v1.869h5.817v-1.869zm0 3.087v1.869h5.817v-1.869zm8.547-13.755v6.342c0 2.331.609 3.045 3.087 3.045h2.898c1.953 0 2.625-.756 2.898-3.486-.693-.147-1.722-.525-2.247-.924-.084 1.848-.21 2.163-.903 2.163h-2.289c-.798 0-.924-.105-.924-.84v-6.3zm6.3 1.239c-1.386.798-3.549 1.743-5.502 2.352.273.483.609 1.239.714 1.743 2.079-.567 4.515-1.365 6.384-2.268zm-6.3 8.568v6.636c0 2.331.63 3.045 3.108 3.045h2.982c2.016 0 2.688-.84 2.961-3.801-.693-.147-1.701-.546-2.226-.924-.105 2.142-.231 2.52-.966 2.52h-2.394c-.819 0-.966-.084-.966-.861v-6.615zm6.468.882c-1.428.924-3.675 1.953-5.712 2.604.252.483.609 1.281.735 1.764 2.163-.609 4.704-1.491 6.615-2.52zm-11.298-8.568c1.008 1.575 2.016 3.675 2.373 5.019l2.289-.924c-.399-1.386-1.491-3.381-2.52-4.893zm26.355.357v11.886h2.457v-11.886zm4.956-2.142v16.233c0 .399-.168.525-.567.525-.441.021-1.785.021-3.171-.042.357.714.756 1.89.882 2.604 1.932 0 3.318-.084 4.2-.483.861-.42 1.155-1.113 1.155-2.583v-16.254zm-12.39 9.618v2.205h4.83v-2.205zm3.717 0v.378c-.168 4.683-.357 6.468-.714 6.888-.189.21-.399.252-.714.252-.378 0-1.197 0-2.079-.084.378.588.63 1.512.672 2.184 1.008.021 1.974.021 2.541-.063.672-.105 1.155-.273 1.575-.819.588-.714.798-2.73 1.008-7.812.021-.294.042-.924.042-.924zm-4.263-6.846h3.969v2.877h-3.969zm-2.268-2.205v7.329h8.652v-7.329zm2.121 6.636c-.147 3.696-.441 7.854-3.402 10.29.609.399 1.323 1.197 1.701 1.827 3.402-2.898 3.948-7.665 4.179-12.117zm28.413-1.386v2.268h6.279v-2.268zm0 5.271v2.268h6.279v-2.268zm-1.302-10.458v17.241h2.436v-14.973h4.032v14.973h2.541v-17.241zm-1.932 15.855v2.268h12.348v-2.268zm-4.284-16.884c-.483 1.47-1.386 3.486-2.142 4.746l1.701.693c.819-1.155 1.806-3.024 2.667-4.662zm2.52 2.478c-1.113 2.247-3.024 5.334-4.641 7.224l1.533.777c1.617-1.785 3.675-4.704 5.229-7.119zm-5.754 2.499c1.071 1.008 2.352 2.457 2.877 3.465l1.281-1.974c-.546-.924-1.848-2.268-2.982-3.234zm5.229 2.562c.798 1.449 1.575 3.36 1.827 4.557l1.911-.882c-.273-1.218-1.113-3.045-1.953-4.452zm-5.25 1.701l.21 2.184c2.079-.126 4.809-.315 7.455-.525v-1.995c-2.814.147-5.712.273-7.665.336zm5.628 3.57c.504 1.281 1.05 2.982 1.239 4.074l1.974-.714c-.252-1.071-.819-2.709-1.365-3.969zm-4.725-.483c-.168 1.785-.504 3.654-1.113 4.893.525.21 1.47.651 1.911.924.609-1.344 1.071-3.444 1.281-5.46zm2.436-1.974v9.366h2.247v-9.366zm26.838-10.395v3.087h2.289v-3.087zm-1.638 4.158c.315.903.525 2.079.525 2.856l1.785-.441c-.042-.735-.294-1.911-.63-2.793zm-.756-2.121v1.89h7.077v-1.89zm-.357 4.725v1.974h13.23v-1.974zm2.079 5.922v1.68h3.927v-1.68zm-.168-3.003v1.743h3.213v4.242h-3.213v1.722h5.25v-7.707zm-.735 0v8.799h1.911v-8.799zm3.801-6.027c-.147.84-.483 2.079-.735 2.898l1.68.42c.336-.735.693-1.848 1.092-2.877zm2.709-3.507c.105 11.844.588 19.614 3.801 19.74.756.021 1.722-.735 2.226-4.011-.336-.231-1.218-.882-1.554-1.365-.105 1.638-.315 2.604-.588 2.583-1.239-.084-1.806-7.623-1.743-16.947zm1.995 1.953c.714 1.239 1.47 2.94 1.785 4.011l1.932-.84c-.336-1.071-1.134-2.688-1.89-3.906zm1.575 7.413c-1.05 3.612-3.36 6.762-6.573 8.652.462.357 1.197 1.155 1.512 1.617 3.423-2.184 5.754-5.565 7.035-9.723zm-15.015-9.471c-.378 1.449-1.092 3.444-1.743 4.704l1.638.63c.672-1.176 1.491-3.045 2.226-4.662zm2.184 2.541c-.945 2.247-2.646 5.313-4.011 7.203l1.386.735c1.449-1.806 3.234-4.725 4.578-7.098zm-4.809 2.268c1.008 1.05 2.184 2.541 2.646 3.57l1.134-2.037c-.462-.945-1.701-2.31-2.751-3.318zm4.095 2.646c.714 1.47 1.365 3.381 1.533 4.578l1.785-.735c-.189-1.218-.903-3.045-1.659-4.473zm-4.221 1.743l.21 2.184a275.55 275.55 0 0 0 6.258-.567l.021-1.953c-2.436.147-4.83.273-6.489.336zm4.767 3.507c.399 1.218.819 2.835.945 3.906l1.764-.609c-.189-1.029-.609-2.604-1.05-3.822zm-3.99-.378c-.105 1.764-.315 3.654-.84 4.893.462.189 1.323.567 1.701.819.525-1.344.882-3.423 1.029-5.397zm2.016-2.016v9.387h2.058v-9.387zm31.248-8.589v11.865h2.352v-11.865zm3.78-1.386v16.38c0 .336-.105.441-.441.441-.378 0-1.47 0-2.562-.042.315.735.672 1.848.777 2.562 1.617 0 2.835-.084 3.612-.483.777-.441 1.05-1.113 1.05-2.478v-16.38zm-11.718-.231v19.572h2.394v-19.572zm4.242 10.311v5.334c0 .21-.063.252-.252.252s-.735 0-1.302-.021c.273.609.546 1.512.609 2.142 1.05.021 1.848-.021 2.457-.378.63-.378.756-.966.756-1.953v-5.376zm-8.211 0v7.602h2.247v-5.355h6.867v-2.247zm-.819-3.78v2.268h11.802v-2.268zm2.205-3.864l-.462 2.289h9.24v-2.289zm-.588-2.394c-.378 1.995-1.071 4.116-1.932 5.481.588.21 1.68.63 2.184.924.798-1.449 1.596-3.738 2.058-5.943z"/></g></g></svg>