<?xml version="1.0" encoding="utf-8"?>
<svg contentScriptType="text/ecmascript" xmlns:xlink="http://www.w3.org/1999/xlink" zoomAndPan="magnify" contentStyleType="text/css" viewBox="7.550000000000011 -1.4499999999999886 395.0 320.75000000000017" xmlns:cacoo="http://cacoo.com/" preserveAspectRatio="xMidYMin meet" xmlns="http://www.w3.org/2000/svg" version="1.1"><defs><radialGradient xmlns:xlink="http://www.w3.org/1999/xlink" xlink:type="simple" r="75%" xlink:actuate="onLoad" cx="50%" id="id0" cy="50%" xlink:show="other"><stop stop-opacity="1.0" stop-color="#67ab9f" offset="0%"/><stop stop-opacity="1.0" stop-color="#02735f" offset="100%"/></radialGradient><radialGradient xmlns:xlink="http://www.w3.org/1999/xlink" xlink:type="simple" r="75%" xlink:actuate="onLoad" cx="50%" id="id2" cy="50%" xlink:show="other"><stop stop-opacity="1.0" stop-color="#b5739d" offset="0%"/><stop stop-opacity="1.0" stop-color="#83165c" offset="100%"/></radialGradient><marker refX="0.0" refY="7.0" markerUnits="userSpaceOnUse" orient="auto" id="id4" markerHeight="14.0" viewBox="0 0 14.0 14.0" preserveAspectRatio="xMidYMid meet" markerWidth="14.0" overflow="visible"><path fill="#cccccc" d="M14.0 0 L0 7.0 L14.0 14.0z" stroke-width="3.0" stroke-linejoin="round" stroke-linecap="round" stroke="#cccccc"/></marker><radialGradient xmlns:xlink="http://www.w3.org/1999/xlink" xlink:type="simple" r="75%" xlink:actuate="onLoad" cx="50%" id="id5" cy="50%" xlink:show="other"><stop stop-opacity="1.0" stop-color="#ffffff" offset="0%"/><stop stop-opacity="1.0" stop-color="#67ab9f" offset="100%"/></radialGradient><marker refX="0.0" refY="7.0" markerUnits="userSpaceOnUse" orient="auto" id="id9" markerHeight="14.0" viewBox="0 0 14.0 14.0" preserveAspectRatio="xMidYMid meet" markerWidth="14.0" overflow="visible"><path fill="#cccccc" d="M7.0 3.5 L0 7.0 L7.0 10.5z" stroke-width="3.0" stroke-linejoin="round" stroke-linecap="round" stroke="#cccccc"/></marker><marker refX="0.0" refY="7.0" markerUnits="userSpaceOnUse" orient="auto" id="id11" markerHeight="14.0" viewBox="0 0 14.0 14.0" preserveAspectRatio="xMidYMid meet" markerWidth="14.0" overflow="visible"><path fill="#cccccc" d="M14.0 0 L0 7.0 L14.0 14.0z" stroke-width="3.0" stroke-linejoin="round" stroke-linecap="round" stroke="#cccccc"/></marker><radialGradient xmlns:xlink="http://www.w3.org/1999/xlink" xlink:type="simple" r="75%" xlink:actuate="onLoad" cx="50%" id="id12" cy="50%" xlink:show="other"><stop stop-opacity="1.0" stop-color="#ffffff" offset="0%"/><stop stop-opacity="1.0" stop-color="#a680b8" offset="100%"/></radialGradient></defs><g><g transform="translate(22.55000000000001 97.90000000000003)"><path fill="url(#id0)" d="M364.9999999999996 76.64999999999992 Q364.9999999999996 81.64999999999992 359.9999999999996 81.64999999999992 L5.0 81.64999999999992 Q0.0 81.64999999999992 0.0 76.64999999999992 L0.0 5.0 Q0.0 0.0 5.0 0.0 L359.9999999999996 0.0 Q364.9999999999996 0.0 364.9999999999996 5.0 L364.9999999999996 76.64999999999992 L364.9999999999996 76.64999999999992z" stroke-width="1.0" stroke-linejoin="round" stroke="#02735f"/><g transform="translate(1.0 1.0)"><defs><clipPath id="id1"><path d="M0 0 L363.0 0 L363.0 79.64999999999998 L0 79.64999999999998z"/></clipPath></defs><text font-size="16" clip-path="url(#id1)" text-decoration="none" fill="#ffffff" font-family="Arial,Arial" font-style="normal" font-weight="normal"><tspan x="162.35" xml:space="preserve" y="74.21670150756833" textLength="38.30000000000001">nginx</tspan></text></g></g><g transform="translate(22.55000000000001 220.0000000000001)"><path fill="url(#id2)" d="M365.0 79.30000000000004 Q365.0 84.30000000000004 360.0 84.30000000000004 L5.0 84.30000000000004 Q0.0 84.30000000000004 0.0 79.30000000000004 L0.0 5.0 Q0.0 0.0 5.0 0.0 L360.0 0.0 Q365.0 0.0 365.0 5.0 L365.0 79.30000000000004 L365.0 79.30000000000004z" stroke-width="1.0" stroke-linejoin="round" stroke="#83165c"/><g transform="translate(1.0 1.0)"><defs><clipPath id="id3"><path d="M0 0 L363.0 0 L363.0 82.2999999999999 L0 82.2999999999999z"/></clipPath></defs><text font-size="14" clip-path="url(#id3)" text-decoration="none" fill="#ffffff" font-family="Arial,Arial" font-style="normal" font-weight="normal"><tspan x="162.35" xml:space="preserve" y="77.35447463989247" textLength="37.80000000000001">Origin</tspan></text></g></g><path marker-start="url(#id4)" fill="none" d="M332.05 40.55000000000001 L332.05 152.81317690537213 Q332.05 162.81317690537213 322.0500010117175 162.8176751660295 L272.0499989882825 162.84016647250203 Q262.04999999999995 162.8446647331594 262.04999999999995 152.8446647331594 L262.05 42.56170839991847" stroke-width="3.0" stroke-linejoin="round" stroke="#cccccc"/><g transform="translate(242.05 123.72500000000002)"><path fill="url(#id5)" d="M108.99999999999991 30.0 L0.0 30.0 L0.0 0.0 L108.99999999999991 0.0 L108.99999999999991 30.0z" stroke-width="1.0" stroke-linejoin="round" stroke="#358f7f"/><g transform="translate(1.0 1.0)"><defs><clipPath id="id6"><path d="M0 0 L107.0 0 L107.0 28.0 L0 28.0z"/></clipPath></defs><text font-size="12" clip-path="url(#id6)" text-decoration="none" fill="#000000" font-family="Arial,Arial" font-style="normal" font-weight="normal"><tspan x="37.5" xml:space="preserve" y="18.25" textLength="32.0">cache</tspan></text></g></g><g transform="translate(56.30000000000001 13.550000000000011)"><defs><clipPath id="id7"><path d="M0 0 L129.0 0 L129.0 27.0 L0 27.0z"/></clipPath></defs><text font-size="12" clip-path="url(#id7)" text-decoration="none" fill="#000000" font-family="Arial,Arial" font-style="normal" font-weight="normal"><tspan x="22.1" xml:space="preserve" y="12.792247772216797" textLength="84.35">GET /index.html</tspan></text></g><g transform="translate(232.05 13.550000000000011)"><defs><clipPath id="id8"><path d="M0 0 L129.0 0 L129.0 27.0 L0 27.0z"/></clipPath></defs><text font-size="12" clip-path="url(#id8)" text-decoration="none" fill="#000000" font-family="Arial,Arial" font-style="normal" font-weight="normal"><tspan x="22.1" xml:space="preserve" y="12.792247772216797" textLength="84.35">GET /index.html</tspan></text></g><path marker-start="url(#id9)" fill="none" d="M238.08970270338992 138.72499950000002 L172.01029729661013 138.72499950000002" stroke-width="3.0" stroke-linejoin="round" stroke="#cccccc"/><g transform="translate(185.3 114.22500000000002)"><defs><clipPath id="id10"><path d="M0 0 L39.5 0 L39.5 19.0 L0 19.0z"/></clipPath></defs><text font-size="14" clip-path="url(#id10)" text-decoration="none" fill="#ffffff" font-family="Arial,Arial" font-style="normal" font-weight="normal"><tspan x="1.95" xml:space="preserve" y="14.754474639892578" textLength="29.95">save</tspan></text></g><path marker-start="url(#id11)" fill="none" d="M158.95000000000002 40.55000000000001 L157.94147691794504 283.70075878298036 Q157.9 293.7006727658743 147.90000592613433 293.7115595767622 L93.04999407386572 293.77127378277345 Q83.05000000000004 293.7821605936614 83.05000000000004 283.7821605936614 L83.05000000000004 42.49557892853073" stroke-width="3.0" stroke-linejoin="round" stroke="#cccccc"/><g transform="translate(61.28750000000008 238.97500000000008)"><path fill="url(#id12)" d="M287.525 32.54999999999996 L0.0 32.54999999999996 L0.0 0.0 L287.525 0.0 L287.525 32.54999999999996z" stroke-width="1.0" stroke-linejoin="round" stroke="#8856a1"/><g transform="translate(1.0 1.0)"><defs><clipPath id="id13"><path d="M0 0 L285.52499999999986 0 L285.52499999999986 30.549999999999898 L0 30.549999999999898z"/></clipPath></defs><text font-size="16" clip-path="url(#id13)" text-decoration="none" fill="#000000" font-family="Arial,Arial" font-style="normal" font-weight="normal"><tspan x="103.5" xml:space="preserve" y="20.91670150756831" textLength="78.0">example.jp</tspan></text></g></g></g></svg>