<?xml version="1.0" encoding="utf-8"?>
<!-- Generator: Adobe Illustrator 21.1.0, SVG Export Plug-In . SVG Version: 6.00 Build 0)  -->
<svg version="1.1" id="レイヤー_1" xmlns="http://www.w3.org/2000/svg" xmlns:xlink="http://www.w3.org/1999/xlink" x="0px"
	 y="0px" viewBox="0 0 1804 213" style="enable-background:new 0 0 1804 213;" xml:space="preserve">
<style type="text/css">
	.st0{fill:#38393C;}
	.st1{fill:#3C6E9B;}
</style>
<g>
	<path class="st0" d="M1014.7,113.4c0,1.1,0.9,2,2,2h14.5c1.1,0,2-0.9,2-2V86.1c0-1.1-0.9-2-2-2h-14.5c-1.1,0-2,0.9-2,2V113.4z"/>
	<path class="st0" d="M1041.2,113.4c0,1.1,0.9,2,2,2h14.5c1.1,0,2-0.9,2-2V86.1c0-1.1-0.9-2-2-2h-14.5c-1.1,0-2,0.9-2,2V113.4z"/>
	<path class="st0" d="M1060.3,164.2c-0.1,0.7,0.5,1.4,1.2,1.4h25.2c0.8,0,1.4-0.6,1.5-1.4l19.4-75.7c0.1-0.7-0.5-1.4-1.2-1.4h-25.2
		c-0.8,0-1.4,0.6-1.5,1.4L1060.3,164.2z"/>
	<path class="st0" d="M1283.8,57.4c-1.2,0-2.2,1-2.2,2.2v19.8c0,1.2,1,2.2,2.2,2.2h75.8c1.2,0,2,1,1.7,2.2l-19.4,79.8
		c-0.3,1.2,0.5,2.2,1.7,2.2h22.1c1.2,0,2.5-1,2.8-2.2l25.3-104c0.3-1.2-0.5-2.2-1.7-2.2H1283.8z"/>
	<path class="st0" d="M1773.7,44.1h-14.4c-1,0-1.9,0.9-1.9,1.9v27.9c0,1,0.9,1.9,1.9,1.9h14.4c1,0,1.9-0.9,1.9-1.9V46
		C1775.6,44.9,1774.7,44.1,1773.7,44.1"/>
	<path class="st0" d="M1801.6,44.1h-14.4c-1,0-1.9,0.9-1.9,1.9v27.9c0,1,0.9,1.9,1.9,1.9h14.4c1,0,1.9-0.9,1.9-1.9V46
		C1803.5,44.9,1802.6,44.1,1801.6,44.1"/>
	<path class="st0" d="M1719.9,57.4h-4.5h-50.3h-4.5h-17.3h-3.6c-0.7,0-1.6,1-1.9,2.2l-17.9,68.4c-0.3,1.2,0.4,2.2,1.7,2.2h20.2
		c1.2,0,2.5-1,2.8-2.2l11.4-44.1c0.3-1.2,1.6-2.2,2.8-2.2h50.7c1.2,0,2,1,1.7,2.2l-19,79.8c-0.3,1.2,0.5,2.2,1.7,2.2h22.1
		c1.2,0,2.5-1,2.7-2.2l24.8-104c0.3-1.2-0.1-2.2-0.8-2.2h-3.5H1719.9z"/>
	<path class="st0" d="M1225.7,57.4h-4.5H1171h-4.5h-17.3h-3.6c-0.7,0-1.6,1-1.9,2.2l-17.9,68.4c-0.3,1.2,0.4,2.2,1.7,2.2h20.2
		c1.2,0,2.5-1,2.8-2.2l11.4-44.1c0.3-1.2,1.6-2.2,2.8-2.2h50.7c1.2,0,2,1,1.7,2.2l-19,79.8c-0.3,1.2,0.5,2.2,1.7,2.2h22.1
		c1.2,0,2.5-1,2.7-2.2l24.8-104c0.3-1.2-0.1-2.2-0.8-2.2h-3.5H1225.7z"/>
	<path class="st0" d="M986.1,86.9H843.8c-0.8,0-1.4,0.6-1.4,1.4v23.2c0,0.8,0.6,1.4,1.4,1.4h64.1l-11.6,51.4
		c-0.1,0.7,0.5,1.4,1.2,1.4h25.2c0.8,0,1.4-0.6,1.5-1.4l11.6-51.4h50.3c0.8,0,1.4-0.6,1.4-1.4V88.3
		C987.4,87.6,986.8,86.9,986.1,86.9z"/>
	<path class="st0" d="M872.6,49.5c-0.8,0-1.4,0.6-1.4,1.4v20.3c0,0.8,0.6,1.4,1.4,1.4h81.8c0.8,0,1.4-0.6,1.4-1.4V50.9
		c0-0.8-0.6-1.4-1.4-1.4H872.6z"/>
	<path class="st0" d="M612.7,162.6c-0.1,1,0.7,1.9,1.8,1.9h21.2c1,0,2-0.9,2-1.9l3.6-48.6c0.1-1-0.7-1.9-1.8-1.9h-21.2
		c-1,0-2,0.9-2,1.9L612.7,162.6z"/>
	<path class="st0" d="M758,88.1c1,0,1.9-0.9,1.9-1.9V65.7c0-1-0.9-1.9-1.9-1.9h-56.7c-1,0-1.9-0.9-1.9-1.9V47.6c0-1-0.9-1.9-1.9-1.9
		h-20.4c-1,0-1.9,0.9-1.9,1.9V62c0,1-0.9,1.9-1.9,1.9H617c-1,0-1.9,0.9-1.9,1.9v20.4c0,1,0.9,1.9,1.9,1.9h56.3c1,0,1.9,0.9,1.9,1.9
		v72.6c0,1,0.9,1.9,1.9,1.9h20.4c1,0,1.9-0.9,1.9-1.9V90c0-1,0.9-1.9,1.9-1.9H758z"/>
	<path class="st0" d="M771.8,73.9c0,1,0.9,1.9,1.9,1.9h14.4c1,0,1.9-0.9,1.9-1.9V46c0-1-0.9-1.9-1.9-1.9h-14.4c-1,0-1.9,0.9-1.9,1.9
		V73.9z"/>
	<path class="st0" d="M799.7,73.9c0,1,0.9,1.9,1.9,1.9H816c1,0,1.9-0.9,1.9-1.9V46c0-1-0.9-1.9-1.9-1.9h-14.4c-1,0-1.9,0.9-1.9,1.9
		V73.9z"/>
	<path class="st0" d="M211.3,128.7c-0.5,0.5-0.5,1.3,0,1.8l15.3,15.3c0.5,0.5,1.3,0.5,1.8,0L284,90.3c0.5-0.5,1.3-0.5,1.8,0
		l72.5,72.6c0.5,0.5,1.3,0.5,1.8,0l15.3-15.3c0.5-0.5,0.5-1.3,0-1.8l-89.6-89.8c-0.5-0.5-1.3-0.5-1.8,0L211.3,128.7z"/>
	<path class="st0" d="M362.8,79.9c9.9,0,17.9-8,17.9-17.9s-8-17.9-17.9-17.9c-9.9,0-17.9,8-17.9,17.9S353,79.9,362.8,79.9"/>
	<path class="st0" d="M416.7,163.2c-0.1,0.7,0.4,1.3,1.1,1.3h23.5c0.7,0,1.3-0.6,1.4-1.3l12.7-105.8c0.1-0.7-0.4-1.3-1.1-1.3h-23.5
		c-0.7,0-1.3,0.6-1.4,1.3L416.7,163.2z"/>
	<path class="st0" d="M1592.1,56.2h-19.3h-4.2h-65.7H1491h-11.7c-0.7,0-1.3,0.6-1.4,1.3l-12.7,105.8c-0.1,0.7,0.4,1.3,1.1,1.3h19.6
		h3.9h65.7h12.2h11.3c0.7,0,1.3-0.6,1.4-1.3l12.7-105.8C1593.3,56.8,1592.8,56.2,1592.1,56.2z M1557.4,138.6h-63.2l6.8-56.5h63.2
		L1557.4,138.6z"/>
	<path class="st0" d="M512,56.2c-0.7,0-1.2,0.6-1.1,1.3l12.8,105.8c0.1,0.7,0.7,1.3,1.4,1.3h23.5c0.7,0,1.2-0.6,1.1-1.3L536.9,57.5
		c-0.1-0.7-0.7-1.3-1.4-1.3H512z"/>
	<path class="st0" d="M571.4,44.1c-9.9,0-17.9,8-17.9,17.9s8,17.9,17.9,17.9c9.9,0,17.9-8,17.9-17.9S581.3,44.1,571.4,44.1"/>
	<path class="st0" d="M762.2,162.6c0.1,1-0.7,1.9-1.8,1.9h-21.2c-1,0-2-0.9-2-1.9l-3.6-48.6c-0.1-1,0.7-1.9,1.8-1.9h21.2
		c1,0,2,0.9,2,1.9L762.2,162.6z"/>
	<path class="st0" d="M1425.4,44.1H1411c-1,0-1.9,0.9-1.9,1.9v27.9c0,1,0.9,1.9,1.9,1.9h14.4c1,0,1.9-0.9,1.9-1.9V46
		C1427.3,44.9,1426.4,44.1,1425.4,44.1"/>
	<path class="st0" d="M1453.3,44.1h-14.4c-1,0-1.9,0.9-1.9,1.9v27.9c0,1,0.9,1.9,1.9,1.9h14.4c1,0,1.9-0.9,1.9-1.9V46
		C1455.2,44.9,1454.3,44.1,1453.3,44.1"/>
</g>
<path class="st1" d="M84.2,209.6c7.5-18.4,16.9-39.6,16.9-39.6c1.1-2.6,3.2-4.6,5.9-5.3c35.9-10.2,61-43.4,61-80.7
	c0-46.3-37.6-83.9-83.9-83.9S0.3,37.8,0.3,84c0,37.4,25.1,70.6,61,80.7c2.7,0.8,4.9,2.7,5.9,5.3C67.3,170.1,76.7,191.2,84.2,209.6z"
	/>
</svg>
