<svg viewBox="0 0 1429.92 96" xmlns="http://www.w3.org/2000/svg"><path d="m156.55 74.97h4.25c.21 0 .48-.15.59-.34l17.57-28.77 9.56 32.91c.06.22.28.38.5.38h18.45c.21 0 .34-.16.27-.36l-19.45-61.59a.565.565 0 0 0 -.51-.37h-6.93c-.21 0-.49.14-.6.34l-23.69 36.72-23.69-36.72a.798.798 0 0 0 -.61-.34h-6.93a.58.58 0 0 0 -.51.37l-19.45 61.59c-.07.2.06.36.28.36h18.44c.22 0 .44-.16.5-.38l9.56-32.91 17.57 28.77c.11.19.37.34.59.34h4.25zm-50.34-30.67a.396.396 0 0 0 -.39-.32h-52.53c-2.78 0-5.03 2.26-5.03 5.04s2.25 5.03 5.03 5.03h31.22c-3.72 9.82-16.3 17.04-31.22 17.04-17.87 0-32.34-10.34-32.34-23.09s14.47-23.1 32.34-23.1c9.76 0 18.5 3.09 24.43 7.97.02.01.04.03.06.05.06.04.14.05.22.05h21.47a.4.4 0 0 0 .4-.39c0-.09-.03-.17-.09-.24-.01-.03-.03-.03-.03-.04-9.14-9.75-26.51-16.31-46.44-16.31-29.45.01-53.31 14.34-53.31 32.01s23.86 32 53.29 32 53.28-14.32 53.28-32c0-1.25-.12-2.5-.35-3.7m153.6-28.3c-29.42 0-53.27 14.33-53.27 32s23.85 32 53.27 32 53.29-14.32 53.29-32-23.86-32-53.29-32m0 55.09c-17.85 0-32.33-10.34-32.33-23.09s14.48-23.1 32.33-23.1 32.35 10.35 32.35 23.1-14.49 23.09-32.35 23.09" fill="#005bac"/><path d="m537.73 78.16c-.04.54.37.99.92.99h11.13c.54 0 1.03-.45 1.07-.99l1.91-25.48a.912.912 0 0 0 -.92-.99h-11.12c-.55 0-1.03.45-1.07.99l-1.91 25.48zm64.4-26.47c-.55 0-.96.45-.92.99l1.93 25.48c.04.55.52.99 1.07.99h11.13c.55 0 1.59-.45 1.55-.99l-2.56-25.48c-.04-.54-.52-.99-1.07-.99h-11.12z" fill="#393c41"/><path d="m613.95 39.07c.55 0 1-.45 1-1v-10.71c0-.55-.45-1-1-1h-29.75a1 1 0 0 1 -1-.99v-7.55a1 1 0 0 0 -.99-1h-10.71c-.55 0-.99.45-.99 1v7.55c0 .55-.45.99-1 .99h-29.54c-.55 0-1 .45-1 1v10.71c0 .55.45 1 1 1h29.54a1 1 0 0 1 1 .99v38.1a1 1 0 0 0 .99 1h10.71c.55 0 .99-.45.99-1v-38.1c0-.55.44-.99 1-.99zm-284.35 21.32c-.26.26-.26.68 0 .95l8.03 8.03c.26.26.69.26.95 0l29.11-29.11c.26-.26.69-.26.95 0l38.02 38.09c.26.26.68.26.95 0l8.03-8.03c.26-.26.26-.69 0-.95l-46.99-47.08a.676.676 0 0 0 -.95 0zm107.26 18.1c-.05.37.22.67.59.67h12.33c.37 0 .71-.3.75-.67l6.67-55.47a.58.58 0 0 0 -.59-.67h-12.34c-.37 0-.71.3-.75.67l-6.67 55.47zm49.97-56.13c-.37 0-.63.3-.59.67l6.73 55.47c.04.36.38.67.75.67h12.33c.37 0 .64-.3.59-.67l-6.73-55.47a.782.782 0 0 0 -.75-.67h-12.34z" fill="#393c41"/><path d="m622.16 16h7.54c.55 0 .99.44.99.99v14.66c0 .55-.44.99-.99.99h-7.54c-.55 0-.99-.45-.99-.99v-14.66c0-.55.45-.99.99-.99zm14.64 0h7.55c.55 0 .99.45.99.99v14.66c0 .55-.44.99-.99.99h-7.55c-.55 0-1-.45-1-1v-14.66c0-.55.45-.99.99-.99zm-229.23 18.76a9.38 9.38 0 1 0 -.001-18.761 9.38 9.38 0 0 0 .001 18.761m110.45-18.76a9.38 9.38 0 1 0 .001 18.761 9.38 9.38 0 0 0 -.001-18.761" fill="#1f7acc"/><g fill="#393c41"><path d="m693 0h1v96h-1z"/><path d="m764.15 21.89h17.5c11.81 0 20.88 4.1 20.88 16.71s-9.15 17.64-20.59 17.64h-7.13v18.94h-10.66zm17.07 25.92c7.34 0 10.87-3.1 10.87-9.22s-3.89-8.28-11.23-8.28h-6.05v17.5zm25.2 7.27c0-13.11 9.14-21.24 18.79-21.24 11.09 0 16.85 8.14 16.85 19.3 0 1.94-.22 3.89-.5 4.82h-24.84c.86 6.62 5.18 10.08 11.16 10.08 3.31 0 6.19-1.01 9.07-2.81l3.6 6.48c-3.96 2.74-9.07 4.46-14.11 4.46-11.23 0-20.02-7.85-20.02-21.1zm26.57-4.1c0-5.47-2.45-8.93-7.63-8.93-4.25 0-7.99 3.02-8.78 8.93h16.42zm16.57-16.13h8.64l.72 4.18h.29c3.38-2.88 7.56-5.18 11.88-5.18 9.94 0 15.84 8.14 15.84 20.52 0 13.83-8.28 21.82-17.14 21.82-3.53 0-6.91-1.58-10.01-4.39l.29 6.62v12.24h-10.51zm26.5 19.66c0-7.7-2.45-11.95-7.99-11.95-2.74 0-5.18 1.37-7.99 4.18v17.71c2.59 2.23 5.18 3.02 7.34 3.02 4.9 0 8.64-4.18 8.64-12.96zm15.96 9.72c0-8.64 6.98-13.18 23.19-14.91-.14-3.96-1.87-6.98-6.84-6.98-3.74 0-7.34 1.66-11.09 3.82l-3.82-6.98c4.75-2.95 10.51-5.33 16.85-5.33 10.22 0 15.48 6.12 15.48 17.79v23.55h-8.64l-.79-4.32h-.22c-3.53 3.02-7.56 5.33-12.17 5.33-7.2 0-11.95-5.11-11.95-11.95zm23.19-.29v-8.14c-9.79 1.3-13.11 3.96-13.11 7.56 0 3.17 2.23 4.54 5.33 4.54s5.26-1.44 7.78-3.96zm29.36 6.99h-.22l-.94 4.25h-8.28v-57.47h10.51v14.47l-.22 6.48c3.17-2.88 7.2-4.83 11.16-4.83 9.94 0 15.91 8.14 15.91 20.45 0 13.9-8.28 21.89-17.14 21.89-3.6 0-7.49-1.87-10.8-5.26zm17.07-16.42c0-7.7-2.45-11.95-7.99-11.95-2.74 0-5.18 1.37-7.99 4.18v17.71c2.52 2.23 5.18 3.02 7.34 3.02 4.9 0 8.64-4.18 8.64-12.96zm16.14.57c0-13.46 9.29-21.24 19.37-21.24s19.37 7.78 19.37 21.24-9.29 21.1-19.37 21.1-19.37-7.78-19.37-21.1zm27.94 0c0-7.63-3.1-12.6-8.57-12.6s-8.57 4.97-8.57 12.6 3.1 12.46 8.57 12.46 8.57-4.9 8.57-12.46zm47.44-24.33h-14.98v-8.86h40.76v8.86h-15.12v44.43h-10.66zm25.13 24.33c0-13.11 9.15-21.24 18.79-21.24 11.09 0 16.85 8.14 16.85 19.3 0 1.94-.22 3.89-.5 4.82h-24.84c.86 6.62 5.18 10.08 11.16 10.08 3.31 0 6.19-1.01 9.07-2.81l3.6 6.48c-3.96 2.74-9.07 4.46-14.11 4.46-11.23 0-20.02-7.85-20.02-21.1zm26.57-4.1c0-5.47-2.45-8.93-7.63-8.93-4.25 0-7.99 3.02-8.78 8.93h16.42zm15.91 4.1c0-13.46 9.65-21.24 20.59-21.24 4.97 0 8.79 1.94 11.74 4.46l-5.04 6.84c-2.02-1.73-3.89-2.66-6.19-2.66-6.12 0-10.3 4.97-10.3 12.6s4.18 12.46 10.01 12.46c2.88 0 5.62-1.37 7.85-3.24l4.18 6.98c-3.82 3.38-8.71 4.9-13.18 4.9-11.16 0-19.66-7.78-19.66-21.1zm40.39-37.37h10.51v14.47l-.43 7.56c3.24-3.02 7.2-5.91 12.67-5.91 8.71 0 12.46 6.05 12.46 16.2v25.13h-10.58v-23.83c0-6.19-1.73-8.42-5.69-8.42-3.31 0-5.4 1.58-8.42 4.54v27.72h-10.51v-57.46zm63.29 4.18h17.5c11.81 0 20.88 4.1 20.88 16.71s-9.14 17.64-20.59 17.64h-7.13v18.94h-10.66zm17.07 25.92c7.34 0 10.87-3.1 10.87-9.22s-3.89-8.28-11.23-8.28h-6.05v17.5zm22.67 7.27c0-13.46 9.29-21.24 19.37-21.24s19.37 7.78 19.37 21.24-9.29 21.1-19.37 21.1-19.37-7.78-19.37-21.1zm27.94 0c0-7.63-3.1-12.6-8.57-12.6s-8.57 4.97-8.57 12.6 3.1 12.46 8.57 12.46 8.57-4.9 8.57-12.46zm18.57-20.23h8.64l.72 7.13h.29c2.95-5.26 7.27-8.14 11.45-8.14 2.23 0 3.53.36 4.75.86l-1.87 9.15c-1.37-.43-2.52-.65-4.18-.65-3.17 0-6.98 2.09-9.29 7.92v24.05h-10.51zm34.28 26.21v-17.86h-5.69v-7.85l6.19-.5 1.22-10.8h8.86v10.8h9.94v8.35h-9.94v17.86c0 4.61 1.87 6.77 5.47 6.77 1.3 0 2.88-.43 3.96-.86l1.73 7.71c-2.16.72-4.97 1.51-8.5 1.51-9.58 0-13.25-6.05-13.25-15.12zm26.56 3.17c0-8.64 6.99-13.18 23.19-14.91-.14-3.96-1.87-6.98-6.84-6.98-3.74 0-7.34 1.66-11.09 3.82l-3.82-6.98c4.75-2.95 10.51-5.33 16.85-5.33 10.22 0 15.48 6.12 15.48 17.79v23.55h-8.64l-.79-4.32h-.22c-3.53 3.02-7.56 5.33-12.17 5.33-7.2 0-11.95-5.11-11.95-11.95zm23.19-.29v-8.14c-9.79 1.3-13.11 3.96-13.11 7.56 0 3.17 2.23 4.54 5.33 4.54s5.26-1.44 7.78-3.96zm19.78-.07v-46.16h10.51v46.66c0 2.38 1.15 3.17 2.16 3.17.43 0 .72 0 1.44-.14l1.3 7.85c-1.22.5-3.02.94-5.47.94-7.34 0-9.94-4.82-9.94-12.31z"/></g></svg>