<svg xmlns="http://www.w3.org/2000/svg" viewBox="0 0 829.45 134.87"><path d="M53.61,133.94a1.5,1.5,0,0,0,2.78,0c4.62-11.12,9.72-22.55,9.72-22.55A6,6,0,0,1,70,107.9a55,55,0,1,0-30,0,6,6,0,0,1,3.9,3.49S49,122.82,53.61,133.94Z" style="fill:#1f7acc"/><path d="M140.4,53.57c3.68-3.68,9.92-11.52,15.36-18.08,4.8-5.68,9.12-6.24,15.68-.72A208.21,208.21,0,0,1,187.76,51c5.36,5.84,13.92,15,19.68,21.6l-8.56,9.28c-5.12-6.56-12.4-15.44-17.12-21C176.8,55,170,47.57,167,45.09c-2.8-2.4-4.16-2.4-6.48.48-3.12,4-8.88,11.92-12.16,16.32-1.84,2.48-3.76,5.36-5.12,7.44l-9.44-9.68C136.24,57.65,138,56,140.4,53.57ZM193.84,23a10.36,10.36,0,1,1,0,20.72,10.36,10.36,0,0,1,0-20.72Zm0,15.44a5.09,5.09,0,0,0,5.12-5,5.16,5.16,0,0,0-5.12-5.12,5.09,5.09,0,0,0-5,5.12A5,5,0,0,0,193.84,38.45Z" style="fill:#393c41"/><path d="M234.8,27.09l11.68,2.4c-.72,2.32-1.6,6.24-1.92,8a200,200,0,0,1-6.8,24.08,110,110,0,0,1-11.84,22.88l-11.2-4.72A96.39,96.39,0,0,0,227.2,57.49,115.27,115.27,0,0,0,234.8,27.09Zm20.32,2.4,10.64-3.44c3.28,6.24,8.8,18.48,11.76,26.24,2.88,7.2,7.12,20,9.36,27.92L275,84.05a247.19,247.19,0,0,0-8.32-28.24A224.1,224.1,0,0,0,255.12,29.49Zm25.44-14.24a9.56,9.56,0,1,1-9.6,9.6A9.63,9.63,0,0,1,280.56,15.25Zm0,14.16a4.6,4.6,0,1,0-4.64-4.56A4.63,4.63,0,0,0,280.56,29.41Z" style="fill:#393c41"/><path d="M321.76,53.65A125.56,125.56,0,0,1,306.32,76l-8.64-5.92a83.37,83.37,0,0,0,15-20.64Zm18.08-11.36v37.2c0,4.64-2.64,7.52-8.32,7.52a115.51,115.51,0,0,1-13-.72l-1-9.92a55.33,55.33,0,0,0,8.88,1c2.08,0,2.88-.8,3-2.88.08-3,.08-28.32.08-32.08v-.08H309.12c-2.4,0-5.52.08-7.76.32V32a62.15,62.15,0,0,0,7.76.64h20.32v-6.4a41.44,41.44,0,0,0-.72-7h11.84a64.85,64.85,0,0,0-.72,7v6.4h18.64a62.34,62.34,0,0,0,7.84-.56V42.53c-2.48-.16-5.6-.24-7.76-.24Zm16.32,6.88a186,186,0,0,1,13.68,21l-9.44,5.12c-3.44-6.88-9.12-16.56-13-21.44Zm-.8-18.32a87,87,0,0,0-6-10.56l6.32-2.64a101.08,101.08,0,0,1,6.08,10.48ZM366,28.53A77.88,77.88,0,0,0,359.76,18l6.32-2.56a90.91,90.91,0,0,1,6.24,10.32Z" style="fill:#393c41"/><path d="M438.16,42a61.56,61.56,0,0,0,7.28-.48v10.4c-2-.16-5-.24-7.28-.24H418.88c-.48,8.24-2.24,15-5.12,20.56s-9,11.76-16.08,15.36l-9.36-6.8A33.23,33.23,0,0,0,402.8,69.33c3.28-5,4.64-11,5-17.68h-22c-2.32,0-5.44.16-7.68.32V41.49c2.4.24,5.2.48,7.68.48ZM396,31c-2.8,0-6.16.16-8.56.32V21a59.61,59.61,0,0,0,8.48.56h32.16a62.67,62.67,0,0,0,8.64-.56V31.33c-2.8-.16-5.84-.32-8.64-.32Z" style="fill:#393c41"/><path d="M472.81,57.25l-9.76,3.68c-1.37-4.32-5.37-15-7.29-18.48L465.37,39C467.37,43.09,471.21,52.77,472.81,57.25Zm40.64-16.64c-1,2.56-1.44,4.24-1.92,5.84-2.08,8.08-5.44,16.4-10.88,23.44a62.44,62.44,0,0,1-26.81,19.84l-8.39-8.56c8.79-2.32,19.92-8.4,26.56-16.72,5.44-6.8,9.28-17.44,10.16-27.44Zm-23,11.68-9.59,3.36a134.75,134.75,0,0,0-6.49-17.76l9.53-3.12C485.45,38.21,489.37,48.61,490.48,52.29Z" style="fill:#393c41"/><path d="M589.77,32.61a32,32,0,0,0-2.64,5.76,83.47,83.47,0,0,1-13.92,26.72c-7.6,9.28-17.28,16.56-32.32,22.56l-9.44-8.48c16.4-4.88,25.28-11.84,32.24-19.76,5.44-6.24,10.08-15.84,11.36-21.84H552.57a91.19,91.19,0,0,1-20.16,19.36l-9-6.64a70.44,70.44,0,0,0,25-25.76,38.49,38.49,0,0,0,3.6-8.4L563.69,20c-1.92,2.8-3.92,6.4-4.88,8.16l-.24.4h16.08a25.65,25.65,0,0,0,7-1Z" style="fill:#393c41"/><path d="M655.45,26.77l5,3.28a40.4,40.4,0,0,0-1.76,5.52c-1.84,7.84-5.28,20.24-12,29.12-7.2,9.6-17.84,17.52-32.16,22.08l-8.72-9.52c15.92-3.76,24.88-10.64,31.36-18.8,5.28-6.64,8.32-15.68,9.44-22.56H609.37c-3.68,0-7.44.16-9.52.32V24.93a89.08,89.08,0,0,0,9.52.64h37a33.56,33.56,0,0,0,3.76-.16c-1.36-2.64-3-5.44-4.48-7.76l6.56-2.72a105.51,105.51,0,0,1,6.16,10.56Zm8-13.84c2,2.88,4.88,7.76,6.4,10.56l-6.64,2.88a94.83,94.83,0,0,0-6.4-10.72Z" style="fill:#393c41"/><path d="M738.81,72.61c0,3.12.16,10.8.16,11.12h-11l.08-4.4H689.45l.08,4.4h-11c.08-.4.25-7.36.25-11.2V33.41c0-2.24,0-5.52-.17-7.76,3.29.08,6.33.16,8.49.16h44c2,0,5,0,7.92-.16-.16,2.4-.16,5.36-.16,7.76ZM689.45,36v33.2h38.64V36Z" style="fill:#393c41"/><path d="M813.93,30.29l6.8,4.16a33.9,33.9,0,0,0-2.64,5.68,80.74,80.74,0,0,1-14,26.72c-7.6,9.36-17.2,16.64-32.24,22.64L762.41,81c16.32-4.88,25.2-11.84,32.24-19.84C800.09,55,804.73,45.33,806,39.41H783.45a87.83,87.83,0,0,1-20.16,19.36l-9-6.72a68.45,68.45,0,0,0,25-25.68,35,35,0,0,0,3.6-8.4l11.76,3.84c-1.92,2.8-4,6.4-5,8.16l-.24.4h16.08a25.2,25.2,0,0,0,7-1l.56.32a92.77,92.77,0,0,0-5.84-10.32l6.32-2.56a117.14,117.14,0,0,1,6.32,11Zm9-17a114.22,114.22,0,0,1,6.48,10.88l-6.4,2.72a76.14,76.14,0,0,0-6.4-11Z" style="fill:#393c41"/><path d="M142.38,113.06h-4.59v-2.71h12.49v2.71h-4.63v13.62h-3.27Z" style="fill:#393c41"/><path d="M151.68,120.52c0-4,2.8-6.51,5.76-6.51,3.4,0,5.17,2.5,5.17,5.92a6,6,0,0,1-.16,1.48h-7.62a3.25,3.25,0,0,0,3.43,3.09,5.11,5.11,0,0,0,2.78-.86l1.1,2a7.78,7.78,0,0,1-4.33,1.37C154.37,127,151.68,124.59,151.68,120.52Zm8.14-1.25c0-1.68-.75-2.74-2.34-2.74a2.78,2.78,0,0,0-2.69,2.74Z" style="fill:#767b85"/><path d="M164.29,120.52A6.17,6.17,0,0,1,170.6,114a5.4,5.4,0,0,1,3.6,1.37l-1.54,2.1a2.84,2.84,0,0,0-1.9-.82c-1.88,0-3.16,1.52-3.16,3.86s1.28,3.82,3.07,3.82a3.84,3.84,0,0,0,2.4-1l1.29,2.14a6.14,6.14,0,0,1-4.05,1.5C166.89,127,164.29,124.61,164.29,120.52Z" style="fill:#767b85"/><path d="M176.48,109.06h3.22v4.44l-.13,2.32a5.61,5.61,0,0,1,3.88-1.81c2.68,0,3.82,1.85,3.82,5v7.7H184v-7.3c0-1.9-.53-2.59-1.75-2.59a3.58,3.58,0,0,0-2.58,1.39v8.5h-3.22Z" style="fill:#767b85"/><path d="M190.39,114.32H193l.22,1.63h.09a5.69,5.69,0,0,1,4-1.94c2.67,0,3.82,1.85,3.82,5v7.7h-3.25v-7.3c0-1.9-.53-2.59-1.74-2.59a3.58,3.58,0,0,0-2.59,1.39v8.5h-3.22Z" style="fill:#767b85"/><path d="M203.55,120.52c0-4.13,2.85-6.51,5.94-6.51s5.94,2.38,5.94,6.51-2.85,6.47-5.94,6.47S203.55,124.61,203.55,120.52Zm8.57,0c0-2.34-1-3.86-2.63-3.86s-2.62,1.52-2.62,3.86.95,3.82,2.62,3.82S212.12,122.84,212.12,120.52Z" style="fill:#767b85"/><path d="M217.93,123.22V109.06h3.22v14.31c0,.73.36,1,.67,1a2,2,0,0,0,.44,0l.4,2.41A4.57,4.57,0,0,1,221,127C218.73,127,217.93,125.51,217.93,123.22Z" style="fill:#767b85"/><path d="M223.89,120.52c0-4.13,2.85-6.51,5.94-6.51s5.94,2.38,5.94,6.51-2.85,6.47-5.94,6.47S223.89,124.61,223.89,120.52Zm8.57,0c0-2.34-1-3.86-2.63-3.86s-2.63,1.52-2.63,3.86,1,3.82,2.63,3.82S232.46,122.84,232.46,120.52Z" style="fill:#767b85"/><path d="M237.45,128.87a3,3,0,0,1,1.77-2.56v-.11a2.35,2.35,0,0,1-1.13-2.08,3.06,3.06,0,0,1,1.37-2.32v-.08a4.09,4.09,0,0,1-1.63-3.23c0-2.91,2.36-4.48,5-4.48a5.68,5.68,0,0,1,1.85.31h4.46v2.38H247a3.07,3.07,0,0,1,.58,1.88c0,2.78-2.12,4.2-4.77,4.2a5.15,5.15,0,0,1-1.59-.29,1.24,1.24,0,0,0-.53,1.06c0,.66.49,1,1.94,1h2.1c3,0,4.59.93,4.59,3.1,0,2.49-2.58,4.39-6.71,4.39C239.71,132.05,237.45,131.06,237.45,128.87Zm8.79-.66c0-.89-.73-1.11-2.05-1.11h-1.5a7.17,7.17,0,0,1-1.73-.17,1.84,1.84,0,0,0-.81,1.43c0,1,1.15,1.64,3,1.64S246.24,129.18,246.24,128.21Zm-1.5-9.72c0-1.46-.82-2.27-1.92-2.27s-1.94.81-1.94,2.27a2,2,0,0,0,1.94,2.28C243.9,120.77,244.74,120,244.74,118.49Z" style="fill:#767b85"/><path d="M250.62,131.41l.59-2.5a3.21,3.21,0,0,0,.86.16,2.37,2.37,0,0,0,2.32-1.88l.22-.73-4.81-12.14h3.27l2,5.74c.38,1.1.69,2.3,1,3.49h.11c.29-1.15.6-2.34.88-3.49l1.7-5.74h3.12l-4.4,12.74c-1.08,2.91-2.4,4.59-5.16,4.59A5.34,5.34,0,0,1,250.62,131.41Z" style="fill:#767b85"/><path d="M262.23,129.62c1.7-.64,2.65-1.74,2.65-3h-.2a1.91,1.91,0,0,1-2-1.93,2,2,0,0,1,2.1-1.92c1.5,0,2.34,1.2,2.34,3.2a5.58,5.58,0,0,1-4.17,5.44Z" style="fill:#767b85"/><path d="M274.82,110.35h10v2.71h-6.75v3.78h5.74v2.73h-5.74V124h7v2.73H274.82Z" style="fill:#393c41"/><path d="M287.92,114.32h2.64l.23,1.63h.08a5.71,5.71,0,0,1,4-1.94c2.67,0,3.82,1.85,3.82,5v7.7h-3.24v-7.3c0-1.9-.53-2.59-1.75-2.59a3.58,3.58,0,0,0-2.58,1.39v8.5h-3.22Z" style="fill:#767b85"/><path d="M301,128.87a3,3,0,0,1,1.77-2.56v-.11a2.35,2.35,0,0,1-1.13-2.08A3.06,3.06,0,0,1,303,121.8v-.08a4.09,4.09,0,0,1-1.63-3.23c0-2.91,2.36-4.48,5-4.48a5.68,5.68,0,0,1,1.85.31h4.46v2.38h-2.12a3.07,3.07,0,0,1,.58,1.88c0,2.78-2.12,4.2-4.77,4.2a5.15,5.15,0,0,1-1.59-.29,1.24,1.24,0,0,0-.53,1.06c0,.66.49,1,1.94,1h2.1c3,0,4.59.93,4.59,3.1,0,2.49-2.58,4.39-6.71,4.39C303.29,132.05,301,131.06,301,128.87Zm8.79-.66c0-.89-.73-1.11-2.05-1.11h-1.5a7.17,7.17,0,0,1-1.73-.17,1.84,1.84,0,0,0-.81,1.43c0,1,1.15,1.64,3,1.64S309.82,129.18,309.82,128.21Zm-1.5-9.72c0-1.46-.82-2.27-1.92-2.27s-1.94.81-1.94,2.27a2,2,0,0,0,1.94,2.28C307.48,120.77,308.32,120,308.32,118.49Z" style="fill:#767b85"/><path d="M314.51,110.57a1.94,1.94,0,0,1,3.86,0,1.94,1.94,0,0,1-3.86,0Zm.3,3.75H318v12.36h-3.23Z" style="fill:#767b85"/><path d="M321.31,114.32H324l.22,1.63h.09a5.69,5.69,0,0,1,4-1.94c2.67,0,3.82,1.85,3.82,5v7.7h-3.25v-7.3c0-1.9-.53-2.59-1.75-2.59a3.58,3.58,0,0,0-2.58,1.39v8.5h-3.22Z" style="fill:#767b85"/><path d="M334.47,120.52c0-4,2.8-6.51,5.76-6.51,3.4,0,5.17,2.5,5.17,5.92a6.59,6.59,0,0,1-.15,1.48h-7.62a3.25,3.25,0,0,0,3.42,3.09,5.09,5.09,0,0,0,2.78-.86l1.11,2a7.83,7.83,0,0,1-4.33,1.37C337.16,127,334.47,124.59,334.47,120.52Zm8.15-1.25c0-1.68-.75-2.74-2.34-2.74a2.79,2.79,0,0,0-2.7,2.74Z" style="fill:#767b85"/><path d="M347.08,120.52c0-4,2.81-6.51,5.76-6.51,3.4,0,5.17,2.5,5.17,5.92a6.59,6.59,0,0,1-.15,1.48h-7.62a3.25,3.25,0,0,0,3.42,3.09,5.09,5.09,0,0,0,2.78-.86l1.11,2a7.8,7.8,0,0,1-4.33,1.37C349.77,127,347.08,124.59,347.08,120.52Zm8.15-1.25c0-1.68-.75-2.74-2.34-2.74a2.79,2.79,0,0,0-2.7,2.74Z" style="fill:#767b85"/><path d="M360.46,114.32h2.65l.22,2.19h.09a4.28,4.28,0,0,1,3.51-2.5,3.38,3.38,0,0,1,1.46.27l-.57,2.8a4,4,0,0,0-1.28-.2c-1,0-2.14.64-2.85,2.43v7.37h-3.23Z" style="fill:#767b85"/><path d="M369.56,110.57a1.94,1.94,0,1,1,1.95,1.76A1.81,1.81,0,0,1,369.56,110.57Zm.31,3.75h3.23v12.36h-3.23Z" style="fill:#767b85"/><path d="M376.36,114.32H379l.22,1.63h.09a5.71,5.71,0,0,1,4-1.94c2.67,0,3.82,1.85,3.82,5v7.7h-3.24v-7.3c0-1.9-.53-2.59-1.75-2.59a3.58,3.58,0,0,0-2.58,1.39v8.5h-3.23Z" style="fill:#767b85"/><path d="M389.48,128.87a3,3,0,0,1,1.77-2.56v-.11a2.35,2.35,0,0,1-1.13-2.08,3.06,3.06,0,0,1,1.37-2.32v-.08a4.09,4.09,0,0,1-1.63-3.23c0-2.91,2.36-4.48,5-4.48a5.68,5.68,0,0,1,1.85.31h4.46v2.38H399a3.07,3.07,0,0,1,.58,1.88c0,2.78-2.12,4.2-4.77,4.2a5.15,5.15,0,0,1-1.59-.29,1.24,1.24,0,0,0-.53,1.06c0,.66.49,1,1.94,1h2.1c3,0,4.59.93,4.59,3.1,0,2.49-2.58,4.39-6.71,4.39C391.74,132.05,389.48,131.06,389.48,128.87Zm8.79-.66c0-.89-.73-1.11-2-1.11h-1.5a7.17,7.17,0,0,1-1.73-.17,1.84,1.84,0,0,0-.81,1.43c0,1,1.15,1.64,3,1.64S398.27,129.18,398.27,128.21Zm-1.5-9.72c0-1.46-.82-2.27-1.92-2.27s-1.94.81-1.94,2.27a2,2,0,0,0,1.94,2.28C395.93,120.77,396.77,120,396.77,118.49Z" style="fill:#767b85"/><path d="M402.69,129.62c1.7-.64,2.65-1.74,2.65-3h-.2a1.91,1.91,0,0,1-2-1.93,2,2,0,0,1,2.1-1.92c1.5,0,2.34,1.2,2.34,3.2a5.59,5.59,0,0,1-4.18,5.44Z" style="fill:#767b85"/><path d="M414.46,118.58c0-5.39,3.47-8.54,7.6-8.54a6.68,6.68,0,0,1,4.79,2.09l-1.72,2.08a4.21,4.21,0,0,0-3-1.37c-2.47,0-4.32,2.12-4.32,5.63s1.67,5.7,4.26,5.7a4.57,4.57,0,0,0,3.38-1.62l1.72,2A6.63,6.63,0,0,1,422,127C417.82,127,414.46,124,414.46,118.58Z" style="fill:#393c41"/><path d="M429.3,114.32H432l.22,2.19h.09a4.28,4.28,0,0,1,3.51-2.5,3.41,3.41,0,0,1,1.46.27l-.58,2.8a4,4,0,0,0-1.28-.2c-1,0-2.14.64-2.84,2.43v7.37H429.3Z" style="fill:#767b85"/><path d="M437.94,120.52c0-4,2.8-6.51,5.76-6.51,3.4,0,5.17,2.5,5.17,5.92a6,6,0,0,1-.16,1.48h-7.62a3.25,3.25,0,0,0,3.43,3.09,5.11,5.11,0,0,0,2.78-.86l1.1,2a7.78,7.78,0,0,1-4.33,1.37C440.63,127,437.94,124.59,437.94,120.52Zm8.14-1.25c0-1.68-.75-2.74-2.34-2.74a2.78,2.78,0,0,0-2.69,2.74Z" style="fill:#767b85"/><path d="M450.7,123.33c0-2.65,2.14-4,7.11-4.57,0-1.22-.57-2.15-2.1-2.15a7,7,0,0,0-3.4,1.18l-1.17-2.15a10,10,0,0,1,5.17-1.63c3.13,0,4.75,1.88,4.75,5.45v7.22h-2.65l-.25-1.32h-.06a5.79,5.79,0,0,1-3.73,1.63A3.51,3.51,0,0,1,450.7,123.33Zm7.11-.09v-2.5c-3,.4-4,1.22-4,2.32s.69,1.39,1.64,1.39A3.28,3.28,0,0,0,457.81,123.24Z" style="fill:#767b85"/><path d="M464.61,122.36v-5.48h-1.74v-2.41l1.9-.15.38-3.31h2.71v3.31h3.05v2.56h-3.05v5.48c0,1.41.57,2.07,1.68,2.07a3.62,3.62,0,0,0,1.21-.26l.53,2.36a8,8,0,0,1-2.6.46C465.74,127,464.61,125.14,464.61,122.36Z" style="fill:#767b85"/><path d="M472.9,110.57a1.94,1.94,0,0,1,3.86,0,1.94,1.94,0,0,1-3.86,0Zm.31,3.75h3.22v12.36h-3.22Z" style="fill:#767b85"/><path d="M478.26,114.32h3.27l1.81,6.16c.31,1.21.66,2.49,1,3.75h.11c.31-1.26.66-2.54,1-3.75l1.81-6.16h3.11l-4.13,12.36h-3.75Z" style="fill:#767b85"/><path d="M491.43,120.52c0-4,2.8-6.51,5.76-6.51,3.4,0,5.17,2.5,5.17,5.92a6,6,0,0,1-.16,1.48h-7.62A3.25,3.25,0,0,0,498,124.5a5.14,5.14,0,0,0,2.78-.86l1.1,2a7.78,7.78,0,0,1-4.33,1.37C494.12,127,491.43,124.59,491.43,120.52Zm8.14-1.25c0-1.68-.75-2.74-2.34-2.74a2.78,2.78,0,0,0-2.69,2.74Z" style="fill:#767b85"/><path d="M504.23,129.62c1.7-.64,2.65-1.74,2.65-3h-.19a1.92,1.92,0,0,1-2-1.93,2,2,0,0,1,2.1-1.92c1.5,0,2.34,1.2,2.34,3.2a5.58,5.58,0,0,1-4.17,5.44Z" style="fill:#767b85"/><path d="M515.94,123.33c0-2.65,2.14-4,7.11-4.57,0-1.22-.58-2.15-2.1-2.15a6.93,6.93,0,0,0-3.4,1.18l-1.17-2.15a9.92,9.92,0,0,1,5.17-1.63c3.13,0,4.74,1.88,4.74,5.45v7.22h-2.64l-.25-1.32h-.06A5.82,5.82,0,0,1,519.6,127,3.51,3.51,0,0,1,515.94,123.33Zm7.11-.09v-2.5c-3,.4-4,1.22-4,2.32s.68,1.39,1.63,1.39A3.28,3.28,0,0,0,523.05,123.24Z" style="fill:#767b85"/><path d="M529.39,114.32H532l.22,1.63h.09a5.69,5.69,0,0,1,4-1.94c2.67,0,3.82,1.85,3.82,5v7.7h-3.25v-7.3c0-1.9-.53-2.59-1.75-2.59a3.58,3.58,0,0,0-2.58,1.39v8.5h-3.22Z" style="fill:#767b85"/><path d="M542.62,120.52c0-4,2.51-6.51,5.19-6.51a4.23,4.23,0,0,1,3.13,1.35l-.13-2v-4.35h3.24v17.62h-2.62l-.27-1.28h-.06a5.13,5.13,0,0,1-3.43,1.59C544.6,127,542.62,124.56,542.62,120.52Zm8.19,2.52v-5.43a3.26,3.26,0,0,0-2.3-.93c-1.39,0-2.56,1.33-2.56,3.8s.93,3.84,2.56,3.84A2.75,2.75,0,0,0,550.81,123Z" style="fill:#767b85"/><path d="M562.38,110.35h3.27v6.42h6.18v-6.42h3.25v16.33h-3.25v-7.06h-6.18v7.06h-3.27Z" style="fill:#393c41"/><path d="M578.48,122.05v-7.73h3.25v7.31c0,1.92.53,2.58,1.72,2.58a3,3,0,0,0,2.52-1.54v-8.35h3.24v12.36h-2.65l-.24-1.76h-.09a5,5,0,0,1-4,2.07C579.63,127,578.48,125.14,578.48,122.05Z" style="fill:#767b85"/><path d="M592.46,114.32h2.65l.22,1.66h.09a5.2,5.2,0,0,1,3.8-2,3.37,3.37,0,0,1,3.4,2.16c1.12-1.19,2.32-2.16,3.93-2.16,2.63,0,3.84,1.85,3.84,5v7.7h-3.25v-7.3c0-1.9-.55-2.59-1.72-2.59a3.64,3.64,0,0,0-2.38,1.39v8.5h-3.25v-7.3c0-1.9-.55-2.59-1.72-2.59a3.61,3.61,0,0,0-2.38,1.39v8.5h-3.23Z" style="fill:#767b85"/><path d="M612.91,123.33c0-2.65,2.14-4,7.11-4.57,0-1.22-.57-2.15-2.1-2.15a7,7,0,0,0-3.4,1.18l-1.17-2.15a10,10,0,0,1,5.17-1.63c3.14,0,4.75,1.88,4.75,5.45v7.22h-2.65l-.24-1.32h-.07a5.79,5.79,0,0,1-3.73,1.63A3.51,3.51,0,0,1,612.91,123.33Zm7.11-.09v-2.5c-3,.4-4,1.22-4,2.32s.69,1.39,1.64,1.39A3.28,3.28,0,0,0,620,123.24Z" style="fill:#767b85"/><path d="M626.36,114.32H629l.22,1.63h.09a5.69,5.69,0,0,1,4-1.94c2.67,0,3.82,1.85,3.82,5v7.7h-3.25v-7.3c0-1.9-.53-2.59-1.74-2.59a3.54,3.54,0,0,0-2.58,1.39v8.5h-3.23Z" style="fill:#767b85"/><path d="M639.64,118.74h6v2.31h-6Z" style="fill:#767b85"/><path d="M647.7,118.58c0-5.39,3.46-8.54,7.59-8.54a6.66,6.66,0,0,1,4.79,2.09l-1.72,2.08a4.21,4.21,0,0,0-3-1.37c-2.48,0-4.33,2.12-4.33,5.63s1.68,5.7,4.26,5.7a4.55,4.55,0,0,0,3.38-1.62l1.72,2a6.63,6.63,0,0,1-5.21,2.4C651.05,127,647.7,124,647.7,118.58Z" style="fill:#767b85"/><path d="M661.76,120.52c0-4,2.81-6.51,5.77-6.51,3.4,0,5.16,2.5,5.16,5.92a6,6,0,0,1-.15,1.48h-7.62a3.25,3.25,0,0,0,3.42,3.09,5.14,5.14,0,0,0,2.79-.86l1.1,2A7.78,7.78,0,0,1,667.9,127C664.46,127,661.76,124.59,661.76,120.52Zm8.15-1.25c0-1.68-.75-2.74-2.34-2.74a2.78,2.78,0,0,0-2.69,2.74Z" style="fill:#767b85"/><path d="M675.15,114.32h2.65L678,116h.09a5.67,5.67,0,0,1,4-1.94c2.67,0,3.82,1.85,3.82,5v7.7H682.7v-7.3c0-1.9-.53-2.59-1.75-2.59a3.58,3.58,0,0,0-2.58,1.39v8.5h-3.22Z" style="fill:#767b85"/><path d="M689.55,122.36v-5.48H687.8v-2.41l1.9-.15.38-3.31h2.71v3.31h3.05v2.56h-3.05v5.48c0,1.41.57,2.07,1.68,2.07a3.62,3.62,0,0,0,1.21-.26l.53,2.36a8,8,0,0,1-2.6.46C690.67,127,689.55,125.14,689.55,122.36Z" style="fill:#767b85"/><path d="M697.36,120.52c0-4,2.81-6.51,5.77-6.51,3.4,0,5.16,2.5,5.16,5.92a6,6,0,0,1-.15,1.48h-7.62a3.25,3.25,0,0,0,3.42,3.09,5.14,5.14,0,0,0,2.79-.86l1.1,2A7.8,7.8,0,0,1,703.5,127C700.06,127,697.36,124.59,697.36,120.52Zm8.15-1.25c0-1.68-.75-2.74-2.34-2.74a2.78,2.78,0,0,0-2.69,2.74Z" style="fill:#767b85"/><path d="M710.75,114.32h2.65l.22,2.19h.09a4.27,4.27,0,0,1,3.51-2.5,3.36,3.36,0,0,1,1.45.27l-.57,2.8a4,4,0,0,0-1.28-.2c-1,0-2.14.64-2.85,2.43v7.37h-3.22Z" style="fill:#767b85"/><path d="M719.38,120.52c0-4,2.81-6.51,5.77-6.51,3.4,0,5.16,2.5,5.16,5.92a6,6,0,0,1-.15,1.48h-7.62A3.25,3.25,0,0,0,726,124.5a5.09,5.09,0,0,0,2.78-.86l1.11,2a7.8,7.8,0,0,1-4.33,1.37C722.08,127,719.38,124.59,719.38,120.52Zm8.15-1.25c0-1.68-.75-2.74-2.34-2.74a2.78,2.78,0,0,0-2.69,2.74Z" style="fill:#767b85"/><path d="M732.06,120.52c0-4,2.52-6.51,5.19-6.51a4.23,4.23,0,0,1,3.13,1.35l-.13-2v-4.35h3.25v17.62h-2.63l-.27-1.28h-.06a5.11,5.11,0,0,1-3.43,1.59C734.05,127,732.06,124.56,732.06,120.52Zm8.19,2.52v-5.43a3.26,3.26,0,0,0-2.3-.93c-1.39,0-2.56,1.33-2.56,3.8s.93,3.84,2.56,3.84A2.75,2.75,0,0,0,740.25,123Z" style="fill:#767b85"/><path d="M751.82,110.35h4.49c5,0,8.08,2.58,8.08,8.1s-3.09,8.23-7.91,8.23h-4.66Zm4.29,13.71c3,0,4.94-1.64,4.94-5.61s-1.9-5.5-4.94-5.5h-1v11.11Z" style="fill:#767b85"/><path d="M766.33,120.52c0-4,2.81-6.51,5.77-6.51,3.4,0,5.16,2.5,5.16,5.92a6,6,0,0,1-.15,1.48h-7.62a3.25,3.25,0,0,0,3.42,3.09,5.09,5.09,0,0,0,2.78-.86l1.11,2a7.8,7.8,0,0,1-4.33,1.37C769,127,766.33,124.59,766.33,120.52Zm8.15-1.25c0-1.68-.75-2.74-2.34-2.74a2.78,2.78,0,0,0-2.69,2.74Z" style="fill:#767b85"/><path d="M778.55,125.25l1.48-2a5.35,5.35,0,0,0,3.31,1.34c1.23,0,1.79-.53,1.79-1.3,0-.93-1.28-1.35-2.59-1.85-1.56-.6-3.38-1.55-3.38-3.6,0-2.23,1.82-3.8,4.6-3.8a6.9,6.9,0,0,1,4.21,1.52l-1.45,2a4.78,4.78,0,0,0-2.67-1.06c-1.11,0-1.64.48-1.64,1.19,0,.91,1.22,1.24,2.52,1.72,1.63.62,3.44,1.44,3.44,3.73s-1.7,3.91-4.92,3.91A7.79,7.79,0,0,1,778.55,125.25Z" style="fill:#767b85"/><path d="M790.12,110.57a1.94,1.94,0,1,1,1.94,1.76A1.8,1.8,0,0,1,790.12,110.57Zm.31,3.75h3.22v12.36h-3.22Z" style="fill:#767b85"/><path d="M796.1,128.87a3,3,0,0,1,1.77-2.56v-.11a2.35,2.35,0,0,1-1.13-2.08,3.06,3.06,0,0,1,1.37-2.32v-.08a4.09,4.09,0,0,1-1.63-3.23c0-2.91,2.36-4.48,5-4.48a5.68,5.68,0,0,1,1.85.31h4.46v2.38h-2.12a3.07,3.07,0,0,1,.58,1.88c0,2.78-2.12,4.2-4.77,4.2a5.15,5.15,0,0,1-1.59-.29,1.24,1.24,0,0,0-.53,1.06c0,.66.49,1,1.94,1h2.1c3,0,4.59.93,4.59,3.1,0,2.49-2.58,4.39-6.71,4.39C798.36,132.05,796.1,131.06,796.1,128.87Zm8.79-.66c0-.89-.73-1.11-2-1.11h-1.5a7.17,7.17,0,0,1-1.73-.17,1.84,1.84,0,0,0-.81,1.43c0,1,1.15,1.64,3,1.64S804.89,129.18,804.89,128.21Zm-1.5-9.72c0-1.46-.82-2.27-1.92-2.27s-1.94.81-1.94,2.27a2,2,0,0,0,1.94,2.28C802.55,120.77,803.39,120,803.39,118.49Z" style="fill:#767b85"/><path d="M809.88,114.32h2.65l.22,1.63h.09a5.71,5.71,0,0,1,4-1.94c2.67,0,3.82,1.85,3.82,5v7.7h-3.24v-7.3c0-1.9-.53-2.59-1.75-2.59a3.58,3.58,0,0,0-2.58,1.39v8.5h-3.23Z" style="fill:#767b85"/></svg>