<svg width="128" height="128" fill="none" xmlns="http://www.w3.org/2000/svg"><path d="M69.333 45.706a7.625 7.625 0 0 0-7.627 7.627 7.625 7.625 0 0 0 7.627 7.627 7.625 7.625 0 0 0 7.627-7.627 7.625 7.625 0 0 0-7.627-7.627z" fill="#1F7ACC"/><path d="M69.333 16c-20 0-36.267 15.68-37.227 35.413l-10.24 13.654c-1.333 1.76-.053 4.266 2.134 4.266h8v16C32 91.2 36.8 96 42.666 96H48v16h37.333V87.04c12.587-5.973 21.334-18.827 21.334-33.707C106.667 32.693 89.973 16 69.333 16zm16 37.333c0 .694-.053 1.387-.106 2.08l4.426 3.52c.427.32.533.854.267 1.334l-4.267 7.413c-.267.48-.853.64-1.28.48l-5.28-2.133a16.03 16.03 0 0 1-3.573 2.08l-.853 5.653c-.054.533-.534.907-1.067.907h-8.533c-.534 0-.96-.374-1.067-.907l-.8-5.653a15.258 15.258 0 0 1-3.627-2.08l-5.28 2.133c-.48.16-1.066 0-1.333-.48l-4.267-7.413a1.01 1.01 0 0 1 .267-1.334l4.48-3.52c-.053-.693-.107-1.386-.107-2.08 0-.693.107-1.44.214-2.08l-4.534-3.52c-.426-.32-.533-.853-.267-1.386l4.267-7.36c.267-.48.8-.64 1.28-.48l5.334 2.133c1.066-.8 2.293-1.547 3.573-2.08l.8-5.653c.106-.534.533-.907 1.067-.907H73.6c.533 0 .96.373 1.067.907l.8 5.653a16.027 16.027 0 0 1 3.573 2.08l5.333-2.133c.48-.16 1.067 0 1.28.48l4.267 7.36c.266.48.16 1.066-.267 1.386l-4.533 3.52c.16.64.213 1.334.213 2.08z" fill="#1F7ACC"/></svg>