<svg fill="none" height="128" width="128" xmlns="http://www.w3.org/2000/svg"><path d="m106.027 98.507c2.346-3.734 3.733-8.054 3.733-12.747 0-13.28-10.72-24-24-24s-24 10.72-24 24 10.72 24 23.947 24c4.693 0 9.066-1.387 12.746-3.733l16.64 16.64 7.574-7.574zm-20.267.586c-7.36 0-13.333-5.973-13.333-13.333s5.973-13.333 13.333-13.333 13.333 5.973 13.333 13.333-5.973 13.333-13.333 13.333zm-1.92-45.333a31.4 31.4 0 0 0 -11.2 2.4l-2.933-4.427-20.267 32.96-16.053-18.773-19.36 30.987-8.694-6.24 26.667-42.667 16 18.667 21.333-34.667zm13.813 2.667a31.591 31.591 0 0 0 -10.933-2.614l27.307-43.146 8.64 6.293z" fill="#1f7acc"/></svg>