<svg fill="none" height="128" width="128" xmlns="http://www.w3.org/2000/svg"><path d="m63.947 10.667c-29.44 0-53.28 23.893-53.28 53.333s23.84 53.333 53.28 53.333c29.493 0 53.386-23.893 53.386-53.333s-23.893-53.333-53.386-53.333zm36.96 32h-15.734c-1.706-6.667-4.16-13.067-7.36-18.987 9.814 3.36 17.974 10.187 23.094 18.987zm-36.907-21.12a75.13 75.13 0 0 1 10.187 21.12h-20.374a75.128 75.128 0 0 1 10.187-21.12zm-41.28 53.12c-.853-3.414-1.387-6.987-1.387-10.667s.534-7.253 1.387-10.667h18.027c-.427 3.52-.747 7.04-.747 10.667s.32 7.147.747 10.667zm4.373 10.666h15.734c1.706 6.667 4.16 13.067 7.36 18.987a42.596 42.596 0 0 1 -23.094-18.987zm15.734-42.666h-15.734a42.596 42.596 0 0 1 23.094-18.987c-3.2 5.92-5.654 12.32-7.36 18.987zm21.173 63.786a75.125 75.125 0 0 1 -10.187-21.12h20.374a75.127 75.127 0 0 1 -10.187 21.12zm12.48-31.786h-24.96c-.48-3.52-.853-7.04-.853-10.667s.373-7.2.853-10.667h24.96c.48 3.467.853 7.04.853 10.667s-.373 7.147-.853 10.667zm1.333 29.653c3.2-5.92 5.654-12.32 7.36-18.987h15.734c-5.12 8.8-13.28 15.627-23.094 18.987zm9.44-29.653c.427-3.52.747-7.04.747-10.667s-.32-7.147-.747-10.667h18.027c.853 3.414 1.387 6.987 1.387 10.667s-.534 7.253-1.387 10.667z" fill="#1f7acc"/></svg>