<svg viewBox="0 0 103.97 96.92" xmlns="http://www.w3.org/2000/svg"><g fill="none"><path d="m50.26 0h-32.43v31.41a49.71 49.71 0 0 1 32.43-31.41z"/><path d="m61.19 96.92h-39.19l11.2-11.19a49.32 49.32 0 0 0 27.99 11.19z"/><path d="m68.34 96.92h35.66v-19.09a49.52 49.52 0 0 1 -35.66 19.09z"/><path d="m92.43.02 11.54 11.55v-11.55z"/></g><path d="m17.83 31.41a49.77 49.77 0 0 0 -.52 30.49l.52-.52z" fill="#074680"/><path d="m79.19 0h-28.93a49.71 49.71 0 0 0 -32.43 31.41v30z" fill="#074680"/><path d="m84.75 34.21-51.52 51.52a49.32 49.32 0 0 0 28 11.19h7.15a49.52 49.52 0 0 0 35.62-19.09v-26.47l-17.15-17.15a1.48 1.48 0 0 0 -2.1 0z" fill="#99cfff"/><path d="m33.23 85.73-11.23 11.19h-5.52l-7.89-7.92-8.16-8.13a1.5 1.5 0 0 1 0-2.1l16.88-16.87c.16.54.34 1.07.52 1.61a49.67 49.67 0 0 0 15.4 22.22z" fill="#ff8fad"/><path d="m79.21 0-.02.02z" fill="#1f7acc"/><path d="m79.26 0a49.7 49.7 0 0 1 24.74 17.08v-5.51l-11.57-11.57z" fill="#ff8fad"/><path d="m17.83 61.38v2.13c-.18-.54-.36-1.07-.52-1.61z" fill="#1f7acc"/><path d="m79.26 0h-.05z" fill="#1f7acc"/><path d="m104 17.08v34.28l-17.15-17.15a1.48 1.48 0 0 0 -2.1 0l-51.52 51.52a49.67 49.67 0 0 1 -15.4-22.22v-2.13l61.36-61.38h.07a49.7 49.7 0 0 1 24.74 17.08z" fill="#1f7acc"/></svg>